{
designer = "Truong Nguyen Huy";
designerURL = "be.net/moccreeative";
familyName = Xuong;
customParameters = (
{
name = glyphOrder;
value = (
.notdef,
space,
A,
a,
B,
b,
C,
c,
D,
d,
E,
e,
F,
f,
G,
g,
H,
h,
I,
i,
S,
s,
R,
r,
Q,
q,
M,
m,
N,
n,
O,
o,
P,
p,
Z,
z,
J,
j,
K,
k,
L,
l,
T,
t,
U,
u,
V,
v,
W,
w,
X,
x,
Y,
y,
zero,
one,
two,
three,
four,
five,
six,
seven,
eight,
nine,
comma,
hyphen,
underscore,
asciicircum,
slash,
backslash,
period,
colon,
semicolon,
less,
equal,
greater,
greaterequal,
lessequal,
exclam,
exclamdown,
question,
questiondown,
quotesingle,
quotedbl,
numbersign,
at,
asterisk,
dollar,
Euro,
cent,
dong,
dcroat_uni1ED3_n_g,
n_g_agrave_n,
c_h_u_y_ecircumflex_n,
c_uni1EED_a_space_h_agrave_n_g,
c_h_agrave_space_b_aacute,
t_uni1EDB_i_space_n_aacute_i,
d_z_ocircumflex,
b_aacute_space_c_h_aacute_y,
m_uni1EA7_n,
m_i_uni1EC1_n_space_t_acircumflex_y,
c_agrave_space_r_aacute,
h_uni1ED5_m_space_r_agrave_y,
h_u_uni1ED1_c,
q_u_uni1EA5_t,
ecircumflex_m_space_r_u,
c_agrave_space_r_uni1EE1_n,
x_u_uni1ED3_n_g_space_b_a_space_l_aacute,
s_ocircumflex_n_g_space_n_uhorn_uni1EDB_c,
uni1EDF_space_dcroat_acircumflex_y_space_c_oacute,
dcroat_oacute_n_g_space_c_uni1EED_a,
m_uni1EDF_space_c_uni1EED_a,
h_o_n_g_space_c_ograve_n_space_b_agrave_n,
c_ograve_n_space_b_agrave_n_space_n_egrave,
c_h_uacute_space_yacute,
c_o_i_space_c_h_uni1EEB_n_g,
c_uni1EA3_n_h_space_b_aacute_o,
dcroat_uni1ED3_n_g.ss02,
n_g_agrave_n.ss02,
c_h_u_y_ecircumflex_n.ss02,
c_uni1EED_a_space_h_agrave_n_g.ss02,
uni1EDF_space_dcroat_acircumflex_y_space_c_oacute.ss02,
ampersand,
parenleft,
parenright,
notequal,
braceleft,
bar,
braceright,
bracketleft,
bracketright,
quoteleft,
uni2197,
arrowup,
uni2196,
arrowright,
uni2198,
arrowdown,
uni2199,
arrowleft,
arrowboth,
arrowupdn,
quoteright,
quotedblleft,
quotedblright,
quotedblbase,
quotesinglbase,
periodcentered,
bullet,
endash,
emdash,
macron,
logicalnot,
product,
trademark,
colon_m_o_c_colon.liga,
registered,
copyright,
currency,
zero.dnom,
one.dnom,
two.dnom,

glyphs = (
{
glyphname = A;
layers = (
{
guideLines = (
{
angle = 90;
position = "{234, 0}";
},
{
angle = 90;
position = "{346, 0}";
},
{
position = "{0, 177}";
}
);
layerId = "D0000B7D-4744-4B9D-A6B4-49F65DE5F164";
paths = (
{
nodes = (
"10 0 LINE",
"143 665 LINE",
"168 700 LINE",
"418 700 LINE",
"443 665 LINE",
"576 0 LINE",
"421 0 LINE",
"391 177 LINE",
"366 142 LINE",
"220 142 LINE",
"195 177 LINE",
"165 0 LINE"
);
},
{
nodes = (
"209 286 LINE",
"234 251 LINE",
"351 251 LINE",
"376 286 LINE",
"336 545 LINE",
"249 545 LINE"
);
}
);
width = 586;
}
);
unicode = 0041;
},
{
glyphname = a;
layers = (
{
layerId = "D0000B7D-4744-4B9D-A6B4-49F65DE5F164";
paths = (
{
nodes = (
"10 0 LINE",
"143 665 LINE",
"168 700 LINE",
"418 700 LINE",
"443 665 LINE",
"576 0 LINE",
"421 0 LINE",
"391 177 LINE",
"366 142 LINE",
"220 142 LINE",
"195 177 LINE",
"165 0 LINE"
);
},
{
nodes = (
"209 286 LINE",
"234 251 LINE",
"351 251 LINE",
"376 286 LINE",
"336 545 LINE",
"249 545 LINE"
);
}
);
width = 586;
}
);
unicode = 0061;
},
{
glyphname = B;
layers = (
{
guideLines = (
{
angle = 90;
position = "{-771, 0}";
}
);
layerId = "D0000B7D-4744-4B9D-A6B4-49F65DE5F164";
paths = (
{
nodes = (
"40 0 LINE",
"40 700 LINE",
"460 700 LINE",
"540 588 LINE",
"540 405 LINE",
"483 358 LINE",
"540 311 LINE",
"540 112 LINE",
"460 0 LINE"
);
},
{
nodes = (
"195 565 LINE",
"195 417 LINE",
"238 417 OFFCURVE",
"334 417 OFFCURVE",
"360 417 CURVE",
"385 452 LINE",
"385 530 LINE",
"360 565 LINE"
);
},
{
nodes = (
"195 283 LINE",
"195 135 LINE",
"238 135 OFFCURVE",
"334 135 OFFCURVE",
"360 135 CURVE",
"385 170 LINE",
"385 248 LINE",
"360 283 LINE"
);
}
);
width = 580;
}
);
unicode = 0042;
},
{
glyphname = b;
layers = (
{
layerId = "D0000B7D-4744-4B9D-A6B4-49F65DE5F164";
paths = (
{
nodes = (
"40 0 LINE",
"40 700 LINE",
"460 700 LINE",
"540 588 LINE",
"540 405 LINE",
"483 358 LINE",
"540 311 LINE",
"540 112 LINE",
"460 0 LINE"
);
},
{
nodes = (
"195 565 LINE",
"195 417 LINE",
"238 417 OFFCURVE",
"334 417 OFFCURVE",
"360 417 CURVE",
"385 452 LINE",
"385 530 LINE",
"360 565 LINE"
);
},
{
nodes = (
"195 283 LINE",
"195 135 LINE",
"238 135 OFFCURVE",
"334 135 OFFCURVE",
"360 135 CURVE",
"385 170 LINE",
"385 248 LINE",
"360 283 LINE"
);
}
);
width = 580;
}
);
unicode = 0062;
},
{
glyphname = C;
layers = (
{
guideLines = (
{
angle = 90;
position = "{535, 0}";
},
{
angle = 90;
position = "{152, 0}";
},
{
position = "{0, 545}";
},
{
position = "{0, 190}";
},
{
angle = 90;
position = "{335, 0}";
},
{
angle = 90;
position = "{388, 0}";
}
);
layerId = "D0000B7D-4744-4B9D-A6B4-49F65DE5F164";
paths = (
{
nodes = (
"40 700 LINE",
"40 0 LINE",
"427 0 LINE",
"507 112 LINE",
"507 190 LINE",
"360 190 LINE",
"335 155 LINE",
"195 155 LINE",
"195 545 LINE",
"335 545 LINE",
"360 510 LINE",
"507 510 LINE",
"507 588 LINE",
"427 700 LINE"
);
}
);
width = 547;
}
);
unicode = 0043;
},
{
glyphname = c;
layers = (
{
layerId = "D0000B7D-4744-4B9D-A6B4-49F65DE5F164";
paths = (
{
nodes = (
"40 700 LINE",
"40 0 LINE",
"427 0 LINE",
"507 112 LINE",
"507 190 LINE",
"360 190 LINE",
"335 155 LINE",
"195 155 LINE",
"195 545 LINE",
"335 545 LINE",
"360 510 LINE",
"507 510 LINE",
"507 588 LINE",
"427 700 LINE"
);
}
);
width = 547;
}
);
unicode = 0063;
},
{
glyphname = D;
layers = (
{
guideLines = (
{
angle = 90;
position = "{-552, 0}";
}
);
layerId = "D0000B7D-4744-4B9D-A6B4-49F65DE5F164";
paths = (
{
nodes = (
"40 700 LINE",
"40 0 LINE",
"460 0 LINE",
"540 112 LINE",
"540 588 LINE",
"460 700 LINE"
);
},
{
nodes = (
"195 545 LINE",
"360 545 LINE",
"385 510 LINE",
"385 190 LINE",
"360 155 LINE",
"195 155 LINE"
);
}
);
width = 580;
}
);
unicode = 0044;
},
{
glyphname = d;
layers = (
{
layerId = "D0000B7D-4744-4B9D-A6B4-49F65DE5F164";
paths = (
{
nodes = (
"40 700 LINE",
"40 0 LINE",
"460 0 LINE",
"540 112 LINE",
"540 588 LINE",
"460 700 LINE"
);
},
{
nodes = (
"195 545 LINE",
"360 545 LINE",
"385 510 LINE",
"385 190 LINE",
"360 155 LINE",
"195 155 LINE"
);
}
);
width = 580;
}
);
unicode = 0064;
},
{
glyphname = E;
layers = (
{
guideLines = (
{
angle = 90;
position = "{504, 0}";
},
{
angle = 90;
position = "{406, 0}";
},
{
angle = 90;
position = "{195, 0}";
}
);
layerId = "D0000B7D-4744-4B9D-A6B4-49F65DE5F164";
paths = (
{
nodes = (
"40 0 LINE",
"40 700 LINE",
"424 700 LINE",
"504 588 LINE",
"504 510 LINE",
"383 510 LINE",
"358 545 LINE",
"195 545 LINE",
"195 410 LINE",
"383 410 LINE",
"383 290 LINE",
"195 290 LINE",
"195 155 LINE",
"358 155 LINE",
"383 190 LINE",
"504 190 LINE",
"504 112 LINE",
"424 0 LINE"
);
}
);
width = 544;
}
);
unicode = 0045;
},
{
glyphname = e;
layers = (
{
layerId = "D0000B7D-4744-4B9D-A6B4-49F65DE5F164";
paths = (
{
nodes = (
"40 0 LINE",
"40 700 LINE",
"424 700 LINE",
"504 588 LINE",
"504 510 LINE",
"383 510 LINE",
"358 545 LINE",
"195 545 LINE",
"195 410 LINE",
"383 410 LINE",
"383 290 LINE",
"195 290 LINE",
"195 155 LINE",
"358 155 LINE",
"383 190 LINE",
"504 190 LINE",
"504 112 LINE",
"424 0 LINE"
);
}
);
width = 544;
}
);
unicode = 0065;
},
{
glyphname = F;
layers = (
{
guideLines = (
{
angle = 90;
position = "{419, 0}";
},
{
angle = 90;
position = "{195, 0}";
}
);
layerId = "D0000B7D-4744-4B9D-A6B4-49F65DE5F164";
paths = (
{
nodes = (
"40 0 LINE",
"40 700 LINE",
"413 700 LINE",
"473 588 LINE",
"473 510 LINE",
"360 510 LINE",
"335 545 LINE",
"195 545 LINE",
"195 385 LINE",
"419 385 LINE",
"419 250 LINE",
"195 250 LINE",
"195 0 LINE"
);
}
);
width = 513;
}
);
unicode = 0046;
},
{
glyphname = f;
layers = (
{
layerId = "D0000B7D-4744-4B9D-A6B4-49F65DE5F164";
paths = (
{
nodes = (
"40 0 LINE",
"40 700 LINE",
"413 700 LINE",
"473 588 LINE",
"473 510 LINE",
"360 510 LINE",
"335 545 LINE",
"195 545 LINE",
"195 385 LINE",
"419 385 LINE",
"419 250 LINE",
"195 250 LINE",
"195 0 LINE"
);
}
);
width = 513;
}
);
unicode = 0066;
},
{
glyphname = G;
layers = (
{
guideLines = (
{
position = "{0, 802}";
},
{
angle = 90;
position = "{515, 0}";
}
);
layerId = "D0000B7D-4744-4B9D-A6B4-49F65DE5F164";
paths = (
{
nodes = (
"40 0 LINE",
"40 700 LINE",
"435 700 LINE",
"515 588 LINE",
"515 510 LINE",
"385 510 LINE",
"360 545 LINE",
"195 545 LINE",
"195 155 LINE",
"360 155 LINE",
"360 245 LINE",
"272 245 LINE",
"272 400 LINE",
"515 400 LINE",
"515 0 LINE",
"439 0 LINE",
"414 35 LINE",
"389 0 LINE"
);
}
);
width = 555;
}
);
unicode = 0047;
},
{
glyphname = g;
layers = (
{
guideLines = (
{
angle = 90;
position = "{515, 0}";
}
);
layerId = "D0000B7D-4744-4B9D-A6B4-49F65DE5F164";
paths = (
{
nodes = (
"40 0 LINE",
"40 700 LINE",
"435 700 LINE",
"515 588 LINE",
"515 510 LINE",
"385 510 LINE",
"360 545 LINE",
"195 545 LINE",
"195 155 LINE",
"360 155 LINE",
"360 245 LINE",
"272 245 LINE",
"272 400 LINE",
"515 400 LINE",
"515 0 LINE",
"439 0 LINE",
"414 35 LINE",
"389 0 LINE"
);
}
);
width = 555;
}
);
unicode = 0067;
},
{
glyphname = H;
layers = (
{
guideLines = (
{
angle = 90;
position = "{410, 0}";
},
{
angle = 90;
position = "{195, 0}";
}
);
layerId = "D0000B7D-4744-4B9D-A6B4-49F65DE5F164";
paths = (
{
nodes = (
"40 0 LINE",
"40 700 LINE",
"195 700 LINE",
"195 475 LINE",
"220 440 LINE",
"360 440 LINE",
"385 475 LINE",
"385 700 LINE",
"540 700 LINE",
"540 0 LINE",
"385 0 LINE",
"385 250 LINE",
"360 285 LINE",
"220 285 LINE",
"195 250 LINE",
"195 0 LINE"
);
}
);
width = 580;
}
);
unicode = 0048;
},
{
glyphname = h;
layers = (
{
layerId = "D0000B7D-4744-4B9D-A6B4-49F65DE5F164";
paths = (
{
nodes = (
"40 0 LINE",
"40 700 LINE",
"195 700 LINE",
"195 475 LINE",
"220 440 LINE",
"360 440 LINE",
"385 475 LINE",
"385 700 LINE",
"540 700 LINE",
"540 0 LINE",
"385 0 LINE",
"385 250 LINE",
"360 285 LINE",
"220 285 LINE",
"195 250 LINE",
"195 0 LINE"
);
}
);
width = 580;
}
);
unicode = 0068;
},
{
glyphname = I;
layers = (
{
layerId = "D0000B7D-4744-4B9D-A6B4-49F65DE5F164";
paths = (
{
nodes = (
"40 700 LINE",
"195 700 LINE",
"195 0 LINE",
"40 0 LINE"
);
}
);
width = 235;
}
);
unicode = 0049;
},
{
glyphname = i;
layers = (
{
layerId = "D0000B7D-4744-4B9D-A6B4-49F65DE5F164";
paths = (
{
nodes = (
"40 700 LINE",
"195 700 LINE",
"195 0 LINE",
"40 0 LINE"
);
}
);
width = 235;
}
);
unicode = 0069;
},
{
glyphname = S;
layers = (
{
guideLines = (
{
angle = 90;
position = "{-822, 0}";
},
{
position = "{0, 700}";
},
{
angle = 90;
position = "{40, 0}";
showMeasurement = 1;
},
{
angle = 90;
position = "{442, 0}";
}
);
layerId = "D0000B7D-4744-4B9D-A6B4-49F65DE5F164";
paths = (
{
nodes = (
"502 588 LINE",
"422 700 LINE",
"65 700 LINE",
"40 665 LINE",
"40 480 LINE",
"358 155 LINE",
"193 155 LINE",
"168 190 LINE",
"40 190 LINE",
"40 112 LINE",
"120 0 LINE",
"477 0 LINE",
"502 35 LINE",
"502 220 LINE",
"187 545 LINE",
"352 545 LINE",
"377 510 LINE",
"502 510 LINE"
);
}
);
width = 542;
}
);
unicode = 0053;
},
{
glyphname = s;
layers = (
{
layerId = "D0000B7D-4744-4B9D-A6B4-49F65DE5F164";
paths = (
{
nodes = (
"502 588 LINE",
"422 700 LINE",
"65 700 LINE",
"40 665 LINE",
"40 480 LINE",
"358 155 LINE",
"193 155 LINE",
"168 190 LINE",
"40 190 LINE",
"40 112 LINE",
"120 0 LINE",
"477 0 LINE",
"502 35 LINE",
"502 220 LINE",
"187 545 LINE",
"352 545 LINE",
"377 510 LINE",
"502 510 LINE"
);
}
);
width = 542;
}
);
unicode = 0073;
},
{
glyphname = R;
layers = (
{
guideLines = (
{
position = "{0, 700}";
},
{
angle = 90;
position = "{40, 0}";
},
{
angle = 90;
position = "{195, 0}";
},
{
angle = 90;
position = "{346, 0}";
},
{
angle = 90;
position = "{521, 0}";
},
{
angle = 90;
position = "{195, 0}";
}
);
layerId = "D0000B7D-4744-4B9D-A6B4-49F65DE5F164";
paths = (
{
nodes = (
"40 0 LINE",
"40 700 LINE",
"421 700 LINE",
"501 588 LINE",
"501 418 LINE",
"421 306 LINE",
"521 78 LINE",
"521 0 LINE",
"366 0 LINE",
"273 264 LINE",
"195 264 LINE",
"195 0 LINE"
);
},
{
nodes = (
"195 545 LINE",
"195 419 LINE",
"321 419 LINE",
"346 454 LINE",
"346 510 LINE",
"321 545 LINE"
);
}
);
width = 541;
}
);
unicode = 0052;
},
{
glyphname = r;
layers = (
{
layerId = "D0000B7D-4744-4B9D-A6B4-49F65DE5F164";
paths = (
{
nodes = (
"40 0 LINE",
"40 700 LINE",
"421 700 LINE",
"501 588 LINE",
"501 418 LINE",
"421 306 LINE",
"521 78 LINE",
"521 0 LINE",
"366 0 LINE",
"273 264 LINE",
"195 264 LINE",
"195 0 LINE"
);
},
{
nodes = (
"195 545 LINE",
"195 419 LINE",
"321 419 LINE",
"346 454 LINE",
"346 510 LINE",
"321 545 LINE"
);
}
);
width = 541;
}
);
unicode = 0072;
},
{
glyphname = Q;
layers = (
{
layerId = "D0000B7D-4744-4B9D-A6B4-49F65DE5F164";
paths = (
{
nodes = (
"40 588 LINE",
"120 700 LINE",
"500 700 LINE",
"580 588 LINE",
"580 112 LINE",
"500 0 LINE",
"120 0 LINE",
"40 112 LINE"
);
},
{
nodes = (
"195 510 LINE",
"195 190 LINE",
"220 155 LINE",
"400 155 LINE",
"425 190 LINE",
"425 510 LINE",
"400 545 LINE",
"220 545 LINE"
);
},
{
nodes = (
"580 178 LINE",
"645 145 LINE",
"645 67 LINE",
"581 -13 LINE",
"517 24 LINE",
"580 112 LINE"
);
}
);
width = 655;
}
);
unicode = 0051;
},
{
glyphname = q;
layers = (
{
layerId = "D0000B7D-4744-4B9D-A6B4-49F65DE5F164";
paths = (
{
nodes = (
"40 588 LINE",
"120 700 LINE",
"500 700 LINE",
"580 588 LINE",
"580 112 LINE",
"500 0 LINE",
"120 0 LINE",
"40 112 LINE"
);
},
{
nodes = (
"195 510 LINE",
"195 190 LINE",
"220 155 LINE",
"400 155 LINE",
"425 190 LINE",
"425 510 LINE",
"400 545 LINE",
"220 545 LINE"
);
},
{
nodes = (
"580 178 LINE",
"645 145 LINE",
"645 67 LINE",
"581 -13 LINE",
"517 24 LINE",
"580 112 LINE"
);
}
);
width = 655;
}
);
unicode = 0071;
},
{
glyphname = M;
layers = (
{
guideLines = (
{
angle = 90;
position = "{519, 0}";
},
{
angle = 90;
position = "{398, 0}";
}
);
layerId = "D0000B7D-4744-4B9D-A6B4-49F65DE5F164";
paths = (
{
nodes = (
"40 0 LINE",
"195 0 LINE",
"195 475 LINE",
"220 475 LINE",
"262 199 LINE",
"287 164 LINE",
"408 164 LINE",
"433 199 LINE",
"475 475 LINE",
"500 475 LINE",
"500 0 LINE",
"655 0 LINE",
"655 588 LINE",
"575 700 LINE",
"408 700 LINE",
"350 319 LINE",
"345 319 LINE",
"287 700 LINE",
"120 700 LINE",
"40 588 LINE"
);
}
);
width = 695;
}
);
unicode = 004D;
},
{
glyphname = m;
layers = (
{
guideLines = (
{
angle = 90;
position = "{264, 0}";
},
{
angle = 90;
position = "{587, 0}";
},
{
angle = 90;
position = "{20, 0}";
},
{
angle = 90;
position = "{512, 0}";
},
{
angle = 90;
position = "{519, 0}";
}
);
layerId = "D0000B7D-4744-4B9D-A6B4-49F65DE5F164";
paths = (
{
nodes = (
"40 0 LINE",
"195 0 LINE",
"195 475 LINE",
"220 475 LINE",
"262 199 LINE",
"287 164 LINE",
"408 164 LINE",
"433 199 LINE",
"475 475 LINE",
"500 475 LINE",
"500 0 LINE",
"655 0 LINE",
"655 588 LINE",
"575 700 LINE",
"408 700 LINE",
"350 319 LINE",
"345 319 LINE",
"287 700 LINE",
"120 700 LINE",
"40 588 LINE"
);
}
);
width = 695;
}
);
unicode = 006D;
},
{
glyphname = N;
layers = (
{
guideLines = (
{
angle = 90;
position = "{703, 0}";
},
{
angle = 90;
position = "{545, 0}";
},
{
angle = 90;
position = "{377, 0}";
},
{
angle = 90;
position = "{377, 0}";
},
{
angle = 90;
position = "{195, 0}";
},
{
position = "{0, 588}";
showMeasurement = 1;
}
);
layerId = "D0000B7D-4744-4B9D-A6B4-49F65DE5F164";
paths = (
{
nodes = (
"377 700 LINE",
"377 350 LINE",
"352 350 LINE",
"195 700 LINE",
"120 700 LINE",
"40 588 LINE",
"40 0 LINE",
"195 0 LINE",
"195 350 LINE",
"220 350 LINE",
"377 0 LINE",
"452 0 LINE",
"532 112 LINE",
"532 700 LINE"
);
}
);
width = 572;
}
);
unicode = 004E;
},
{
glyphname = n;
layers = (
{
layerId = "D0000B7D-4744-4B9D-A6B4-49F65DE5F164";
paths = (
{
nodes = (
"377 700 LINE",
"377 350 LINE",
"352 350 LINE",
"195 700 LINE",
"120 700 LINE",
"40 588 LINE",
"40 0 LINE",
"195 0 LINE",
"195 350 LINE",
"220 350 LINE",
"377 0 LINE",
"452 0 LINE",
"532 112 LINE",
"532 700 LINE"
);
}
);
width = 572;
}
);
unicode = 006E;
},
{
glyphname = O;
layers = (
{
guideLines = (
{
position = "{0, 510}";
},
{
position = "{0, 540}";
},
{
angle = 90;
position = "{220, 0}";
},
{
angle = 90;
position = "{336, 0}";
},
{
position = "{0, 190}";
},
{
position = "{0, 665}";
},
{
angle = 90;
position = "{515, 0}";
},
{
angle = 90;
position = "{40, 0}";
},
{
position = "{0, 700}";
}
);
layerId = "D0000B7D-4744-4B9D-A6B4-49F65DE5F164";
paths = (
{
nodes = (
"40 588 LINE",
"120 700 LINE",
"500 700 LINE",
"580 588 LINE",
"580 112 LINE",
"500 0 LINE",
"120 0 LINE",
"40 112 LINE"
);
},
{
nodes = (
"195 510 LINE",
"195 190 LINE",
"220 155 LINE",
"400 155 LINE",
"425 190 LINE",
"425 510 LINE",
"400 545 LINE",
"220 545 LINE"
);
}
);
width = 620;
}
);
unicode = 004F;
},
{
glyphname = o;
layers = (
{
guideLines = (
{
angle = 90;
position = "{336, 0}";
}
);
layerId = "D0000B7D-4744-4B9D-A6B4-49F65DE5F164";
paths = (
{
nodes = (
"40 588 LINE",
"120 700 LINE",
"500 700 LINE",
"580 588 LINE",
"580 112 LINE",
"500 0 LINE",
"120 0 LINE",
"40 112 LINE"
);
},
{
nodes = (
"195 510 LINE",
"195 190 LINE",
"220 155 LINE",
"400 155 LINE",
"425 190 LINE",
"425 510 LINE",
"400 545 LINE",
"220 545 LINE"
);
}
);
width = 620;
}
);
unicode = 006F;
},
{
glyphname = P;
layers = (
{
guideLines = (
{
angle = 90;
position = "{477, 0}";
}
);
layerId = "D0000B7D-4744-4B9D-A6B4-49F65DE5F164";
paths = (
{
nodes = (
"40 0 LINE",
"40 700 LINE",
"422 700 LINE",
"502 588 LINE",
"502 342 LINE",
"422 230 LINE",
"195 230 LINE",
"195 0 LINE"
);
},
{
nodes = (
"195 545 LINE",
"195 385 LINE",
"322 385 LINE",
"347 420 LINE",
"347 510 LINE",
"322 545 LINE"
);
}
);
width = 542;
}
);
unicode = 0050;
},
{
glyphname = p;
layers = (
{
layerId = "D0000B7D-4744-4B9D-A6B4-49F65DE5F164";
paths = (
{
nodes = (
"40 0 LINE",
"40 700 LINE",
"422 700 LINE",
"502 588 LINE",
"502 342 LINE",
"422 230 LINE",
"195 230 LINE",
"195 0 LINE"
);
},
{
nodes = (
"195 545 LINE",
"195 385 LINE",
"322 385 LINE",
"347 420 LINE",
"347 510 LINE",
"322 545 LINE"
);
}
);
width = 542;
}
);
unicode = 0070;
},
{
glyphname = Z;
layers = (
{
guideLines = (
{
angle = 90;
position = "{40, 0}";
},
{
angle = 90;
position = "{528, 0}";
}
);
layerId = "D0000B7D-4744-4B9D-A6B4-49F65DE5F164";
paths = (
{
nodes = (
"40 580 LINE",
"40 700 LINE",
"448 700 LINE",
"528 588 LINE",
"263 155 LINE",
"503 155 LINE",
"528 120 LINE",
"528 0 LINE",
"120 0 LINE",
"40 112 LINE",
"305 545 LINE",
"65 545 LINE"
);
}
);
width = 568;
}
);
unicode = 005A;
},
{
glyphname = z;
layers = (
{
guideLines = (
{
angle = 90;
position = "{528, 0}";
},
{
angle = 90;
position = "{40, 0}";
}
);
layerId = "D0000B7D-4744-4B9D-A6B4-49F65DE5F164";
paths = (
{
nodes = (
"40 580 LINE",
"40 700 LINE",
"448 700 LINE",
"528 588 LINE",
"263 155 LINE",
"503 155 LINE",
"528 120 LINE",
"528 0 LINE",
"120 0 LINE",
"40 112 LINE",
"305 545 LINE",
"65 545 LINE"
);
}
);
width = 568;
}
);
unicode = 007A;
},
{
glyphname = J;
layers = (
{
guideLines = (
{
position = "{0, 190}";
},
{
angle = 90;
position = "{40, 0}";
}
);
layerId = "D0000B7D-4744-4B9D-A6B4-49F65DE5F164";
paths = (
{
nodes = (
"470 0 LINE",
"470 700 LINE",
"315 700 LINE",
"315 155 LINE",
"220 155 LINE",
"195 190 LINE",
"40 190 LINE",
"40 112 LINE",
"120 0 LINE"
);
},
{
nodes = (
"118 545 LINE",
"315 545 LINE",
"315 700 LINE",
"118 700 LINE"
);
}
);
width = 510;
}
);
unicode = 004A;
},
{
glyphname = j;
layers = (
{
layerId = "D0000B7D-4744-4B9D-A6B4-49F65DE5F164";
paths = (
{
nodes = (
"470 0 LINE",
"470 700 LINE",
"315 700 LINE",
"315 155 LINE",
"220 155 LINE",
"195 190 LINE",
"40 190 LINE",
"40 112 LINE",
"120 0 LINE"
);
},
{
nodes = (
"118 545 LINE",
"315 545 LINE",
"315 700 LINE",
"118 700 LINE"
);
}
);
width = 510;
}
);
unicode = 006A;
},
{
glyphname = K;
layers = (
{
guideLines = (
{
angle = 90;
position = "{535, 0}";
showMeasurement = 1;
},
{
position = "{0, 347}";
}
);
layerId = "D0000B7D-4744-4B9D-A6B4-49F65DE5F164";
paths = (
{
nodes = (
"40 0 LINE",
"40 700 LINE",
"195 700 LINE",
"195 425 LINE",
"380 700 LINE",
"535 700 LINE",
"535 622 LINE",
"335 347 LINE",
"535 78 LINE",
"535 0 LINE",
"387 0 LINE",
"195 275 LINE",
"195 0 LINE"
);
}
);
width = 575;
}
);
unicode = 004B;
},
{
glyphname = k;
layers = (
{
layerId = "D0000B7D-4744-4B9D-A6B4-49F65DE5F164";
paths = (
{
nodes = (
"40 0 LINE",
"40 700 LINE",
"195 700 LINE",
"195 425 LINE",
"380 700 LINE",
"535 700 LINE",
"535 622 LINE",
"335 347 LINE",
"535 78 LINE",
"535 0 LINE",
"387 0 LINE",
"195 275 LINE",
"195 0 LINE"
);
}
);
width = 575;
}
);
unicode = 006B;
},
{
glyphname = L;
layers = (
{
guideLines = (
{
position = "{0, 155}";
}
);
layerId = "D0000B7D-4744-4B9D-A6B4-49F65DE5F164";
paths = (
{
nodes = (
"40 0 LINE",
"40 700 LINE",
"195 700 LINE",
"195 190 LINE",
"220 155 LINE",
"415 155 LINE",
"415 112 LINE",
"335 0 LINE"
);
}
);
width = 415;
}
);
unicode = 004C;
},
{
glyphname = l;
layers = (
{
layerId = "D0000B7D-4744-4B9D-A6B4-49F65DE5F164";
paths = (
{
nodes = (
"40 0 LINE",
"40 700 LINE",
"195 700 LINE",
"195 190 LINE",
"220 155 LINE",
"415 155 LINE",
"415 112 LINE",
"335 0 LINE"
);
}
);
width = 415;
}
);
unicode = 006C;
},
{
glyphname = T;
layers = (
{
guideLines = (
{
angle = 90;
position = "{189, 0}";
},
{
position = "{0, 595}";
}
);
layerId = "D0000B7D-4744-4B9D-A6B4-49F65DE5F164";
paths = (
{
nodes = (
"0 500 LINE",
"0 588 LINE",
"80 700 LINE",
"451 700 LINE",
"531 588 LINE",
"531 500 LINE",
"443 500 LINE",
"343 575 LINE",
"343 0 LINE",
"188 0 LINE",
"188 575 LINE",
"88 500 LINE"
);
}
);
width = 531;
}
);
unicode = 0054;
},
{
glyphname = t;
layers = (
{
layerId = "D0000B7D-4744-4B9D-A6B4-49F65DE5F164";
paths = (
{
nodes = (
"0 500 LINE",
"0 588 LINE",
"80 700 LINE",
"451 700 LINE",
"531 588 LINE",
"531 500 LINE",
"443 500 LINE",
"343 575 LINE",
"343 0 LINE",
"188 0 LINE",
"188 575 LINE",
"88 500 LINE"
);
}
);
width = 531;
}
);
unicode = 0074;
},
{
glyphname = U;
layers = (
{
guideLines = (
{
position = "{0, 190}";
},
{
angle = 90;
position = "{573, 0}";
}
);
layerId = "D0000B7D-4744-4B9D-A6B4-49F65DE5F164";
paths = (
{
nodes = (
"40 700 LINE",
"195 700 LINE",
"195 190 LINE",
"220 155 LINE",
"393 155 LINE",
"418 190 LINE",
"418 700 LINE",
"573 700 LINE",
"573 112 LINE",
"493 0 LINE",
"120 0 LINE",
"40 112 LINE"
);
}
);
width = 613;
}
);
unicode = 0055;
},
{
glyphname = u;
layers = (
{
layerId = "D0000B7D-4744-4B9D-A6B4-49F65DE5F164";
paths = (
{
nodes = (
"40 700 LINE",
"195 700 LINE",
"195 190 LINE",
"220 155 LINE",
"393 155 LINE",
"418 190 LINE",
"418 700 LINE",
"573 700 LINE",
"573 112 LINE",
"493 0 LINE",
"120 0 LINE",
"40 112 LINE"
);
}
);
width = 613;
}
);
unicode = 0075;
},
{
glyphname = V;
layers = (
{
layerId = "D0000B7D-4744-4B9D-A6B4-49F65DE5F164";
paths = (
{
nodes = (
"5 700 LINE",
"160 700 LINE",
"244 155 LINE",
"331 155 LINE",
"416 700 LINE",
"571 700 LINE",
"438 35 LINE",
"413 0 LINE",
"163 0 LINE",
"138 35 LINE"
);
},
{
nodes = (
"244 155 LINE",
"331 155 LINE"
);
}
);
width = 576;
}
);
unicode = 0056;
},
{
glyphname = v;
layers = (
{
layerId = "D0000B7D-4744-4B9D-A6B4-49F65DE5F164";
paths = (
{
nodes = (
"5 700 LINE",
"160 700 LINE",
"244 155 LINE",
"331 155 LINE",
"416 700 LINE",
"571 700 LINE",
"438 35 LINE",
"413 0 LINE",
"163 0 LINE",
"138 35 LINE"
);
},
{
nodes = (
"244 155 LINE",
"331 155 LINE"
);
}
);
width = 576;
}
);
unicode = 0076;
},
{
glyphname = W;
layers = (
{
guideLines = (
{
position = "{0, 249}";
}
);
layerId = "D0000B7D-4744-4B9D-A6B4-49F65DE5F164";
paths = (
{
nodes = (
"40 622 LINE",
"40 700 LINE",
"195 700 LINE",
"278 250 LINE",
"303 250 LINE",
"358 465 LINE",
"383 500 LINE",
"505 500 LINE",
"530 465 LINE",
"585 250 LINE",
"609 250 LINE",
"687 700 LINE",
"842 700 LINE",
"842 622 LINE",
"717 0 LINE",
"522 0 LINE",
"450 345 LINE",
"440 345 LINE",
"368 0 LINE",
"173 0 LINE"
);
}
);
width = 882;
}
);
unicode = 0057;
},
{
glyphname = w;
layers = (
{
guideLines = (
{
position = "{0, 465}";
}
);
layerId = "D0000B7D-4744-4B9D-A6B4-49F65DE5F164";
paths = (
{
nodes = (
"40 622 LINE",
"40 700 LINE",
"195 700 LINE",
"278 250 LINE",
"303 250 LINE",
"358 465 LINE",
"383 500 LINE",
"505 500 LINE",
"530 465 LINE",
"585 250 LINE",
"609 250 LINE",
"687 700 LINE",
"842 700 LINE",
"842 622 LINE",
"717 0 LINE",
"522 0 LINE",
"450 345 LINE",
"440 345 LINE",
"368 0 LINE",
"173 0 LINE"
);
}
);
width = 882;
}
);
unicode = 0077;
},
{
glyphname = X;
layers = (
{
guideLines = (
{
position = "{0, 372}";
},
{
angle = 90;
position = "{-758, 0}";
},
{
angle = 90;
position = "{610, 0}";
showMeasurement = 1;
},
{
position = "{0, 78}";
},
{
position = "{0, 622}";
},
{
angle = 90;
position = "{40, 0}";
},
{
angle = 90;
position = "{305, 0}";
},
{
position = "{0, 863}";
showMeasurement = 1;
}
);
layerId = "D0000B7D-4744-4B9D-A6B4-49F65DE5F164";
paths = (
{
nodes = (
"40 622 LINE",
"40 700 LINE",
"190 700 LINE",
"305 420 LINE",
"425 700 LINE",
"575 700 LINE",
"575 622 LINE",
"450 372 LINE",
"575 78 LINE",
"575 0 LINE",
"425 0 LINE",
"305 280 LINE",
"190 0 LINE",
"40 0 LINE",
"40 78 LINE",
"165 372 LINE"
);
}
);
width = 615;
}
);
unicode = 0058;
},
{
glyphname = x;
layers = (
{
layerId = "D0000B7D-4744-4B9D-A6B4-49F65DE5F164";
paths = (
{
nodes = (
"40 622 LINE",
"40 700 LINE",
"190 700 LINE",
"305 420 LINE",
"425 700 LINE",
"575 700 LINE",
"575 622 LINE",
"450 372 LINE",
"575 78 LINE",
"575 0 LINE",
"425 0 LINE",
"305 280 LINE",
"190 0 LINE",
"40 0 LINE",
"40 78 LINE",
"165 372 LINE"
);
}
);
width = 615;
}
);
unicode = 0078;
},
{
glyphname = Y;
layers = (
{
guideLines = (
{
position = "{0, 328}";
},
{
position = "{0, 622}";
}
);
layerId = "D0000B7D-4744-4B9D-A6B4-49F65DE5F164";
paths = (
{
nodes = (
"5 622 LINE",
"5 700 LINE",
"145 700 LINE",
"236 437 LINE",
"326 700 LINE",
"466 700 LINE",
"466 622 LINE",
"314 276 LINE",
"314 0 LINE",
"159 0 LINE",
"159 276 LINE"
);
}
);
width = 471;
}
);
unicode = 0059;
},
{
glyphname = y;
layers = (
{
layerId = "D0000B7D-4744-4B9D-A6B4-49F65DE5F164";
paths = (
{
nodes = (
"5 622 LINE",
"5 700 LINE",
"145 700 LINE",
"236 437 LINE",
"326 700 LINE",
"466 700 LINE",
"466 622 LINE",
"314 276 LINE",
"314 0 LINE",
"159 0 LINE",
"159 276 LINE"
);
}
);
width = 471;
}
);
unicode = 0079;
},
{
glyphname = zero;
layers = (
{
layerId = "D0000B7D-4744-4B9D-A6B4-49F65DE5F164";
paths = (
{
nodes = (
"40 588 LINE",
"120 700 LINE",
"460 700 LINE",
"540 588 LINE",
"540 112 LINE",
"460 0 LINE",
"120 0 LINE",
"40 112 LINE"
);
},
{
nodes = (
"195 510 LINE",
"195 190 LINE",
"220 155 LINE",
"360 155 LINE",
"385 190 LINE",
"385 510 LINE",
"360 545 LINE",
"220 545 LINE"
);
}
);
width = 580;
}
);
unicode = 0030;
},
{
glyphname = one;
layers = (
{
guideLines = (
{
angle = 90;
position = "{208, 0}";
},
{
angle = 90;
position = "{363, 0}";
}
);
layerId = "D0000B7D-4744-4B9D-A6B4-49F65DE5F164";
paths = (
{
nodes = (
"103 409 LINE",
"40 409 LINE",
"40 564 LINE",
"208 700 LINE",
"338 700 LINE",
"363 665 LINE",
"363 0 LINE",
"208 0 LINE",
"208 494 LINE"
);
}
);
width = 403;
}
);
unicode = 0031;
},
{
glyphname = two;
layers = (
{
guideLines = (
{
angle = 90;
position = "{509, 0}";
},
{
position = "{0, 489}";
},
{
angle = 90;
position = "{40, 0}";
}
);
layerId = "D0000B7D-4744-4B9D-A6B4-49F65DE5F164";
paths = (
{
nodes = (
"195 489 LINE",
"40 489 LINE",
"40 588 LINE",
"120 700 LINE",
"484 700 LINE",
"509 665 LINE",
"509 427 LINE",
"254 155 LINE",
"484 155 LINE",
"509 120 LINE",
"509 0 LINE",
"40 0 LINE",
"40 155 LINE",
"354 489 LINE",
"354 545 LINE",
"230 545 LINE"
);
}
);
width = 549;
}
);
unicode = 0032;
},
{
glyphname = three;
layers = (
{
layerId = "D0000B7D-4744-4B9D-A6B4-49F65DE5F164";
paths = (
{
nodes = (
"40 657 LINE",
"40 700 LINE",
"460 700 LINE",
"485 665 LINE",
"485 35 LINE",
"460 0 LINE",
"46 0 LINE",
"46 43 LINE",
"126 155 LINE",
"330 155 LINE",
"330 273 LINE",
"128 273 LINE",
"128 428 LINE",
"327 428 LINE",
"327 545 LINE",
"120 545 LINE"
);
}
);
width = 525;
}
);
unicode = 0033;
},
{
glyphname = four;
layers = (
{
guideLines = (
{
position = "{0, 287}";
},
{
angle = 90;
position = "{307, 0}";
}
);
layerId = "D0000B7D-4744-4B9D-A6B4-49F65DE5F164";
paths = (
{
nodes = (
"259 700 LINE",
"437 700 LINE",
"462 665 LINE",
"462 287 LINE",
"512 287 LINE",
"537 252 LINE",
"537 132 LINE",
"462 132 LINE",
"462 0 LINE",
"307 0 LINE",
"307 132 LINE",
"65 132 LINE",
"40 167 LINE",
"40 337 LINE"
);
},
{
nodes = (
"307 481 LINE",
"205 313 LINE",
"205 288 LINE",
"307 288 LINE"
);
}
);
width = 577;
}
);
unicode = 0034;
},
{
glyphname = five;
layers = (
{
guideLines = (
{
angle = 90;
position = "{40, 0}";
},
{
angle = 90;
position = "{454, 0}";
}
);
layerId = "D0000B7D-4744-4B9D-A6B4-49F65DE5F164";
paths = (
{
nodes = (
"479 657 LINE",
"479 700 LINE",
"65 700 LINE",
"40 665 LINE",
"40 315 LINE",
"65 280 LINE",
"324 280 LINE",
"324 155 LINE",
"120 155 LINE",
"40 43 LINE",
"40 0 LINE",
"454 0 LINE",
"479 35 LINE",
"479 400 LINE",
"454 435 LINE",
"195 435 LINE",
"195 545 LINE",
"399 545 LINE"
);
}
);
width = 519;
}
);
unicode = 0035;
},
{
glyphname = six;
layers = (
{
guideLines = (
{
position = "{0, 369}";
},
{
angle = 90;
position = "{195, 0}";
},
{
position = "{0, 155}";
},
{
position = "{0, 190}";
}
);
layerId = "D0000B7D-4744-4B9D-A6B4-49F65DE5F164";
paths = (
{
nodes = (
"503 588 LINE",
"423 700 LINE",
"65 700 LINE",
"40 665 LINE",
"40 35 LINE",
"65 0 LINE",
"478 0 LINE",
"503 35 LINE",
"503 355 LINE",
"478 390 LINE",
"195 390 LINE",
"195 545 LINE",
"338 545 LINE",
"383 485 LINE",
"503 485 LINE"
);
},
{
nodes = (
"220 255 LINE",
"323 255 LINE",
"348 220 LINE",
"348 190 LINE",
"323 155 LINE",
"220 155 LINE",
"195 190 LINE",
"195 220 LINE"
);
}
);
width = 543;
}
);
unicode = 0036;
},
{
glyphname = seven;
layers = (
{
layerId = "D0000B7D-4744-4B9D-A6B4-49F65DE5F164";
paths = (
{
nodes = (
"15 657 LINE",
"15 700 LINE",
"415 700 LINE",
"440 665 LINE",
"440 542 LINE",
"269 0 LINE",
"114 0 LINE",
"114 78 LINE",
"262 545 LINE",
"95 545 LINE"
);
}
);
width = 480;
}
);
unicode = 0037;
},
{
glyphname = eight;
layers = (
{
guideLines = (
{
angle = 90;
position = "{195, 0}";
},
{
angle = 90;
position = "{354, 0}";
},
{
angle = 90;
position = "{95, 0}";
},
{
position = "{0, 155}";
},
{
position = "{0, 350}";
},
{
angle = 90;
position = "{498, 0}";
}
);
layerId = "D0000B7D-4744-4B9D-A6B4-49F65DE5F164";
paths = (
{
nodes = (
"40 588 LINE",
"120 700 LINE",
"463 700 LINE",
"543 588 LINE",
"543 395 LINE",
"488 350 LINE",
"543 305 LINE",
"543 112 LINE",
"463 0 LINE",
"120 0 LINE",
"40 112 LINE",
"40 305 LINE",
"95 350 LINE",
"40 395 LINE"
);
},
{
nodes = (
"195 500 LINE",
"195 435 LINE",
"240 390 LINE",
"343 390 LINE",
"388 435 LINE",
"388 500 LINE",
"343 545 LINE",
"240 545 LINE"
);
},
{
nodes = (
"195 265 LINE",
"195 200 LINE",
"240 155 LINE",
"343 155 LINE",
"388 200 LINE",
"388 265 LINE",
"343 310 LINE",
"240 310 LINE"
);
}
);
width = 583;
}
);
unicode = 0038;
},
{
glyphname = nine;
layers = (
{
layerId = "D0000B7D-4744-4B9D-A6B4-49F65DE5F164";
paths = (
{
nodes = (
"40 112 LINE",
"120 0 LINE",
"478 0 LINE",
"503 35 LINE",
"503 665 LINE",
"478 700 LINE",
"65 700 LINE",
"40 665 LINE",
"40 345 LINE",
"65 310 LINE",
"348 310 LINE",
"348 155 LINE",
"205 155 LINE",
"160 215 LINE",
"40 215 LINE"
);
},
{
nodes = (
"323 445 LINE",
"220 445 LINE",
"195 480 LINE",
"195 510 LINE",
"220 545 LINE",
"323 545 LINE",
"348 510 LINE",
"348 480 LINE"
);
}
);
width = 543;
}
);
unicode = 0039;
},
{
glyphname = comma;
layers = (
{
guideLines = (
{
position = "{0, 19}";
}
);
layerId = "D0000B7D-4744-4B9D-A6B4-49F65DE5F164";
paths = (
{
nodes = (
"50 140 LINE",
"130 140 LINE",
"155 105 LINE",
"155 19 LINE",
"79 -96 LINE",
"-20 -96 LINE",
"-20 -80 LINE",
"50 19 LINE"
);
}
);
width = 195;
}
);
unicode = 002C;
},
{
glyphname = hyphen;
layers = (
{
guideLines = (
{
position = "{0, 344}";
}
);
layerId = "D0000B7D-4744-4B9D-A6B4-49F65DE5F164";
paths = (
{
nodes = (
"20 344 LINE",
"410 344 LINE",
"410 444 LINE",
"20 444 LINE"
);
}
);
width = 430;
}
);
unicode = 002D;
},
{
glyphname = underscore;
layers = (
{
layerId = "D0000B7D-4744-4B9D-A6B4-49F65DE5F164";
paths = (
{
nodes = (
"20 0 LINE",
"410 0 LINE",
"410 100 LINE",
"20 100 LINE"
);
}
);
width = 430;
}
);
unicode = 005F;
},
{
glyphname = asciicircum;
layers = (
{
guideLines = (
{
position = "{0, 380}";
}
);
layerId = "D0000B7D-4744-4B9D-A6B4-49F65DE5F164";
paths = (
{
nodes = (
"20 345 LINE",
"210 700 LINE",
"378 700 LINE",
"568 345 LINE",
"435 345 LINE",
"308 600 LINE",
"280 600 LINE",
"153 345 LINE"
);
}
);
width = 588;
}
);
unicode = 005E;
},
{
glyphname = slash;
layers = (
{
guideLines = (
{
position = "{0, -50}";
},
{
position = "{0, 750}";
}
);
layerId = "D0000B7D-4744-4B9D-A6B4-49F65DE5F164";
paths = (
{
nodes = (
"285 740 LINE",
"285 750 LINE",
"186 750 LINE",
"-25 -40 LINE",
"-25 -50 LINE",
"78 -50 LINE"
);
}
);
width = 260;
}
);
unicode = 002F;
},
{
glyphname = backslash;
layers = (
{
layerId = "D0000B7D-4744-4B9D-A6B4-49F65DE5F164";
paths = (
{
nodes = (
"-25 740 LINE",
"182 -50 LINE",
"285 -50 LINE",
"285 -40 LINE",
"74 750 LINE",
"-25 750 LINE"
);
}
);
width = 260;
}
);
unicode = 005C;
},
{
glyphname = period;
layers = (
{
layerId = "D0000B7D-4744-4B9D-A6B4-49F65DE5F164";
paths = (
{
nodes = (
"20 0 LINE",
"140 0 LINE",
"140 120 LINE",
"20 120 LINE"
);
}
);
width = 160;
}
);
unicode = 002E;
},
{
glyphname = colon;
layers = (
{
layerId = "D0000B7D-4744-4B9D-A6B4-49F65DE5F164";
paths = (
{
nodes = (
"20 380 LINE",
"140 380 LINE",
"140 500 LINE",
"20 500 LINE"
);
},
{
nodes = (
"20 0 LINE",
"140 0 LINE",
"140 120 LINE",
"20 120 LINE"
);
}
);
width = 160;
}
);
unicode = 003A;
},
{
glyphname = semicolon;
layers = (
{
layerId = "D0000B7D-4744-4B9D-A6B4-49F65DE5F164";
paths = (
{
nodes = (
"40 140 LINE",
"120 140 LINE",
"145 105 LINE",
"145 19 LINE",
"69 -96 LINE",
"-30 -96 LINE",
"-30 -80 LINE",
"40 19 LINE"
);
},
{
nodes = (
"25 380 LINE",
"145 380 LINE",
"145 500 LINE",
"25 500 LINE"
);
}
);
width = 165;
}
);
unicode = 003B;
},
{
glyphname = less;
layers = (
{
guideLines = (
{
position = "{0, 118}";
}
);
layerId = "D0000B7D-4744-4B9D-A6B4-49F65DE5F164";
paths = (
{
nodes = (
"375 118 LINE",
"20 308 LINE",
"20 476 LINE",
"375 666 LINE",
"375 533 LINE",
"120 406 LINE",
"120 378 LINE",
"375 251 LINE"
);
}
);
width = 395;
}
);
unicode = 003C;
},
{
glyphname = equal;
layers = (
{
layerId = "D0000B7D-4744-4B9D-A6B4-49F65DE5F164";
paths = (
{
nodes = (
"20 365 LINE",
"410 365 LINE",
"410 465 LINE",
"20 465 LINE"
);
},
{
nodes = (
"20 210 LINE",
"410 210 LINE",
"410 310 LINE",
"20 310 LINE"
);
}
);
width = 430;
}
);
unicode = 003D;
},
{
glyphname = greater;
layers = (
{
layerId = "D0000B7D-4744-4B9D-A6B4-49F65DE5F164";
paths = (
{
nodes = (
"20 118 LINE",
"20 251 LINE",
"275 378 LINE",
"275 406 LINE",
"20 533 LINE",
"20 666 LINE",
"375 476 LINE",
"375 308 LINE"
);
}
);
width = 395;
}
);
unicode = 003E;
},
{
glyphname = greaterequal;
layers = (
{
guideLines = (
{
angle = 90;
position = "{375, 0}";
}
);
layerId = "D0000B7D-4744-4B9D-A6B4-49F65DE5F164";
paths = (
{
nodes = (
"20 100 LINE",
"375 100 LINE",
"375 0 LINE",
"20 0 LINE"
);
},
{
nodes = (
"20 152 LINE",
"20 285 LINE",
"275 412 LINE",
"275 440 LINE",
"20 567 LINE",
"20 700 LINE",
"375 510 LINE",
"375 342 LINE"
);
}
);
width = 395;
}
);
unicode = 2265;
},
{
glyphname = lessequal;
layers = (
{
guideLines = (
{
angle = 90;
position = "{25, 0}";
},
{
angle = 90;
position = "{345, 0}";
}
);
layerId = "D0000B7D-4744-4B9D-A6B4-49F65DE5F164";
paths = (
{
nodes = (
"375 100 LINE",
"20 100 LINE",
"20 0 LINE",
"375 0 LINE"
);
},
{
nodes = (
"375 152 LINE",
"375 285 LINE",
"120 412 LINE",
"120 440 LINE",
"375 567 LINE",
"375 700 LINE",
"20 510 LINE",
"20 342 LINE"
);
}
);
width = 395;
}
);
unicode = 2264;
},
{
glyphname = exclam;
layers = (
{
guideLines = (
{
position = "{0, 175}";
},
{
position = "{0, 700}";
},
{
position = "{0, 665}";
showMeasurement = 1;
},
{
angle = 90;
position = "{88, 0}";
}
);
layerId = "D0000B7D-4744-4B9D-A6B4-49F65DE5F164";
paths = (
{
nodes = (
"55 175 LINE",
"121 175 LINE",
"156 665 LINE",
"131 700 LINE",
"45 700 LINE",
"20 665 LINE"
);
},
{
nodes = (
"28 0 LINE",
"148 0 LINE",
"148 120 LINE",
"28 120 LINE"
);
}
);
width = 176;
}
);
unicode = 0021;
},
{
glyphname = exclamdown;
layers = (
{
layerId = "D0000B7D-4744-4B9D-A6B4-49F65DE5F164";
paths = (
{
nodes = (
"55 525 LINE",
"121 525 LINE",
"156 35 LINE",
"131 0 LINE",
"45 0 LINE",
"20 35 LINE"
);
},
{
nodes = (
"28 700 LINE",
"148 700 LINE",
"148 580 LINE",
"28 580 LINE"
);
}
);
width = 176;
}
);
unicode = 00A1;
},
{
glyphname = question;
layers = (
{
guideLines = (
{
position = "{0, 342}";
},
{
angle = 90;
position = "{214, 0}";
},
{
angle = 90;
position = "{369, 0}";
}
);
layerId = "D0000B7D-4744-4B9D-A6B4-49F65DE5F164";
paths = (
{
nodes = (
"172 489 LINE",
"40 489 LINE",
"40 588 LINE",
"120 700 LINE",
"474 700 LINE",
"499 665 LINE",
"499 500 LINE",
"369 307 LINE",
"369 192 LINE",
"214 192 LINE",
"214 307 LINE",
"329 489 LINE",
"329 545 LINE",
"195 545 LINE"
);
},
{
nodes = (
"214 120 LINE",
"369 120 LINE",
"369 0 LINE",
"214 0 LINE"
);
}
);
width = 539;
}
);
unicode = 003F;
},
{
glyphname = questiondown;
layers = (
{
guideLines = (
{
angle = 90;
position = "{170, 0}";
}
);
layerId = "D0000B7D-4744-4B9D-A6B4-49F65DE5F164";
paths = (
{
nodes = (
"367 211 LINE",
"499 211 LINE",
"499 112 LINE",
"419 0 LINE",
"65 0 LINE",
"40 35 LINE",
"40 200 LINE",
"170 393 LINE",
"170 508 LINE",
"325 508 LINE",
"325 393 LINE",
"210 211 LINE",
"210 155 LINE",
"344 155 LINE"
);
},
{
nodes = (
"170 700 LINE",
"325 700 LINE",
"325 580 LINE",
"170 580 LINE"
);
}
);
width = 539;
}
);
unicode = 00BF;
},
{
glyphname = quotesingle;
layers = (
{
layerId = "D0000B7D-4744-4B9D-A6B4-49F65DE5F164";
paths = (
{
nodes = (
"30 440 LINE",
"93 440 LINE",
"118 700 LINE",
"5 700 LINE"
);
}
);
width = 123;
}
);
unicode = 0027;
},
{
glyphname = quotedbl;
layers = (
{
layerId = "D0000B7D-4744-4B9D-A6B4-49F65DE5F164";
paths = (
{
nodes = (
"30 440 LINE",
"93 440 LINE",
"118 700 LINE",
"5 700 LINE"
);
},
{
nodes = (
"167 440 LINE",
"230 440 LINE",
"255 700 LINE",
"142 700 LINE"
);
}
);
width = 260;
}
);
unicode = 0022;
},
{
glyphname = numbersign;
layers = (
{
guideLines = (
{
angle = 90;
position = "{614, 0}";
showMeasurement = 1;
},
{
angle = 90;
position = "{724, 0}";
},
{
angle = 90;
position = "{5, 0}";
},
{
angle = 90;
position = "{115, 0}";
}
);
layerId = "D0000B7D-4744-4B9D-A6B4-49F65DE5F164";
paths = (
{
nodes = (
"67 400 LINE",
"709 400 LINE",
"724 415 LINE",
"724 500 LINE",
"82 500 LINE",
"67 485 LINE"
);
},
{
nodes = (
"5 200 LINE",
"647 200 LINE",
"662 215 LINE",
"662 300 LINE",
"20 300 LINE",
"5 285 LINE"
);
},
{
nodes = (
"399 690 LINE",
"399 700 LINE",
"300 700 LINE",
"115 10 LINE",
"115 0 LINE",
"218 0 LINE"
);
},
{
nodes = (
"614 690 LINE",
"614 700 LINE",
"515 700 LINE",
"330 10 LINE",
"330 0 LINE",
"433 0 LINE"
);
}
);
width = 729;
}
);
unicode = 0023;
},
{
glyphname = at;
layers = (
{
guideLines = (
{
angle = 90;
position = "{949, 0}";
},
{
position = "{0, 109}";
},
{
angle = 90;
position = "{608, 0}";
},
{
angle = 90;
position = "{495, 0}";
},
{
angle = 90;
position = "{647, 0}";
},
{
position = "{0, -109}";
},
{
position = "{0, 540}";
},
{
position = "{0, 50}";
},
{
angle = 90;
position = "{201, 0}";
}
);
layerId = "D0000B7D-4744-4B9D-A6B4-49F65DE5F164";
paths = (
{
nodes = (
"574 159 LINE",
"647 159 LINE",
"647 591 LINE",
"149 591 LINE",
"149 0 LINE",
"470 0 LINE",
"495 -35 LINE",
"495 -109 LINE",
"65 -109 LINE",
"40 -74 LINE",
"40 665 LINE",
"65 700 LINE",
"731 700 LINE",
"756 665 LINE",
"756 85 LINE",
"731 50 LINE",
"596 50 LINE"
);
},
{
nodes = (
"202 50 LINE",
"295 515 LINE",
"313 540 LINE",
"488 540 LINE",
"505 515 LINE",
"598 50 LINE",
"490 50 LINE",
"469 174 LINE",
"451 149 LINE",
"349 149 LINE",
"332 174 LINE",
"310 50 LINE"
);
},
{
nodes = (
"341 250 LINE",
"359 226 LINE",
"441 226 LINE",
"458 250 LINE",
"430 432 LINE",
"369 432 LINE"
);
}
);
width = 796;
}
);
unicode = 0040;
},
{
glyphname = asterisk;
layers = (
{
guideLines = (
{
position = "{0, 620}";
},
{
position = "{0, 576}";
},
{
position = "{0, 321}";
},
{
position = "{0, 572}";
},
{
angle = 90;
position = "{179, 0}";
},
{
angle = 90;
position = "{50, 0}";
},
{
angle = 90;
position = "{79, 0}";
},
{
position = "{0, 511}";
},
{
position = "{0, 431}";
},
{
position = "{0, 656}";
},
{
position = "{0, 462}";
},
{
position = "{0, 714}";
},
{
position = "{0, 392}";
},
{
angle = 90;
position = "{70, 0}";
},
{
angle = 90;
position = "{328, 0}";
}
);
layerId = "D0000B7D-4744-4B9D-A6B4-49F65DE5F164";
paths = (
{
nodes = (
"249 348 LINE",
"249 700 LINE",
"149 700 LINE",
"149 348 LINE"
);
},
{
nodes = (
"377 479 LINE",
"70 656 LINE",
"20 570 LINE",
"327 392 LINE"
);
},
{
nodes = (
"21 479 LINE",
"71 392 LINE",
"378 570 LINE",
"328 656 LINE"
);
}
);
width = 398;
}
);
unicode = 002A;
},
{
glyphname = dollar;
layers = (
{
guideLines = (
{
position = "{0, 797}";
},
{
angle = 90;
position = "{221, 0}";
},
{
angle = 90;
position = "{80, 0}";
},
{
angle = 90;
position = "{321, 0}";
}
);
layerId = "D0000B7D-4744-4B9D-A6B4-49F65DE5F164";
paths = (
{
nodes = (
"502 588 LINE",
"422 700 LINE",
"65 700 LINE",
"40 665 LINE",
"40 480 LINE",
"358 155 LINE",
"193 155 LINE",
"168 190 LINE",
"40 190 LINE",
"40 112 LINE",
"120 0 LINE",
"477 0 LINE",
"502 35 LINE",
"502 220 LINE",
"187 545 LINE",
"352 545 LINE",
"377 510 LINE",
"502 510 LINE"
);
},
{
nodes = (
"221 700 LINE",
"321 700 LINE",
"321 797 LINE",
"221 797 LINE"
);
},
{
nodes = (
"221 -97 LINE",
"321 -97 LINE",
"321 0 LINE",
"221 0 LINE"
);
}
);
width = 542;
}
);
unicode = 0024;
},
{
glyphname = Euro;
layers = (
{
guideLines = (
{
angle = 90;
position = "{397, 0}";
},
{
angle = 90;
position = "{40, 0}";
}
);
layerId = "D0000B7D-4744-4B9D-A6B4-49F65DE5F164";
paths = (
{
nodes = (
"102 700 LINE",
"102 0 LINE",
"489 0 LINE",
"569 112 LINE",
"569 190 LINE",
"422 190 LINE",
"397 155 LINE",
"257 155 LINE",
"257 545 LINE",
"397 545 LINE",
"422 510 LINE",
"569 510 LINE",
"569 588 LINE",
"489 700 LINE"
);
},
{
nodes = (
"40 370 LINE",
"360 370 LINE",
"360 470 LINE",
"40 470 LINE"
);
},
{
nodes = (
"40 230 LINE",
"360 230 LINE",
"360 330 LINE",
"40 330 LINE"
);
}
);
width = 609;
}
);
unicode = 20AC;
},
{
glyphname = cent;
layers = (
{
guideLines = (
{
angle = 90;
position = "{207, 0}";
},
{
angle = 90;
position = "{307, 0}";
}
);
layerId = "D0000B7D-4744-4B9D-A6B4-49F65DE5F164";
paths = (
{
nodes = (
"40 700 LINE",
"40 0 LINE",
"427 0 LINE",
"507 112 LINE",
"507 190 LINE",
"360 190 LINE",
"335 155 LINE",
"195 155 LINE",
"195 545 LINE",
"335 545 LINE",
"360 510 LINE",
"507 510 LINE",
"507 588 LINE",
"427 700 LINE"
);
},
{
nodes = (
"207 689 LINE",
"307 689 LINE",
"307 797 LINE",
"207 797 LINE"
);
},
{
nodes = (
"207 -97 LINE",
"307 -97 LINE",
"307 21 LINE",
"207 21 LINE"
);
}
);
width = 547;
}
);
unicode = 00A2;
},
{
glyphname = dong;
layers = (
{
guideLines = (
{
angle = 90;
position = "{32, 0}";
},
{
angle = 90;
position = "{432, 0}";
},
{
position = "{0, 140}";
}
);
layerId = "D0000B7D-4744-4B9D-A6B4-49F65DE5F164";
paths = (
{
nodes = (
"32 700 LINE",
"32 458 LINE",
"-16 458 LINE",
"-16 376 LINE",
"32 376 LINE",
"32 140 LINE",
"376 140 LINE",
"432 212 LINE",
"432 628 LINE",
"376 700 LINE"
);
},
{
nodes = (
"156 570 LINE",
"288 570 LINE",
"308 542 LINE",
"308 292 LINE",
"288 264 LINE",
"156 264 LINE",
"156 376 LINE",
"224 376 LINE",
"224 458 LINE",
"156 458 LINE"
);
},
{
nodes = (
"32 0 LINE",
"432 0 LINE",
"432 100 LINE",
"32 100 LINE"
);
}
);
width = 472;
}
);
unicode = 20AB;
},
{
glyphname = dcroat_uni1ED3_n_g;
layers = (
{
guideLines = (
{
angle = 90;
position = "{1886, 0}";
}
);
layerId = "D0000B7D-4744-4B9D-A6B4-49F65DE5F164";
paths = (
{
nodes = (
"88 700 LINE",
"88 458 LINE",
"40 458 LINE",
"40 376 LINE",
"88 376 LINE",
"88 140 LINE",
"424 140 LINE",
"488 230 LINE",
"488 610 LINE",
"424 700 LINE"
);
},
{
nodes = (
"212 576 LINE",
"344 576 LINE",
"364 548 LINE",
"364 292 LINE",
"344 264 LINE",
"212 264 LINE",
"212 376 LINE",
"280 376 LINE",
"280 458 LINE",
"212 458 LINE"
);
},
{
nodes = (
"552 230 LINE",
"616 140 LINE",
"920 140 LINE",
"984 230 LINE",
"984 610 LINE",
"920 700 LINE",
"616 700 LINE",
"552 610 LINE"
);
},
{
nodes = (
"696 576 LINE",
"840 576 LINE",
"860 548 LINE",
"860 292 LINE",
"840 264 LINE",
"696 264 LINE",
"676 292 LINE",
"676 548 LINE"
);
},
{
nodes = (
"633 945 LINE",
"681 945 LINE",
"920 896 LINE",
"920 860 LINE",
"681 878 LINE",
"633 893 LINE"
);
},
{
nodes = (
"663 730 LINE",
"707 768 LINE",
"830 768 LINE",
"874 730 LINE",
"932 730 LINE",
"932 770 LINE",
"869 830 LINE",
"668 830 LINE",
"605 770 LINE",
"605 730 LINE"
);
},
{
nodes = (
"1318 700 LINE",
"1318 420 LINE",
"1298 420 LINE",
"1172 700 LINE",
"1112 700 LINE",
"1048 610 LINE",
"1048 140 LINE",
"1172 140 LINE",
"1172 420 LINE",
"1192 420 LINE",
"1318 140 LINE",
"1378 140 LINE",
"1442 230 LINE",
"1442 700 LINE"
);
},
{
nodes = (
"1785 140 LINE",
"1805 168 LINE",
"1825 140 LINE",
"1886 140 LINE",
"1886 460 LINE",
"1692 460 LINE",
"1692 336 LINE",
"1762 336 LINE",
"1762 264 LINE",
"1630 264 LINE",
"1630 576 LINE",
"1762 576 LINE",
"1782 548 LINE",
"1886 548 LINE",
"1886 610 LINE",
"1822 700 LINE",
"1506 700 LINE",
"1506 140 LINE"
);
},
{
nodes = (
"88 0 LINE",
"1886 0 LINE",
"1886 100 LINE",
"88 100 LINE"
);
}
);
width = 1926;
}
);
},
{
glyphname = n_g_agrave_n;
layers = (
{
guideLines = (
{
angle = 90;
position = "{878, 0}";
}
);
layerId = "D0000B7D-4744-4B9D-A6B4-49F65DE5F164";
paths = (
{
nodes = (
"310 700 LINE",
"310 420 LINE",
"290 420 LINE",
"164 700 LINE",
"104 700 LINE",
"40 610 LINE",
"40 140 LINE",
"164 140 LINE",
"164 420 LINE",
"184 420 LINE",
"310 140 LINE",
"370 140 LINE",
"434 230 LINE",
"434 700 LINE"
);
},
{
nodes = (
"777 140 LINE",
"797 168 LINE",
"817 140 LINE",
"878 140 LINE",
"878 460 LINE",
"684 460 LINE",
"684 336 LINE",
"754 336 LINE",
"754 264 LINE",
"622 264 LINE",
"622 576 LINE",
"754 576 LINE",
"774 548 LINE",
"878 548 LINE",
"878 610 LINE",
"814 700 LINE",
"498 700 LINE",
"498 140 LINE"
);
},
{
nodes = (
"996 815 LINE",
"1044 815 LINE",
"1284 766 LINE",
"1284 730 LINE",
"1044 748 LINE",
"996 763 LINE"
);
},
{
nodes = (
"1042 140 LINE",
"1066 282 LINE",
"1086 254 LINE",
"1203 254 LINE",
"1223 282 LINE",
"1247 140 LINE",
"1371 140 LINE",
"1264 672 LINE",
"1244 700 LINE",
"1044 700 LINE",
"1024 672 LINE",
"918 140 LINE"
);
},
{
nodes = (
"1109 576 LINE",
"1179 576 LINE",
"1211 369 LINE",
"1191 341 LINE",
"1097 341 LINE",
"1077 369 LINE"
);
},
{
nodes = (
"1680 700 LINE",
"1680 420 LINE",
"1660 420 LINE",
"1534 700 LINE",
"1474 700 LINE",
"1410 610 LINE",
"1410 140 LINE",
"1534 140 LINE",
"1534 420 LINE",
"1554 420 LINE",
"1680 140 LINE",
"1740 140 LINE",
"1804 230 LINE",
"1804 700 LINE"
);
},
{
nodes = (
"40 0 LINE",
"1804 0 LINE",
"1804 100 LINE",
"40 100 LINE"
);
}
);
width = 1844;
}
);
},
{
glyphname = c_h_u_y_ecircumflex_n;
layers = (
{
guideLines = (
{
angle = 90;
position = "{1809, 0}";
}
);
layerId = "D0000B7D-4744-4B9D-A6B4-49F65DE5F164";
paths = (
{
nodes = (
"40 700 LINE",
"40 140 LINE",
"350 140 LINE",
"414 230 LINE",
"414 292 LINE",
"296 292 LINE",
"276 264 LINE",
"164 264 LINE",
"164 576 LINE",
"276 576 LINE",
"296 548 LINE",
"414 548 LINE",
"414 610 LINE",
"350 700 LINE"
);
},
{
nodes = (
"602 140 LINE",
"602 340 LINE",
"622 368 LINE",
"734 368 LINE",
"754 340 LINE",
"754 140 LINE",
"878 140 LINE",
"878 700 LINE",
"754 700 LINE",
"754 520 LINE",
"734 492 LINE",
"622 492 LINE",
"602 520 LINE",
"602 700 LINE",
"478 700 LINE",
"478 140 LINE"
);
},
{
nodes = (
"942 230 LINE",
"1006 140 LINE",
"1304 140 LINE",
"1368 230 LINE",
"1368 700 LINE",
"1244 700 LINE",
"1244 292 LINE",
"1224 264 LINE",
"1086 264 LINE",
"1066 292 LINE",
"1066 700 LINE",
"942 700 LINE"
);
},
{
nodes = (
"1527 361 LINE",
"1527 140 LINE",
"1651 140 LINE",
"1651 361 LINE",
"1773 638 LINE",
"1773 700 LINE",
"1661 700 LINE",
"1589 490 LINE",
"1516 700 LINE",
"1404 700 LINE",
"1404 638 LINE"
);
},
{
nodes = (
"1867 730 LINE",
"1911 768 LINE",
"2034 768 LINE",
"2078 730 LINE",
"2136 730 LINE",
"2136 770 LINE",
"2073 830 LINE",
"1872 830 LINE",
"1809 770 LINE",
"1809 730 LINE"
);
},
{
nodes = (
"2116 140 LINE",
"2180 230 LINE",
"2180 292 LINE",
"2083 292 LINE",
"2063 264 LINE",
"1933 264 LINE",
"1933 372 LINE",
"2083 372 LINE",
"2083 468 LINE",
"1933 468 LINE",
"1933 576 LINE",
"2063 576 LINE",
"2083 548 LINE",
"2180 548 LINE",
"2180 610 LINE",
"2116 700 LINE",
"1809 700 LINE",
"1809 140 LINE"
);
},
{
nodes = (
"2514 700 LINE",
"2514 420 LINE",
"2494 420 LINE",
"2368 700 LINE",
"2308 700 LINE",
"2244 610 LINE",
"2244 140 LINE",
"2368 140 LINE",
"2368 420 LINE",
"2388 420 LINE",
"2514 140 LINE",
"2574 140 LINE",
"2638 230 LINE",
"2638 700 LINE"
);
},
{
nodes = (
"40 0 LINE",
"2638 0 LINE",
"2638 100 LINE",
"40 100 LINE"
);
}
);
width = 2678;
}
);
},
{
glyphname = c_uni1EED_a_space_h_agrave_n_g;
layers = (
{
guideLines = (
{
angle = 90;
position = "{3399, 0}";
}
);
layerId = "D0000B7D-4744-4B9D-A6B4-49F65DE5F164";
paths = (
{
nodes = (
"40 700 LINE",
"40 140 LINE",
"350 140 LINE",
"414 230 LINE",
"414 292 LINE",
"296 292 LINE",
"276 264 LINE",
"164 264 LINE",
"164 576 LINE",
"276 576 LINE",
"296 548 LINE",
"414 548 LINE",
"414 610 LINE",
"350 700 LINE"
);
},
{
nodes = (
"478 230 LINE",
"542 140 LINE",
"840 140 LINE",
"904 230 LINE",
"904 610 LINE",
"841 700 LINE",
"780 700 LINE",
"780 292 LINE",
"760 264 LINE",
"622 264 LINE",
"602 292 LINE",
"602 700 LINE",
"478 700 LINE"
);
},
{
nodes = (
"884 638 LINE",
"940 682 LINE",
"940 726 LINE",
"920 754 LINE",
"869 754 LINE",
"869 713 LINE",
"840 700 LINE"
);
},
{
nodes = (
"662 794 LINE",
"673 812 LINE",
"707 812 LINE",
"710 806 LINE",
"680 774 LINE",
"680 730 LINE",
"728 730 LINE",
"728 759 LINE",
"775 824 LINE",
"747 860 LINE",
"642 860 LINE",
"618 824 LINE",
"618 794 LINE"
);
},
{
nodes = (
"1068 140 LINE",
"1092 282 LINE",
"1112 254 LINE",
"1229 254 LINE",
"1249 282 LINE",
"1273 140 LINE",
"1397 140 LINE",
"1290 672 LINE",
"1270 700 LINE",
"1070 700 LINE",
"1050 672 LINE",
"944 140 LINE"
);
},
{
nodes = (
"1135 576 LINE",
"1205 576 LINE",
"1237 369 LINE",
"1217 341 LINE",
"1123 341 LINE",
"1103 369 LINE"
);
},
{
nodes = (
"1753 140 LINE",
"1753 340 LINE",
"1773 368 LINE",
"1885 368 LINE",
"1905 340 LINE",
"1905 140 LINE",
"2029 140 LINE",
"2029 700 LINE",
"1905 700 LINE",
"1905 520 LINE",
"1885 492 LINE",
"1773 492 LINE",
"1753 520 LINE",
"1753 700 LINE",
"1629 700 LINE",
"1629 140 LINE"
);
},
{
nodes = (
"2147 815 LINE",
"2195 815 LINE",
"2435 766 LINE",
"2435 730 LINE",
"2195 748 LINE",
"2147 763 LINE"
);
},
{
nodes = (
"2193 140 LINE",
"2217 282 LINE",
"2237 254 LINE",
"2354 254 LINE",
"2374 282 LINE",
"2398 140 LINE",
"2522 140 LINE",
"2415 672 LINE",
"2395 700 LINE",
"2195 700 LINE",
"2175 672 LINE",
"2069 140 LINE"
);
},
{
nodes = (
"2260 576 LINE",
"2330 576 LINE",
"2362 369 LINE",
"2342 341 LINE",
"2248 341 LINE",
"2228 369 LINE"
);
},
{
nodes = (
"2832 700 LINE",
"2832 420 LINE",
"2812 420 LINE",
"2686 700 LINE",
"2626 700 LINE",
"2562 610 LINE",
"2562 140 LINE",
"2686 140 LINE",
"2686 420 LINE",
"2706 420 LINE",
"2832 140 LINE",
"2892 140 LINE",
"2956 230 LINE",
"2956 700 LINE"
);
},
{
nodes = (
"3298 140 LINE",
"3318 168 LINE",
"3338 140 LINE",
"3399 140 LINE",
"3399 460 LINE",
"3205 460 LINE",
"3205 336 LINE",
"3275 336 LINE",
"3275 264 LINE",
"3143 264 LINE",
"3143 576 LINE",
"3275 576 LINE",
"3295 548 LINE",
"3399 548 LINE",
"3399 610 LINE",
"3335 700 LINE",
"3019 700 LINE",
"3019 140 LINE"
);
},
{
nodes = (
"40 0 LINE",
"3399 0 LINE",
"3399 80 LINE",
"40 80 LINE"
);
}
);
width = 3439;
}
);
},
{
glyphname = c_h_agrave_space_b_aacute;
layers = (
{
layerId = "D0000B7D-4744-4B9D-A6B4-49F65DE5F164";
paths = (
{
nodes = (
"40 700 LINE",
"40 140 LINE",
"350 140 LINE",
"414 230 LINE",
"414 292 LINE",
"296 292 LINE",
"276 264 LINE",
"164 264 LINE",
"164 576 LINE",
"276 576 LINE",
"296 548 LINE",
"414 548 LINE",
"414 610 LINE",
"350 700 LINE"
);
},
{
nodes = (
"602 140 LINE",
"602 340 LINE",
"622 368 LINE",
"734 368 LINE",
"754 340 LINE",
"754 140 LINE",
"878 140 LINE",
"878 700 LINE",
"754 700 LINE",
"754 520 LINE",
"734 492 LINE",
"622 492 LINE",
"602 520 LINE",
"602 700 LINE",
"478 700 LINE",
"478 140 LINE"
);
},
{
nodes = (
"996 815 LINE",
"1044 815 LINE",
"1284 766 LINE",
"1284 730 LINE",
"1044 748 LINE",
"996 763 LINE"
);
},
{
nodes = (
"1042 140 LINE",
"1066 282 LINE",
"1086 254 LINE",
"1203 254 LINE",
"1223 282 LINE",
"1247 140 LINE",
"1371 140 LINE",
"1264 672 LINE",
"1244 700 LINE",
"1044 700 LINE",
"1024 672 LINE",
"918 140 LINE"
);
},
{
nodes = (
"1109 576 LINE",
"1179 576 LINE",
"1211 369 LINE",
"1191 341 LINE",
"1097 341 LINE",
"1077 369 LINE"
);
},
{
nodes = (
"1938 140 LINE",
"2002 230 LINE",
"2002 389 LINE",
"1956 426 LINE",
"2002 464 LINE",
"2002 610 LINE",
"1938 700 LINE",
"1602 700 LINE",
"1602 140 LINE"
);
},
{
nodes = (
"1858 592 LINE",
"1878 564 LINE",
"1878 502 LINE",
"1858 474 LINE",
"1837 474 OFFCURVE",
"1760 474 OFFCURVE",
"1726 474 CURVE",
"1726 592 LINE"
);
},
{
nodes = (
"1858 366 LINE",
"1878 338 LINE",
"1878 276 LINE",
"1858 248 LINE",
"1837 248 OFFCURVE",
"1760 248 OFFCURVE",
"1726 248 CURVE",
"1726 366 LINE"
);
},
{
nodes = (
"2168 798 LINE",
"2408 815 LINE",
"2408 779 LINE",
"2168 730 LINE",
"2120 730 LINE",
"2120 782 LINE"
);
},
{
nodes = (
"2166 140 LINE",
"2190 282 LINE",
"2210 254 LINE",
"2327 254 LINE",
"2347 282 LINE",
"2371 140 LINE",
"2495 140 LINE",
"2388 672 LINE",
"2368 700 LINE",
"2168 700 LINE",
"2148 672 LINE",
"2042 140 LINE"
);
},
{
nodes = (
"2233 576 LINE",
"2303 576 LINE",
"2335 369 LINE",
"2315 341 LINE",
"2221 341 LINE",
"2201 369 LINE"
);
},
{
nodes = (
"40 0 LINE",
"2495 0 LINE",
"2495 100 LINE",
"40 100 LINE"
);
}
);
width = 2535;
}
);
},
{
glyphname = t_uni1EDB_i_space_n_aacute_i;
layers = (
{
guideLines = (
{
angle = 90;
position = "{621, 0}";
},
{
angle = 90;
position = "{40, 0}";
}
);
layerId = "D0000B7D-4744-4B9D-A6B4-49F65DE5F164";
paths = (
{
nodes = (
"40 540 LINE",
"40 610 LINE",
"104 700 LINE",
"401 700 LINE",
"465 610 LINE",
"465 540 LINE",
"394 540 LINE",
"314 600 LINE",
"314 140 LINE",
"190 140 LINE",
"190 600 LINE",
"110 540 LINE"
);
},
{
nodes = (
"573 782 LINE",
"573 730 LINE",
"621 730 LINE",
"860 779 LINE",
"860 815 LINE",
"621 798 LINE"
);
},
{
nodes = (
"497 610 LINE",
"561 700 LINE",
"866 700 LINE",
"929 610 LINE",
"929 230 LINE",
"865 140 LINE",
"561 140 LINE",
"497 230 LINE"
);
},
{
nodes = (
"621 548 LINE",
"621 292 LINE",
"641 264 LINE",
"785 264 LINE",
"805 292 LINE",
"805 548 LINE",
"785 576 LINE",
"641 576 LINE"
);
},
{
nodes = (
"865 700 LINE",
"894 713 LINE",
"894 754 LINE",
"944 754 LINE",
"964 726 LINE",
"964 682 LINE",
"909 638 LINE"
);
},
{
nodes = (
"993 700 LINE",
"1117 700 LINE",
"1117 140 LINE",
"993 140 LINE"
);
},
{
nodes = (
"1767 700 LINE",
"1767 230 LINE",
"1703 140 LINE",
"1643 140 LINE",
"1517 420 LINE",
"1497 420 LINE",
"1497 140 LINE",
"1373 140 LINE",
"1373 610 LINE",
"1437 700 LINE",
"1497 700 LINE",
"1623 420 LINE",
"1643 420 LINE",
"1643 700 LINE"
);
},
{
nodes = (
"1884 782 LINE",
"1884 730 LINE",
"1932 730 LINE",
"2172 779 LINE",
"2172 815 LINE",
"1932 798 LINE"
);
},
{
nodes = (
"1806 140 LINE",
"1912 672 LINE",
"1932 700 LINE",
"2132 700 LINE",
"2152 672 LINE",
"2259 140 LINE",
"2135 140 LINE",
"2111 282 LINE",
"2091 254 LINE",
"1974 254 LINE",
"1954 282 LINE",
"1930 140 LINE"
);
},
{
nodes = (
"1965 369 LINE",
"1985 341 LINE",
"2079 341 LINE",
"2099 369 LINE",
"2067 576 LINE",
"1997 576 LINE"
);
},
{
nodes = (
"2299 700 LINE",
"2423 700 LINE",
"2423 140 LINE",
"2299 140 LINE"
);
},
{
nodes = (
"40 100 LINE",
"2423 100 LINE",
"2423 0 LINE",
"40 0 LINE"
);
}
);
width = 2463;
}
);
},
{
glyphname = d_z_ocircumflex;
layers = (
{
guideLines = (
{
angle = 90;
position = "{894, 0}";
},
{
angle = 90;
position = "{504, 0}";
}
);
layerId = "D0000B7D-4744-4B9D-A6B4-49F65DE5F164";
paths = (
{
nodes = (
"40 700 LINE",
"40 140 LINE",
"376 140 LINE",
"440 230 LINE",
"440 610 LINE",
"376 700 LINE"
);
},
{
nodes = (
"164 576 LINE",
"296 576 LINE",
"316 548 LINE",
"316 292 LINE",
"296 264 LINE",
"164 264 LINE"
);
},
{
nodes = (
"40 0 LINE",
"1390 0 LINE",
"1390 100 LINE",
"40 100 LINE"
);
},
{
nodes = (
"524 576 LINE",
"716 576 LINE",
"504 230 LINE",
"568 140 LINE",
"894 140 LINE",
"894 236 LINE",
"874 264 LINE",
"682 264 LINE",
"894 610 LINE",
"830 700 LINE",
"504 700 LINE",
"504 604 LINE"
);
},
{
nodes = (
"958 230 LINE",
"1022 140 LINE",
"1326 140 LINE",
"1390 230 LINE",
"1390 610 LINE",
"1326 700 LINE",
"1022 700 LINE",
"958 610 LINE"
);
},
{
nodes = (
"1102 576 LINE",
"1246 576 LINE",
"1266 548 LINE",
"1266 292 LINE",
"1246 264 LINE",
"1102 264 LINE",
"1082 292 LINE",
"1082 548 LINE"
);
},
{
nodes = (
"1069 730 LINE",
"1113 768 LINE",
"1236 768 LINE",
"1280 730 LINE",
"1338 730 LINE",
"1338 770 LINE",
"1275 830 LINE",
"1074 830 LINE",
"1011 770 LINE",
"1011 730 LINE"
);
}
);
width = 1430;
}
);
},
{
glyphname = b_aacute_space_c_h_aacute_y;
layers = (
{
guideLines = (
{
angle = 90;
position = "{2876, 0}";
}
);
layerId = "D0000B7D-4744-4B9D-A6B4-49F65DE5F164";
paths = (
{
nodes = (
"40 140 LINE",
"40 700 LINE",
"376 700 LINE",
"440 610 LINE",
"440 464 LINE",
"394 426 LINE",
"440 389 LINE",
"440 230 LINE",
"376 140 LINE"
);
},
{
nodes = (
"164 592 LINE",
"164 474 LINE",
"198 474 OFFCURVE",
"275 474 OFFCURVE",
"296 474 CURVE",
"316 502 LINE",
"316 564 LINE",
"296 592 LINE"
);
},
{
nodes = (
"164 366 LINE",
"164 248 LINE",
"198 248 OFFCURVE",
"275 248 OFFCURVE",
"296 248 CURVE",
"316 276 LINE",
"316 338 LINE",
"296 366 LINE"
);
},
{
nodes = (
"40 0 LINE",
"2876 0 LINE",
"2876 100 LINE",
"40 100 LINE"
);
},
{
nodes = (
"606 798 LINE",
"846 815 LINE",
"846 779 LINE",
"606 730 LINE",
"558 730 LINE",
"558 782 LINE"
);
},
{
nodes = (
"604 140 LINE",
"628 282 LINE",
"648 254 LINE",
"765 254 LINE",
"785 282 LINE",
"809 140 LINE",
"933 140 LINE",
"826 672 LINE",
"806 700 LINE",
"606 700 LINE",
"586 672 LINE",
"480 140 LINE"
);
},
{
nodes = (
"671 576 LINE",
"741 576 LINE",
"773 369 LINE",
"753 341 LINE",
"659 341 LINE",
"639 369 LINE"
);
},
{
nodes = (
"1165 700 LINE",
"1165 140 LINE",
"1475 140 LINE",
"1539 230 LINE",
"1539 292 LINE",
"1421 292 LINE",
"1401 264 LINE",
"1289 264 LINE",
"1289 576 LINE",
"1401 576 LINE",
"1421 548 LINE",
"1539 548 LINE",
"1539 610 LINE",
"1475 700 LINE"
);
},
{
nodes = (
"1726 140 LINE",
"1726 340 LINE",
"1746 368 LINE",
"1858 368 LINE",
"1878 340 LINE",
"1878 140 LINE",
"2002 140 LINE",
"2002 700 LINE",
"1878 700 LINE",
"1878 520 LINE",
"1858 492 LINE",
"1746 492 LINE",
"1726 520 LINE",
"1726 700 LINE",
"1602 700 LINE",
"1602 140 LINE"
);
},
{
nodes = (
"2168 798 LINE",
"2408 815 LINE",
"2408 779 LINE",
"2168 730 LINE",
"2120 730 LINE",
"2120 782 LINE"
);
},
{
nodes = (
"2166 140 LINE",
"2190 282 LINE",
"2210 254 LINE",
"2327 254 LINE",
"2347 282 LINE",
"2371 140 LINE",
"2495 140 LINE",
"2388 672 LINE",
"2368 700 LINE",
"2168 700 LINE",
"2148 672 LINE",
"2042 140 LINE"
);
},
{
nodes = (
"2233 576 LINE",
"2303 576 LINE",
"2335 369 LINE",
"2315 341 LINE",
"2221 341 LINE",
"2201 369 LINE"
);
},
{
nodes = (
"2630 361 LINE",
"2630 140 LINE",
"2754 140 LINE",
"2754 361 LINE",
"2876 638 LINE",
"2876 700 LINE",
"2764 700 LINE",
"2692 490 LINE",
"2619 700 LINE",
"2507 700 LINE",
"2507 638 LINE"
);
}
);
width = 2916;
}
);
},
{
glyphname = m_uni1EA7_n;
layers = (
{
guideLines = (
{
angle = 90;
position = "{219, 0}";
},
{
angle = 90;
position = "{478, 0}";
},
{
angle = 90;
position = "{24, 0}";
},
{
angle = 90;
position = "{418, 0}";
},
{
angle = 90;
position = "{423, 0}";
},
{
angle = 90;
position = "{698, 0}";
}
);
layerId = "D0000B7D-4744-4B9D-A6B4-49F65DE5F164";
paths = (
{
nodes = (
"40 140 LINE",
"164 140 LINE",
"164 520 LINE",
"184 520 LINE",
"218 299 LINE",
"238 271 LINE",
"334 271 LINE",
"354 299 LINE",
"388 520 LINE",
"408 520 LINE",
"408 140 LINE",
"532 140 LINE",
"532 610 LINE",
"468 700 LINE",
"334 700 LINE",
"288 395 LINE",
"284 395 LINE",
"238 700 LINE",
"104 700 LINE",
"40 610 LINE"
);
},
{
nodes = (
"40 0 LINE",
"1459 0 LINE",
"1459 100 LINE",
"40 100 LINE"
);
},
{
nodes = (
"650 945 LINE",
"698 945 LINE",
"938 896 LINE",
"938 860 LINE",
"698 878 LINE",
"650 893 LINE"
);
},
{
nodes = (
"630 770 LINE",
"694 830 LINE",
"894 830 LINE",
"958 770 LINE",
"958 730 LINE",
"899 730 LINE",
"855 768 LINE",
"733 768 LINE",
"689 730 LINE",
"630 730 LINE"
);
},
{
nodes = (
"696 140 LINE",
"720 282 LINE",
"740 254 LINE",
"857 254 LINE",
"877 282 LINE",
"901 140 LINE",
"1025 140 LINE",
"918 672 LINE",
"898 700 LINE",
"698 700 LINE",
"678 672 LINE",
"572 140 LINE"
);
},
{
nodes = (
"763 576 LINE",
"833 576 LINE",
"865 369 LINE",
"845 341 LINE",
"751 341 LINE",
"731 369 LINE"
);
},
{
nodes = (
"1335 700 LINE",
"1335 420 LINE",
"1315 420 LINE",
"1189 700 LINE",
"1129 700 LINE",
"1065 610 LINE",
"1065 140 LINE",
"1189 140 LINE",
"1189 420 LINE",
"1209 420 LINE",
"1335 140 LINE",
"1395 140 LINE",
"1459 230 LINE",
"1459 700 LINE"
);
}
);
width = 1499;
}
);
},
{
glyphname = m_i_uni1EC1_n_space_t_acircumflex_y;
layers = (
{
guideLines = (
{
angle = 90;
position = "{219, 0}";
},
{
angle = 90;
position = "{478, 0}";
},
{
angle = 90;
position = "{24, 0}";
},
{
angle = 90;
position = "{418, 0}";
},
{
angle = 90;
position = "{423, 0}";
},
{
angle = 90;
position = "{784, 0}";
}
);
layerId = "D0000B7D-4744-4B9D-A6B4-49F65DE5F164";
paths = (
{
nodes = (
"40 140 LINE",
"164 140 LINE",
"164 520 LINE",
"184 520 LINE",
"218 299 LINE",
"238 271 LINE",
"334 271 LINE",
"354 299 LINE",
"388 520 LINE",
"408 520 LINE",
"408 140 LINE",
"532 140 LINE",
"532 610 LINE",
"468 700 LINE",
"334 700 LINE",
"288 395 LINE",
"284 395 LINE",
"238 700 LINE",
"104 700 LINE",
"40 610 LINE"
);
},
{
nodes = (
"596 140 LINE",
"720 140 LINE",
"720 700 LINE",
"596 700 LINE"
);
},
{
nodes = (
"820 945 LINE",
"868 945 LINE",
"1107 896 LINE",
"1107 860 LINE",
"868 878 LINE",
"820 893 LINE"
);
},
{
nodes = (
"842 730 LINE",
"886 768 LINE",
"1009 768 LINE",
"1053 730 LINE",
"1111 730 LINE",
"1111 770 LINE",
"1048 830 LINE",
"847 830 LINE",
"784 770 LINE",
"784 730 LINE"
);
},
{
nodes = (
"1091 140 LINE",
"1155 230 LINE",
"1155 292 LINE",
"1058 292 LINE",
"1038 264 LINE",
"908 264 LINE",
"908 372 LINE",
"1058 372 LINE",
"1058 468 LINE",
"908 468 LINE",
"908 576 LINE",
"1038 576 LINE",
"1058 548 LINE",
"1155 548 LINE",
"1155 610 LINE",
"1091 700 LINE",
"784 700 LINE",
"784 140 LINE"
);
},
{
nodes = (
"1489 700 LINE",
"1489 420 LINE",
"1469 420 LINE",
"1343 700 LINE",
"1283 700 LINE",
"1219 610 LINE",
"1219 140 LINE",
"1343 140 LINE",
"1343 420 LINE",
"1363 420 LINE",
"1489 140 LINE",
"1549 140 LINE",
"1613 230 LINE",
"1613 700 LINE"
);
},
{
nodes = (
"1907 540 LINE",
"1987 600 LINE",
"1987 140 LINE",
"2111 140 LINE",
"2111 600 LINE",
"2191 540 LINE",
"2262 540 LINE",
"2262 610 LINE",
"2198 700 LINE",
"1901 700 LINE",
"1837 610 LINE",
"1837 540 LINE"
);
},
{
nodes = (
"2328 770 LINE",
"2392 830 LINE",
"2592 830 LINE",
"2656 770 LINE",
"2656 730 LINE",
"2597 730 LINE",
"2553 768 LINE",
"2431 768 LINE",
"2387 730 LINE",
"2328 730 LINE"
);
},
{
nodes = (
"2394 140 LINE",
"2418 282 LINE",
"2438 254 LINE",
"2555 254 LINE",
"2575 282 LINE",
"2599 140 LINE",
"2723 140 LINE",
"2616 672 LINE",
"2596 700 LINE",
"2396 700 LINE",
"2376 672 LINE",
"2270 140 LINE"
);
},
{
nodes = (
"2461 576 LINE",
"2531 576 LINE",
"2563 369 LINE",
"2543 341 LINE",
"2449 341 LINE",
"2429 369 LINE"
);
},
{
nodes = (
"2857 361 LINE",
"2857 140 LINE",
"2981 140 LINE",
"2981 361 LINE",
"3103 638 LINE",
"3103 700 LINE",
"2991 700 LINE",
"2919 490 LINE",
"2846 700 LINE",
"2734 700 LINE",
"2734 638 LINE"
);
},
{
nodes = (
"40 0 LINE",
"3103 0 LINE",
"3103 100 LINE",
"40 100 LINE"
);
}
);
width = 3143;
}
);
},
{
glyphname = c_agrave_space_r_aacute;
layers = (
{
layerId = "D0000B7D-4744-4B9D-A6B4-49F65DE5F164";
paths = (
{
nodes = (
"40 700 LINE",
"40 140 LINE",
"350 140 LINE",
"414 230 LINE",
"414 292 LINE",
"296 292 LINE",
"276 264 LINE",
"164 264 LINE",
"164 576 LINE",
"276 576 LINE",
"296 548 LINE",
"414 548 LINE",
"414 610 LINE",
"350 700 LINE"
);
},
{
nodes = (
"40 0 LINE",
"2000 0 LINE",
"2000 100 LINE",
"40 100 LINE"
);
},
{
nodes = (
"532 815 LINE",
"580 815 LINE",
"820 766 LINE",
"820 730 LINE",
"580 748 LINE",
"532 763 LINE"
);
},
{
nodes = (
"578 140 LINE",
"602 282 LINE",
"622 254 LINE",
"739 254 LINE",
"759 282 LINE",
"783 140 LINE",
"907 140 LINE",
"800 672 LINE",
"780 700 LINE",
"580 700 LINE",
"560 672 LINE",
"454 140 LINE"
);
},
{
nodes = (
"645 576 LINE",
"715 576 LINE",
"747 369 LINE",
"727 341 LINE",
"633 341 LINE",
"613 369 LINE"
);
},
{
nodes = (
"1262 140 LINE",
"1262 351 LINE",
"1324 351 LINE",
"1399 140 LINE",
"1523 140 LINE",
"1523 202 LINE",
"1443 385 LINE",
"1507 474 LINE",
"1507 610 LINE",
"1443 700 LINE",
"1138 700 LINE",
"1138 140 LINE"
);
},
{
nodes = (
"1363 576 LINE",
"1383 548 LINE",
"1383 503 LINE",
"1363 475 LINE",
"1262 475 LINE",
"1262 576 LINE"
);
},
{
nodes = (
"1673 798 LINE",
"1913 815 LINE",
"1913 779 LINE",
"1673 730 LINE",
"1625 730 LINE",
"1625 782 LINE"
);
},
{
nodes = (
"1671 140 LINE",
"1695 282 LINE",
"1715 254 LINE",
"1832 254 LINE",
"1852 282 LINE",
"1876 140 LINE",
"2000 140 LINE",
"1893 672 LINE",
"1873 700 LINE",
"1673 700 LINE",
"1653 672 LINE",
"1547 140 LINE"
);
},
{
nodes = (
"1738 576 LINE",
"1808 576 LINE",
"1840 369 LINE",
"1820 341 LINE",
"1726 341 LINE",
"1706 369 LINE"
);
}
);
width = 2040;
}
);
},
{
glyphname = h_uni1ED5_m_space_r_agrave_y;
layers = (
{
guideLines = (
{
angle = 90;
position = "{1179, 0}";
},
{
angle = 90;
position = "{1438, 0}";
},
{
angle = 90;
position = "{984, 0}";
},
{
angle = 90;
position = "{1378, 0}";
},
{
angle = 90;
position = "{1383, 0}";
}
);
layerId = "D0000B7D-4744-4B9D-A6B4-49F65DE5F164";
paths = (
{
nodes = (
"40 140 LINE",
"40 700 LINE",
"164 700 LINE",
"164 520 LINE",
"184 492 LINE",
"296 492 LINE",
"316 520 LINE",
"316 700 LINE",
"440 700 LINE",
"440 140 LINE",
"316 140 LINE",
"316 340 LINE",
"296 368 LINE",
"184 368 LINE",
"164 340 LINE",
"164 140 LINE"
);
},
{
nodes = (
"504 610 LINE",
"568 700 LINE",
"872 700 LINE",
"936 610 LINE",
"936 230 LINE",
"872 140 LINE",
"568 140 LINE",
"504 230 LINE"
);
},
{
nodes = (
"628 548 LINE",
"628 292 LINE",
"648 264 LINE",
"792 264 LINE",
"812 292 LINE",
"812 548 LINE",
"792 576 LINE",
"648 576 LINE"
);
},
{
nodes = (
"650 923 LINE",
"650 954 LINE",
"674 990 LINE",
"779 990 LINE",
"807 954 LINE",
"760 889 LINE",
"760 860 LINE",
"712 860 LINE",
"712 903 LINE",
"742 936 LINE",
"739 942 LINE",
"706 942 LINE",
"694 923 LINE"
);
},
{
nodes = (
"557 730 LINE",
"557 770 LINE",
"620 830 LINE",
"821 830 LINE",
"884 770 LINE",
"884 730 LINE",
"826 730 LINE",
"782 768 LINE",
"659 768 LINE",
"615 730 LINE"
);
},
{
nodes = (
"1000 610 LINE",
"1064 700 LINE",
"1198 700 LINE",
"1244 395 LINE",
"1248 395 LINE",
"1294 700 LINE",
"1428 700 LINE",
"1492 610 LINE",
"1492 140 LINE",
"1368 140 LINE",
"1368 520 LINE",
"1348 520 LINE",
"1314 299 LINE",
"1294 271 LINE",
"1198 271 LINE",
"1178 299 LINE",
"1144 520 LINE",
"1124 520 LINE",
"1124 140 LINE",
"1000 140 LINE"
);
},
{
nodes = (
"1748 140 LINE",
"1748 700 LINE",
"2053 700 LINE",
"2117 610 LINE",
"2117 474 LINE",
"2053 385 LINE",
"2133 202 LINE",
"2133 140 LINE",
"2009 140 LINE",
"1934 351 LINE",
"1872 351 LINE",
"1872 140 LINE"
);
},
{
nodes = (
"1872 576 LINE",
"1872 475 LINE",
"1973 475 LINE",
"1993 503 LINE",
"1993 548 LINE",
"1973 576 LINE"
);
},
{
nodes = (
"2235 763 LINE",
"2283 748 LINE",
"2523 730 LINE",
"2523 766 LINE",
"2283 815 LINE",
"2235 815 LINE"
);
},
{
nodes = (
"2157 140 LINE",
"2263 672 LINE",
"2283 700 LINE",
"2483 700 LINE",
"2503 672 LINE",
"2610 140 LINE",
"2486 140 LINE",
"2462 282 LINE",
"2442 254 LINE",
"2325 254 LINE",
"2305 282 LINE",
"2281 140 LINE"
);
},
{
nodes = (
"2316 369 LINE",
"2336 341 LINE",
"2430 341 LINE",
"2450 369 LINE",
"2418 576 LINE",
"2348 576 LINE"
);
},
{
nodes = (
"2622 638 LINE",
"2622 700 LINE",
"2734 700 LINE",
"2807 490 LINE",
"2879 700 LINE",
"2991 700 LINE",
"2991 638 LINE",
"2869 361 LINE",
"2869 140 LINE",
"2745 140 LINE",
"2745 361 LINE"
);
},
{
nodes = (
"40 100 LINE",
"2991 100 LINE",
"2991 0 LINE",
"40 0 LINE"
);
}
);
width = 3031;
}
);
},
{
glyphname = h_u_uni1ED1_c;
layers = (
{
layerId = "D0000B7D-4744-4B9D-A6B4-49F65DE5F164";
paths = (
{
nodes = (
"40 140 LINE",
"40 700 LINE",
"164 700 LINE",
"164 520 LINE",
"184 492 LINE",
"296 492 LINE",
"316 520 LINE",
"316 700 LINE",
"440 700 LINE",
"440 140 LINE",
"316 140 LINE",
"316 340 LINE",
"296 368 LINE",
"184 368 LINE",
"164 340 LINE",
"164 140 LINE"
);
},
{
nodes = (
"40 0 LINE",
"1864 0 LINE",
"1864 100 LINE",
"40 100 LINE"
);
},
{
nodes = (
"504 230 LINE",
"568 140 LINE",
"866 140 LINE",
"930 230 LINE",
"930 700 LINE",
"806 700 LINE",
"806 292 LINE",
"786 264 LINE",
"648 264 LINE",
"628 292 LINE",
"628 700 LINE",
"504 700 LINE"
);
},
{
nodes = (
"994 230 LINE",
"1058 140 LINE",
"1362 140 LINE",
"1426 230 LINE",
"1426 610 LINE",
"1362 700 LINE",
"1058 700 LINE",
"994 610 LINE"
);
},
{
nodes = (
"1138 576 LINE",
"1282 576 LINE",
"1302 548 LINE",
"1302 292 LINE",
"1282 264 LINE",
"1138 264 LINE",
"1118 292 LINE",
"1118 548 LINE"
);
},
{
nodes = (
"1123 927 LINE",
"1362 945 LINE",
"1362 909 LINE",
"1123 860 LINE",
"1075 860 LINE",
"1075 912 LINE"
);
},
{
nodes = (
"1105 730 LINE",
"1149 768 LINE",
"1272 768 LINE",
"1316 730 LINE",
"1374 730 LINE",
"1374 770 LINE",
"1311 830 LINE",
"1110 830 LINE",
"1047 770 LINE",
"1047 730 LINE"
);
},
{
nodes = (
"1490 700 LINE",
"1490 140 LINE",
"1800 140 LINE",
"1864 230 LINE",
"1864 292 LINE",
"1746 292 LINE",
"1726 264 LINE",
"1614 264 LINE",
"1614 576 LINE",
"1726 576 LINE",
"1746 548 LINE",
"1864 548 LINE",
"1864 610 LINE",
"1800 700 LINE"
);
}
);
width = 1904;
}
);
},
{
glyphname = q_u_uni1EA5_t;
layers = (
{
guideLines = (
{
angle = 90;
position = "{1157, 0}";
}
);
layerId = "D0000B7D-4744-4B9D-A6B4-49F65DE5F164";
paths = (
{
nodes = (
"40 610 LINE",
"104 700 LINE",
"408 700 LINE",
"472 610 LINE",
"472 230 LINE",
"408 140 LINE",
"104 140 LINE",
"40 230 LINE"
);
},
{
nodes = (
"164 548 LINE",
"164 292 LINE",
"184 264 LINE",
"328 264 LINE",
"348 292 LINE",
"348 548 LINE",
"328 576 LINE",
"184 576 LINE"
);
},
{
nodes = (
"472 282 LINE",
"524 256 LINE",
"524 194 LINE",
"473 130 LINE",
"422 159 LINE",
"472 230 LINE"
);
},
{
nodes = (
"40 0 LINE",
"1916 0 LINE",
"1916 100 LINE",
"40 100 LINE"
);
},
{
nodes = (
"564 230 LINE",
"628 140 LINE",
"926 140 LINE",
"990 230 LINE",
"990 700 LINE",
"866 700 LINE",
"866 292 LINE",
"846 264 LINE",
"708 264 LINE",
"688 292 LINE",
"688 700 LINE",
"564 700 LINE"
);
},
{
nodes = (
"1156 927 LINE",
"1396 945 LINE",
"1396 909 LINE",
"1156 860 LINE",
"1108 860 LINE",
"1108 912 LINE"
);
},
{
nodes = (
"1088 770 LINE",
"1152 830 LINE",
"1352 830 LINE",
"1416 770 LINE",
"1416 730 LINE",
"1357 730 LINE",
"1313 768 LINE",
"1191 768 LINE",
"1147 730 LINE",
"1088 730 LINE"
);
},
{
nodes = (
"1154 140 LINE",
"1178 282 LINE",
"1198 254 LINE",
"1315 254 LINE",
"1335 282 LINE",
"1359 140 LINE",
"1483 140 LINE",
"1376 672 LINE",
"1356 700 LINE",
"1156 700 LINE",
"1136 672 LINE",
"1030 140 LINE"
);
},
{
nodes = (
"1221 576 LINE",
"1291 576 LINE",
"1323 369 LINE",
"1303 341 LINE",
"1209 341 LINE",
"1189 369 LINE"
);
},
{
nodes = (
"1561 540 LINE",
"1641 600 LINE",
"1641 140 LINE",
"1765 140 LINE",
"1765 600 LINE",
"1845 540 LINE",
"1916 540 LINE",
"1916 610 LINE",
"1852 700 LINE",
"1555 700 LINE",
"1491 610 LINE",
"1491 540 LINE"
);
}
);
width = 1956;
}
);
},
{
glyphname = ecircumflex_m_space_r_u;
layers = (
{
guideLines = (
{
angle = 90;
position = "{40, 0}";
},
{
angle = 90;
position = "{654, 0}";
},
{
angle = 90;
position = "{913, 0}";
},
{
angle = 90;
position = "{459, 0}";
},
{
angle = 90;
position = "{853, 0}";
},
{
angle = 90;
position = "{858, 0}";
}
);
layerId = "D0000B7D-4744-4B9D-A6B4-49F65DE5F164";
paths = (
{
nodes = (
"40 730 LINE",
"40 770 LINE",
"103 830 LINE",
"304 830 LINE",
"367 770 LINE",
"367 730 LINE",
"309 730 LINE",
"265 768 LINE",
"142 768 LINE",
"98 730 LINE"
);
},
{
nodes = (
"40 140 LINE",
"40 700 LINE",
"347 700 LINE",
"411 610 LINE",
"411 548 LINE",
"314 548 LINE",
"294 576 LINE",
"164 576 LINE",
"164 468 LINE",
"314 468 LINE",
"314 372 LINE",
"164 372 LINE",
"164 264 LINE",
"294 264 LINE",
"314 292 LINE",
"411 292 LINE",
"411 230 LINE",
"347 140 LINE"
);
},
{
nodes = (
"475 610 LINE",
"539 700 LINE",
"673 700 LINE",
"719 395 LINE",
"723 395 LINE",
"769 700 LINE",
"903 700 LINE",
"967 610 LINE",
"967 140 LINE",
"843 140 LINE",
"843 520 LINE",
"823 520 LINE",
"789 299 LINE",
"769 271 LINE",
"673 271 LINE",
"653 299 LINE",
"619 520 LINE",
"599 520 LINE",
"599 140 LINE",
"475 140 LINE"
);
},
{
nodes = (
"1223 140 LINE",
"1223 700 LINE",
"1528 700 LINE",
"1592 610 LINE",
"1592 474 LINE",
"1528 385 LINE",
"1608 202 LINE",
"1608 140 LINE",
"1484 140 LINE",
"1409 351 LINE",
"1347 351 LINE",
"1347 140 LINE"
);
},
{
nodes = (
"1347 576 LINE",
"1347 475 LINE",
"1448 475 LINE",
"1468 503 LINE",
"1468 548 LINE",
"1448 576 LINE"
);
},
{
nodes = (
"1656 700 LINE",
"1780 700 LINE",
"1780 292 LINE",
"1800 264 LINE",
"1938 264 LINE",
"1958 292 LINE",
"1958 700 LINE",
"2082 700 LINE",
"2082 230 LINE",
"2018 140 LINE",
"1720 140 LINE",
"1656 230 LINE"
);
},
{
nodes = (
"40 100 LINE",
"2082 100 LINE",
"2082 0 LINE",
"40 0 LINE"
);
}
);
width = 2122;
}
);
},
{
glyphname = c_agrave_space_r_uni1EE1_n;
layers = (
{
guideLines = (
{
angle = 90;
position = "{1808, 0}";
}
);
layerId = "D0000B7D-4744-4B9D-A6B4-49F65DE5F164";
paths = (
{
nodes = (
"40 700 LINE",
"40 140 LINE",
"350 140 LINE",
"414 230 LINE",
"414 292 LINE",
"296 292 LINE",
"276 264 LINE",
"164 264 LINE",
"164 576 LINE",
"276 576 LINE",
"296 548 LINE",
"414 548 LINE",
"414 610 LINE",
"350 700 LINE"
);
},
{
nodes = (
"40 0 LINE",
"2461 0 LINE",
"2461 100 LINE",
"40 100 LINE"
);
},
{
nodes = (
"532 815 LINE",
"580 815 LINE",
"820 766 LINE",
"820 730 LINE",
"580 748 LINE",
"532 763 LINE"
);
},
{
nodes = (
"578 140 LINE",
"602 282 LINE",
"622 254 LINE",
"739 254 LINE",
"759 282 LINE",
"783 140 LINE",
"907 140 LINE",
"800 672 LINE",
"780 700 LINE",
"580 700 LINE",
"560 672 LINE",
"454 140 LINE"
);
},
{
nodes = (
"645 576 LINE",
"715 576 LINE",
"747 369 LINE",
"727 341 LINE",
"633 341 LINE",
"613 369 LINE"
);
},
{
nodes = (
"1262 140 LINE",
"1262 351 LINE",
"1324 351 LINE",
"1399 140 LINE",
"1523 140 LINE",
"1523 202 LINE",
"1443 385 LINE",
"1507 474 LINE",
"1507 610 LINE",
"1443 700 LINE",
"1138 700 LINE",
"1138 140 LINE"
);
},
{
nodes = (
"1363 576 LINE",
"1383 548 LINE",
"1383 503 LINE",
"1363 475 LINE",
"1262 475 LINE",
"1262 576 LINE"
);
},
{
nodes = (
"1732 814 LINE",
"1877 764 LINE",
"1951 796 LINE",
"1951 852 LINE",
"1931 852 LINE",
"1877 825 LINE",
"1732 875 LINE",
"1624 820 LINE",
"1624 764 LINE",
"1652 764 LINE"
);
},
{
nodes = (
"1571 230 LINE",
"1635 140 LINE",
"1939 140 LINE",
"2003 230 LINE",
"2003 610 LINE",
"1940 700 LINE",
"1635 700 LINE",
"1571 610 LINE"
);
},
{
nodes = (
"1715 576 LINE",
"1859 576 LINE",
"1879 548 LINE",
"1879 292 LINE",
"1859 264 LINE",
"1715 264 LINE",
"1695 292 LINE",
"1695 548 LINE"
);
},
{
nodes = (
"1983 638 LINE",
"2038 682 LINE",
"2038 726 LINE",
"2018 754 LINE",
"1968 754 LINE",
"1968 713 LINE",
"1939 700 LINE"
);
},
{
nodes = (
"2337 700 LINE",
"2337 420 LINE",
"2317 420 LINE",
"2191 700 LINE",
"2131 700 LINE",
"2067 610 LINE",
"2067 140 LINE",
"2191 140 LINE",
"2191 420 LINE",
"2211 420 LINE",
"2337 140 LINE",
"2397 140 LINE",
"2461 230 LINE",
"2461 700 LINE"
);
}
);
width = 2501;
}
);
},
{
glyphname = x_u_uni1ED3_n_g_space_b_a_space_l_aacute;
layers = (
{
guideLines = (
{
angle = 90;
position = "{2356, 0}";
}
);
layerId = "D0000B7D-4744-4B9D-A6B4-49F65DE5F164";
paths = (
{
nodes = (
"40 638 LINE",
"40 700 LINE",
"160 700 LINE",
"252 476 LINE",
"348 700 LINE",
"468 700 LINE",
"468 638 LINE",
"368 438 LINE",
"468 202 LINE",
"468 140 LINE",
"348 140 LINE",
"252 364 LINE",
"160 140 LINE",
"40 140 LINE",
"40 202 LINE",
"140 438 LINE"
);
},
{
nodes = (
"532 700 LINE",
"656 700 LINE",
"656 292 LINE",
"676 264 LINE",
"814 264 LINE",
"834 292 LINE",
"834 700 LINE",
"958 700 LINE",
"958 230 LINE",
"894 140 LINE",
"596 140 LINE",
"532 230 LINE"
);
},
{
nodes = (
"1022 610 LINE",
"1086 700 LINE",
"1390 700 LINE",
"1454 610 LINE",
"1454 230 LINE",
"1390 140 LINE",
"1086 140 LINE",
"1022 230 LINE"
);
},
{
nodes = (
"1146 548 LINE",
"1146 292 LINE",
"1166 264 LINE",
"1310 264 LINE",
"1330 292 LINE",
"1330 548 LINE",
"1310 576 LINE",
"1166 576 LINE"
);
},
{
nodes = (
"1103 893 LINE",
"1151 878 LINE",
"1390 860 LINE",
"1390 896 LINE",
"1151 945 LINE",
"1103 945 LINE"
);
},
{
nodes = (
"1075 730 LINE",
"1075 770 LINE",
"1138 830 LINE",
"1339 830 LINE",
"1402 770 LINE",
"1402 730 LINE",
"1344 730 LINE",
"1300 768 LINE",
"1177 768 LINE",
"1133 730 LINE"
);
},
{
nodes = (
"1912 700 LINE",
"1912 230 LINE",
"1848 140 LINE",
"1788 140 LINE",
"1662 420 LINE",
"1642 420 LINE",
"1642 140 LINE",
"1518 140 LINE",
"1518 610 LINE",
"1582 700 LINE",
"1642 700 LINE",
"1768 420 LINE",
"1788 420 LINE",
"1788 700 LINE"
);
},
{
nodes = (
"1976 140 LINE",
"1976 700 LINE",
"2292 700 LINE",
"2356 610 LINE",
"2356 548 LINE",
"2252 548 LINE",
"2232 576 LINE",
"2100 576 LINE",
"2100 264 LINE",
"2232 264 LINE",
"2232 336 LINE",
"2162 336 LINE",
"2162 460 LINE",
"2356 460 LINE",
"2356 140 LINE",
"2295 140 LINE",
"2275 168 LINE",
"2255 140 LINE"
);
},
{
nodes = (
"2612 140 LINE",
"2612 700 LINE",
"2948 700 LINE",
"3012 610 LINE",
"3012 464 LINE",
"2966 426 LINE",
"3012 389 LINE",
"3012 230 LINE",
"2948 140 LINE"
);
},
{
nodes = (
"2736 592 LINE",
"2736 474 LINE",
"2770 474 OFFCURVE",
"2847 474 OFFCURVE",
"2868 474 CURVE",
"2888 502 LINE",
"2888 564 LINE",
"2868 592 LINE"
);
},
{
nodes = (
"2736 366 LINE",
"2736 248 LINE",
"2770 248 OFFCURVE",
"2847 248 OFFCURVE",
"2868 248 CURVE",
"2888 276 LINE",
"2888 338 LINE",
"2868 366 LINE"
);
},
{
nodes = (
"3052 140 LINE",
"3158 672 LINE",
"3178 700 LINE",
"3378 700 LINE",
"3398 672 LINE",
"3505 140 LINE",
"3381 140 LINE",
"3357 282 LINE",
"3337 254 LINE",
"3220 254 LINE",
"3200 282 LINE",
"3176 140 LINE"
);
},
{
nodes = (
"3211 369 LINE",
"3231 341 LINE",
"3325 341 LINE",
"3345 369 LINE",
"3313 576 LINE",
"3243 576 LINE"
);
},
{
nodes = (
"3737 140 LINE",
"3737 700 LINE",
"3861 700 LINE",
"3861 292 LINE",
"3881 264 LINE",
"4037 264 LINE",
"4037 230 LINE",
"3973 140 LINE"
);
},
{
nodes = (
"4123 782 LINE",
"4123 730 LINE",
"4171 730 LINE",
"4411 779 LINE",
"4411 815 LINE",
"4171 798 LINE"
);
},
{
nodes = (
"4045 140 LINE",
"4151 672 LINE",
"4171 700 LINE",
"4371 700 LINE",
"4391 672 LINE",
"4498 140 LINE",
"4374 140 LINE",
"4350 282 LINE",
"4330 254 LINE",
"4213 254 LINE",
"4193 282 LINE",
"4169 140 LINE"
);
},
{
nodes = (
"4204 369 LINE",
"4224 341 LINE",
"4318 341 LINE",
"4338 369 LINE",
"4306 576 LINE",
"4236 576 LINE"
);
},
{
nodes = (
"40 100 LINE",
"4498 100 LINE",
"4498 0 LINE",
"40 0 LINE"
);
}
);
width = 4538;
}
);
},
{
glyphname = s_ocircumflex_n_g_space_n_uhorn_uni1EDB_c;
layers = (
{
guideLines = (
{
angle = 90;
position = "{3136, 0}";
},
{
angle = 90;
position = "{1807, 0}";
}
);
layerId = "D0000B7D-4744-4B9D-A6B4-49F65DE5F164";
paths = (
{
nodes = (
"410 610 LINE",
"346 700 LINE",
"60 700 LINE",
"40 672 LINE",
"40 524 LINE",
"294 264 LINE",
"162 264 LINE",
"142 292 LINE",
"40 292 LINE",
"40 230 LINE",
"104 140 LINE",
"390 140 LINE",
"410 168 LINE",
"410 316 LINE",
"158 576 LINE",
"290 576 LINE",
"310 548 LINE",
"410 548 LINE"
);
},
{
nodes = (
"474 230 LINE",
"538 140 LINE",
"842 140 LINE",
"906 230 LINE",
"906 610 LINE",
"842 700 LINE",
"538 700 LINE",
"474 610 LINE"
);
},
{
nodes = (
"618 576 LINE",
"762 576 LINE",
"782 548 LINE",
"782 292 LINE",
"762 264 LINE",
"618 264 LINE",
"598 292 LINE",
"598 548 LINE"
);
},
{
nodes = (
"585 730 LINE",
"629 768 LINE",
"752 768 LINE",
"796 730 LINE",
"854 730 LINE",
"854 770 LINE",
"791 830 LINE",
"590 830 LINE",
"527 770 LINE",
"527 730 LINE"
);
},
{
nodes = (
"1240 700 LINE",
"1240 420 LINE",
"1220 420 LINE",
"1094 700 LINE",
"1034 700 LINE",
"970 610 LINE",
"970 140 LINE",
"1094 140 LINE",
"1094 420 LINE",
"1114 420 LINE",
"1240 140 LINE",
"1300 140 LINE",
"1364 230 LINE",
"1364 700 LINE"
);
},
{
nodes = (
"1706 140 LINE",
"1726 168 LINE",
"1746 140 LINE",
"1807 140 LINE",
"1807 460 LINE",
"1613 460 LINE",
"1613 336 LINE",
"1683 336 LINE",
"1683 264 LINE",
"1551 264 LINE",
"1551 576 LINE",
"1683 576 LINE",
"1703 548 LINE",
"1807 548 LINE",
"1807 610 LINE",
"1743 700 LINE",
"1427 700 LINE",
"1427 140 LINE"
);
},
{
nodes = (
"2333 700 LINE",
"2333 420 LINE",
"2313 420 LINE",
"2187 700 LINE",
"2127 700 LINE",
"2063 610 LINE",
"2063 140 LINE",
"2187 140 LINE",
"2187 420 LINE",
"2207 420 LINE",
"2333 140 LINE",
"2393 140 LINE",
"2457 230 LINE",
"2457 700 LINE"
);
},
{
nodes = (
"2521 230 LINE",
"2585 140 LINE",
"2883 140 LINE",
"2947 230 LINE",
"2947 610 LINE",
"2884 700 LINE",
"2823 700 LINE",
"2823 292 LINE",
"2803 264 LINE",
"2665 264 LINE",
"2645 292 LINE",
"2645 700 LINE",
"2521 700 LINE"
);
},
{
nodes = (
"2927 638 LINE",
"2983 682 LINE",
"2983 726 LINE",
"2963 754 LINE",
"2912 754 LINE",
"2912 713 LINE",
"2883 700 LINE"
);
},
{
nodes = (
"3135 798 LINE",
"3374 815 LINE",
"3374 779 LINE",
"3135 730 LINE",
"3087 730 LINE",
"3087 782 LINE"
);
},
{
nodes = (
"3011 230 LINE",
"3075 140 LINE",
"3379 140 LINE",
"3443 230 LINE",
"3443 610 LINE",
"3380 700 LINE",
"3075 700 LINE",
"3011 610 LINE"
);
},
{
nodes = (
"3155 576 LINE",
"3299 576 LINE",
"3319 548 LINE",
"3319 292 LINE",
"3299 264 LINE",
"3155 264 LINE",
"3135 292 LINE",
"3135 548 LINE"
);
},
{
nodes = (
"3423 638 LINE",
"3478 682 LINE",
"3478 726 LINE",
"3458 754 LINE",
"3408 754 LINE",
"3408 713 LINE",
"3379 700 LINE"
);
},
{
nodes = (
"3507 700 LINE",
"3507 140 LINE",
"3817 140 LINE",
"3881 230 LINE",
"3881 292 LINE",
"3763 292 LINE",
"3743 264 LINE",
"3631 264 LINE",
"3631 576 LINE",
"3743 576 LINE",
"3763 548 LINE",
"3881 548 LINE",
"3881 610 LINE",
"3817 700 LINE"
);
},
{
nodes = (
"40 0 LINE",
"3881 0 LINE",
"3881 100 LINE",
"40 100 LINE"
);
}
);
width = 3921;
}
);
},
{
glyphname = uni1EDF_space_dcroat_acircumflex_y_space_c_oacute;
layers = (
{
guideLines = (
{
angle = 90;
position = "{277, 0}";
}
);
layerId = "D0000B7D-4744-4B9D-A6B4-49F65DE5F164";
paths = (
{
nodes = (
"186 794 LINE",
"186 824 LINE",
"210 860 LINE",
"315 860 LINE",
"343 824 LINE",
"296 759 LINE",
"296 730 LINE",
"248 730 LINE",
"248 774 LINE",
"278 806 LINE",
"275 812 LINE",
"242 812 LINE",
"230 794 LINE"
);
},
{
nodes = (
"40 610 LINE",
"104 700 LINE",
"409 700 LINE",
"472 610 LINE",
"472 230 LINE",
"408 140 LINE",
"104 140 LINE",
"40 230 LINE"
);
},
{
nodes = (
"164 548 LINE",
"164 292 LINE",
"184 264 LINE",
"328 264 LINE",
"348 292 LINE",
"348 548 LINE",
"328 576 LINE",
"184 576 LINE"
);
},
{
nodes = (
"408 700 LINE",
"437 713 LINE",
"437 754 LINE",
"487 754 LINE",
"507 726 LINE",
"507 682 LINE",
"452 638 LINE"
);
},
{
nodes = (
"1064 700 LINE",
"1128 610 LINE",
"1128 230 LINE",
"1064 140 LINE",
"728 140 LINE",
"728 376 LINE",
"680 376 LINE",
"680 458 LINE",
"728 458 LINE",
"728 700 LINE"
);
},
{
nodes = (
"852 458 LINE",
"920 458 LINE",
"920 376 LINE",
"852 376 LINE",
"852 264 LINE",
"984 264 LINE",
"1004 292 LINE",
"1004 548 LINE",
"984 576 LINE",
"852 576 LINE"
);
},
{
nodes = (
"1226 730 LINE",
"1285 730 LINE",
"1329 768 LINE",
"1451 768 LINE",
"1495 730 LINE",
"1554 730 LINE",
"1554 770 LINE",
"1490 830 LINE",
"1290 830 LINE",
"1226 770 LINE"
);
},
{
nodes = (
"1168 140 LINE",
"1274 672 LINE",
"1294 700 LINE",
"1494 700 LINE",
"1514 672 LINE",
"1621 140 LINE",
"1497 140 LINE",
"1473 282 LINE",
"1453 254 LINE",
"1336 254 LINE",
"1316 282 LINE",
"1292 140 LINE"
);
},
{
nodes = (
"1327 369 LINE",
"1347 341 LINE",
"1441 341 LINE",
"1461 369 LINE",
"1429 576 LINE",
"1359 576 LINE"
);
},
{
nodes = (
"1633 638 LINE",
"1633 700 LINE",
"1745 700 LINE",
"1818 490 LINE",
"1890 700 LINE",
"2002 700 LINE",
"2002 638 LINE",
"1880 361 LINE",
"1880 140 LINE",
"1756 140 LINE",
"1756 361 LINE"
);
},
{
nodes = (
"2540 700 LINE",
"2604 610 LINE",
"2604 548 LINE",
"2486 548 LINE",
"2466 576 LINE",
"2354 576 LINE",
"2354 264 LINE",
"2466 264 LINE",
"2486 292 LINE",
"2604 292 LINE",
"2604 230 LINE",
"2540 140 LINE",
"2230 140 LINE",
"2230 700 LINE"
);
},
{
nodes = (
"2667 610 LINE",
"2731 700 LINE",
"3035 700 LINE",
"3099 610 LINE",
"3099 230 LINE",
"3035 140 LINE",
"2731 140 LINE",
"2667 230 LINE"
);
},
{
nodes = (
"2791 548 LINE",
"2791 292 LINE",
"2811 264 LINE",
"2955 264 LINE",
"2975 292 LINE",
"2975 548 LINE",
"2955 576 LINE",
"2811 576 LINE"
);
},
{
nodes = (
"2732 782 LINE",
"2732 730 LINE",
"2780 730 LINE",
"3019 779 LINE",
"3019 815 LINE",
"2780 798 LINE"
);
},
{
nodes = (
"40 100 LINE",
"3099 100 LINE",
"3099 0 LINE",
"40 0 LINE"
);
}
);
width = 3139;
}
);
},
{
glyphname = dcroat_oacute_n_g_space_c_uni1EED_a;
layers = (
{
guideLines = (
{
angle = 90;
position = "{1468, 0}";
}
);
layerId = "D0000B7D-4744-4B9D-A6B4-49F65DE5F164";
paths = (
{
nodes = (
"2093 570 LINE",
"2126 570 LINE",
"2134 584 LINE",
"2160 584 LINE",
"2162 580 LINE",
"2139 555 LINE",
"2139 523 LINE",
"2175 523 LINE",
"2175 544 LINE",
"2211 593 LINE",
"2190 620 LINE",
"2111 620 LINE",
"2093 593 LINE"
);
},
{
nodes = (
"517 562 LINE",
"517 523 LINE",
"553 523 LINE",
"732 559 LINE",
"732 586 LINE",
"553 573 LINE"
);
},
{
nodes = (
"2260 500 LINE",
"2293 454 LINE",
"2334 487 LINE",
"2334 519 LINE",
"2319 540 LINE",
"2281 540 LINE",
"2281 510 LINE"
);
},
{
nodes = (
"120 500 LINE",
"120 318 LINE",
"84 318 LINE",
"84 257 LINE",
"120 257 LINE",
"120 80 LINE",
"372 80 LINE",
"420 147 LINE",
"420 433 LINE",
"372 500 LINE"
);
},
{
nodes = (
"468 433 LINE",
"468 147 LINE",
"516 80 LINE",
"744 80 LINE",
"792 147 LINE",
"792 433 LINE",
"744 500 LINE",
"516 500 LINE"
);
},
{
nodes = (
"1042 500 LINE",
"1042 290 LINE",
"1027 290 LINE",
"933 500 LINE",
"888 500 LINE",
"840 433 LINE",
"840 80 LINE",
"933 80 LINE",
"933 290 LINE",
"948 290 LINE",
"1042 80 LINE",
"1087 80 LINE",
"1135 147 LINE",
"1135 500 LINE"
);
},
{
nodes = (
"1183 80 LINE",
"1392 80 LINE",
"1407 101 LINE",
"1422 80 LINE",
"1468 80 LINE",
"1468 320 LINE",
"1322 320 LINE",
"1322 227 LINE",
"1375 227 LINE",
"1375 173 LINE",
"1276 173 LINE",
"1276 407 LINE",
"1375 407 LINE",
"1390 386 LINE",
"1468 386 LINE",
"1468 433 LINE",
"1420 500 LINE",
"1183 500 LINE"
);
},
{
nodes = (
"1660 500 LINE",
"1660 80 LINE",
"1892 80 LINE",
"1940 147 LINE",
"1940 194 LINE",
"1852 194 LINE",
"1837 173 LINE",
"1753 173 LINE",
"1753 407 LINE",
"1837 407 LINE",
"1852 386 LINE",
"1940 386 LINE",
"1940 433 LINE",
"1892 500 LINE"
);
},
{
nodes = (
"1988 500 LINE",
"1988 147 LINE",
"2036 80 LINE",
"2260 80 LINE",
"2308 147 LINE",
"2308 433 LINE",
"2260 500 LINE",
"2215 500 LINE",
"2215 194 LINE",
"2200 173 LINE",
"2096 173 LINE",
"2081 194 LINE",
"2081 500 LINE"
);
},
{
nodes = (
"2338 80 LINE",
"2431 80 LINE",
"2449 186 LINE",
"2464 165 LINE",
"2552 165 LINE",
"2567 186 LINE",
"2585 80 LINE",
"2678 80 LINE",
"2598 479 LINE",
"2583 500 LINE",
"2433 500 LINE",
"2418 479 LINE"
);
},
{
nodes = (
"213 407 LINE",
"312 407 LINE",
"327 386 LINE",
"327 194 LINE",
"312 173 LINE",
"213 173 LINE",
"213 257 LINE",
"264 257 LINE",
"264 318 LINE",
"213 318 LINE"
);
},
{
nodes = (
"561 386 LINE",
"576 407 LINE",
"684 407 LINE",
"699 386 LINE",
"699 194 LINE",
"684 173 LINE",
"576 173 LINE",
"561 194 LINE"
);
},
{
nodes = (
"2457 252 LINE",
"2481 407 LINE",
"2534 407 LINE",
"2558 252 LINE",
"2543 231 LINE",
"2472 231 LINE"
);
},
{
nodes = (
"40 700 LINE",
"2758 700 LINE",
"2758 0 LINE",
"40 0 LINE"
);
}
);
width = 2798;
}
);
},
{
glyphname = m_uni1EDF_space_c_uni1EED_a;
layers = (
{
guideLines = (
{
angle = 90;
position = "{254, 0}";
},
{
angle = 90;
position = "{448, 0}";
},
{
angle = 90;
position = "{108, 0}";
},
{
angle = 90;
position = "{406, 0}";
},
{
angle = 90;
position = "{407, 0}";
},
{
angle = 90;
position = "{715, 0}";
},
{
angle = 90;
position = "{2071, 0}";
}
);
layerId = "D0000B7D-4744-4B9D-A6B4-49F65DE5F164";
paths = (
{
nodes = (
"40 0 LINE",
"40 700 LINE",
"2151 700 LINE",
"2151 0 LINE"
);
},
{
nodes = (
"120 80 LINE",
"213 80 LINE",
"213 365 LINE",
"228 365 LINE",
"253 199 LINE",
"268 178 LINE",
"341 178 LINE",
"356 199 LINE",
"381 365 LINE",
"396 365 LINE",
"396 80 LINE",
"489 80 LINE",
"489 433 LINE",
"441 500 LINE",
"341 500 LINE",
"306 271 LINE",
"303 271 LINE",
"268 500 LINE",
"168 500 LINE",
"120 433 LINE"
);
},
{
nodes = (
"647 570 LINE",
"680 570 LINE",
"688 584 LINE",
"713 584 LINE",
"716 580 LINE",
"693 555 LINE",
"693 523 LINE",
"729 523 LINE",
"729 544 LINE",
"764 593 LINE",
"743 620 LINE",
"665 620 LINE",
"647 593 LINE"
);
},
{
nodes = (
"537 433 LINE",
"537 147 LINE",
"585 80 LINE",
"813 80 LINE",
"861 147 LINE",
"861 433 LINE",
"813 500 LINE",
"585 500 LINE"
);
},
{
nodes = (
"630 386 LINE",
"645 407 LINE",
"753 407 LINE",
"768 386 LINE",
"768 194 LINE",
"753 173 LINE",
"645 173 LINE",
"630 194 LINE"
);
},
{
nodes = (
"813 500 LINE",
"846 454 LINE",
"887 487 LINE",
"887 519 LINE",
"872 540 LINE",
"835 540 LINE",
"835 510 LINE"
);
},
{
nodes = (
"1053 500 LINE",
"1053 80 LINE",
"1285 80 LINE",
"1333 147 LINE",
"1333 194 LINE",
"1245 194 LINE",
"1230 173 LINE",
"1146 173 LINE",
"1146 407 LINE",
"1230 407 LINE",
"1245 386 LINE",
"1333 386 LINE",
"1333 433 LINE",
"1285 500 LINE"
);
},
{
nodes = (
"1381 500 LINE",
"1381 147 LINE",
"1429 80 LINE",
"1653 80 LINE",
"1701 147 LINE",
"1701 433 LINE",
"1653 500 LINE",
"1608 500 LINE",
"1608 194 LINE",
"1593 173 LINE",
"1489 173 LINE",
"1474 194 LINE",
"1474 500 LINE"
);
},
{
nodes = (
"1653 500 LINE",
"1686 454 LINE",
"1727 487 LINE",
"1727 519 LINE",
"1712 540 LINE",
"1674 540 LINE",
"1674 510 LINE"
);
},
{
nodes = (
"1486 570 LINE",
"1519 570 LINE",
"1527 584 LINE",
"1553 584 LINE",
"1555 580 LINE",
"1532 555 LINE",
"1532 523 LINE",
"1568 523 LINE",
"1568 544 LINE",
"1604 593 LINE",
"1583 620 LINE",
"1504 620 LINE",
"1486 593 LINE"
);
},
{
nodes = (
"1731 80 LINE",
"1824 80 LINE",
"1842 186 LINE",
"1857 165 LINE",
"1945 165 LINE",
"1960 186 LINE",
"1978 80 LINE",
"2071 80 LINE",
"1991 479 LINE",
"1976 500 LINE",
"1826 500 LINE",
"1811 479 LINE"
);
},
{
nodes = (
"1850 252 LINE",
"1874 407 LINE",
"1927 407 LINE",
"1951 252 LINE",
"1936 231 LINE",
"1865 231 LINE"
);
}
);
width = 2191;
}
);
},
{
glyphname = h_o_n_g_space_c_ograve_n_space_b_agrave_n;
layers = (
{
guideLines = (
{
angle = 90;
position = "{646, 0}";
showMeasurement = 1;
},
{
angle = 90;
position = "{1468, 0}";
}
);
layerId = "D0000B7D-4744-4B9D-A6B4-49F65DE5F164";
paths = (
{
nodes = (
"40 -3 LINE",
"40 700 LINE",
"3922 700 LINE",
"3922 0 LINE"
);
},
{
nodes = (
"120 97 LINE",
"213 97 LINE",
"213 247 LINE",
"228 268 LINE",
"312 268 LINE",
"327 247 LINE",
"327 97 LINE",
"420 97 LINE",
"420 517 LINE",
"327 517 LINE",
"327 382 LINE",
"312 361 LINE",
"228 361 LINE",
"213 382 LINE",
"213 517 LINE",
"120 517 LINE"
);
},
{
nodes = (
"468 450 LINE",
"468 164 LINE",
"516 97 LINE",
"744 97 LINE",
"792 164 LINE",
"792 450 LINE",
"744 517 LINE",
"516 517 LINE"
);
},
{
nodes = (
"561 403 LINE",
"576 424 LINE",
"684 424 LINE",
"699 403 LINE",
"699 211 LINE",
"684 190 LINE",
"576 190 LINE",
"561 211 LINE"
);
},
{
nodes = (
"1042 517 LINE",
"1042 307 LINE",
"1027 307 LINE",
"933 517 LINE",
"888 517 LINE",
"840 450 LINE",
"840 97 LINE",
"933 97 LINE",
"933 307 LINE",
"948 307 LINE",
"1042 97 LINE",
"1087 97 LINE",
"1135 164 LINE",
"1135 517 LINE"
);
},
{
nodes = (
"1183 97 LINE",
"1392 97 LINE",
"1407 118 LINE",
"1422 97 LINE",
"1468 97 LINE",
"1468 337 LINE",
"1322 337 LINE",
"1322 244 LINE",
"1375 244 LINE",
"1375 190 LINE",
"1276 190 LINE",
"1276 424 LINE",
"1375 424 LINE",
"1390 403 LINE",
"1468 403 LINE",
"1468 450 LINE",
"1420 517 LINE",
"1183 517 LINE"
);
},
{
nodes = (
"1660 517 LINE",
"1660 97 LINE",
"1892 97 LINE",
"1940 164 LINE",
"1940 211 LINE",
"1852 211 LINE",
"1837 190 LINE",
"1753 190 LINE",
"1753 424 LINE",
"1837 424 LINE",
"1852 403 LINE",
"1940 403 LINE",
"1940 450 LINE",
"1892 517 LINE"
);
},
{
nodes = (
"1988 450 LINE",
"1988 164 LINE",
"2036 97 LINE",
"2264 97 LINE",
"2312 164 LINE",
"2312 450 LINE",
"2264 517 LINE",
"2036 517 LINE"
);
},
{
nodes = (
"2081 403 LINE",
"2096 424 LINE",
"2204 424 LINE",
"2219 403 LINE",
"2219 211 LINE",
"2204 190 LINE",
"2096 190 LINE",
"2081 211 LINE"
);
},
{
nodes = (
"2037 564 LINE",
"2073 553 LINE",
"2252 540 LINE",
"2252 567 LINE",
"2073 603 LINE",
"2037 603 LINE"
);
},
{
nodes = (
"2562 517 LINE",
"2562 307 LINE",
"2547 307 LINE",
"2453 517 LINE",
"2408 517 LINE",
"2360 450 LINE",
"2360 97 LINE",
"2453 97 LINE",
"2453 307 LINE",
"2468 307 LINE",
"2562 97 LINE",
"2607 97 LINE",
"2655 164 LINE",
"2655 517 LINE"
);
},
{
nodes = (
"2848 97 LINE",
"3100 97 LINE",
"3148 164 LINE",
"3148 284 LINE",
"3114 312 LINE",
"3148 340 LINE",
"3148 450 LINE",
"3100 517 LINE",
"2848 517 LINE"
);
},
{
nodes = (
"2941 436 LINE",
"3040 436 LINE",
"3055 415 LINE",
"3055 368 LINE",
"3040 347 LINE",
"3024 347 OFFCURVE",
"2967 347 OFFCURVE",
"2941 347 CURVE"
);
},
{
nodes = (
"2941 267 LINE",
"3040 267 LINE",
"3055 246 LINE",
"3055 199 LINE",
"3040 178 LINE",
"3024 178 OFFCURVE",
"2967 178 OFFCURVE",
"2941 178 CURVE"
);
},
{
nodes = (
"3237 564 LINE",
"3273 553 LINE",
"3452 540 LINE",
"3452 567 LINE",
"3273 603 LINE",
"3237 603 LINE"
);
},
{
nodes = (
"3178 97 LINE",
"3271 97 LINE",
"3289 203 LINE",
"3304 182 LINE",
"3392 182 LINE",
"3407 203 LINE",
"3425 97 LINE",
"3518 97 LINE",
"3438 496 LINE",
"3423 517 LINE",
"3273 517 LINE",
"3258 496 LINE"
);
},
{
nodes = (
"3297 269 LINE",
"3321 424 LINE",
"3374 424 LINE",
"3398 269 LINE",
"3383 248 LINE",
"3312 248 LINE"
);
},
{
nodes = (
"3749 517 LINE",
"3749 307 LINE",
"3734 307 LINE",
"3640 517 LINE",
"3595 517 LINE",
"3547 450 LINE",
"3547 97 LINE",
"3640 97 LINE",
"3640 307 LINE",
"3655 307 LINE",
"3749 97 LINE",
"3794 97 LINE",
"3842 164 LINE",
"3842 517 LINE"
);
}
);
width = 3962;
}
);
},
{
glyphname = c_ograve_n_space_b_agrave_n_space_n_egrave;
layers = (
{
layerId = "D0000B7D-4744-4B9D-A6B4-49F65DE5F164";
paths = (
{
nodes = (
"40 0 LINE",
"40 700 LINE",
"3195 700 LINE",
"3195 0 LINE"
);
},
{
nodes = (
"120 517 LINE",
"120 97 LINE",
"352 97 LINE",
"400 164 LINE",
"400 211 LINE",
"312 211 LINE",
"297 190 LINE",
"213 190 LINE",
"213 424 LINE",
"297 424 LINE",
"312 403 LINE",
"400 403 LINE",
"400 450 LINE",
"352 517 LINE"
);
},
{
nodes = (
"448 450 LINE",
"448 164 LINE",
"496 97 LINE",
"724 97 LINE",
"772 164 LINE",
"772 450 LINE",
"724 517 LINE",
"496 517 LINE"
);
},
{
nodes = (
"541 403 LINE",
"556 424 LINE",
"664 424 LINE",
"679 403 LINE",
"679 211 LINE",
"664 190 LINE",
"556 190 LINE",
"541 211 LINE"
);
},
{
nodes = (
"497 564 LINE",
"533 553 LINE",
"712 540 LINE",
"712 567 LINE",
"533 603 LINE",
"497 603 LINE"
);
},
{
nodes = (
"1022 517 LINE",
"1022 307 LINE",
"1007 307 LINE",
"913 517 LINE",
"868 517 LINE",
"820 450 LINE",
"820 97 LINE",
"913 97 LINE",
"913 307 LINE",
"928 307 LINE",
"1022 97 LINE",
"1067 97 LINE",
"1115 164 LINE",
"1115 517 LINE"
);
},
{
nodes = (
"1307 97 LINE",
"1559 97 LINE",
"1607 164 LINE",
"1607 284 LINE",
"1573 312 LINE",
"1607 340 LINE",
"1607 450 LINE",
"1559 517 LINE",
"1307 517 LINE"
);
},
{
nodes = (
"1400 436 LINE",
"1499 436 LINE",
"1514 415 LINE",
"1514 368 LINE",
"1499 347 LINE",
"1483 347 OFFCURVE",
"1426 347 OFFCURVE",
"1400 347 CURVE"
);
},
{
nodes = (
"1400 267 LINE",
"1499 267 LINE",
"1514 246 LINE",
"1514 199 LINE",
"1499 178 LINE",
"1483 178 OFFCURVE",
"1426 178 OFFCURVE",
"1400 178 CURVE"
);
},
{
nodes = (
"1696 564 LINE",
"1732 553 LINE",
"1911 540 LINE",
"1911 567 LINE",
"1732 603 LINE",
"1696 603 LINE"
);
},
{
nodes = (
"1637 97 LINE",
"1730 97 LINE",
"1748 203 LINE",
"1763 182 LINE",
"1851 182 LINE",
"1866 203 LINE",
"1884 97 LINE",
"1977 97 LINE",
"1897 496 LINE",
"1882 517 LINE",
"1732 517 LINE",
"1717 496 LINE"
);
},
{
nodes = (
"1756 269 LINE",
"1780 424 LINE",
"1833 424 LINE",
"1857 269 LINE",
"1842 248 LINE",
"1771 248 LINE"
);
},
{
nodes = (
"2209 517 LINE",
"2209 307 LINE",
"2194 307 LINE",
"2100 517 LINE",
"2055 517 LINE",
"2007 450 LINE",
"2007 97 LINE",
"2100 97 LINE",
"2100 307 LINE",
"2115 307 LINE",
"2209 97 LINE",
"2254 97 LINE",
"2302 164 LINE",
"2302 517 LINE"
);
},
{
nodes = (
"2696 517 LINE",
"2696 307 LINE",
"2681 307 LINE",
"2587 517 LINE",
"2542 517 LINE",
"2494 450 LINE",
"2494 97 LINE",
"2587 97 LINE",
"2587 307 LINE",
"2602 307 LINE",
"2696 97 LINE",
"2741 97 LINE",
"2789 164 LINE",
"2789 517 LINE"
);
},
{
nodes = (
"2864 564 LINE",
"2900 553 LINE",
"3079 540 LINE",
"3079 567 LINE",
"2900 603 LINE",
"2864 603 LINE"
);
},
{
nodes = (
"2837 97 LINE",
"3067 97 LINE",
"3115 164 LINE",
"3115 211 LINE",
"3043 211 LINE",
"3028 190 LINE",
"2930 190 LINE",
"2930 271 LINE",
"3043 271 LINE",
"3043 343 LINE",
"2930 343 LINE",
"2930 424 LINE",
"3028 424 LINE",
"3043 403 LINE",
"3115 403 LINE",
"3115 450 LINE",
"3067 517 LINE",
"2837 517 LINE"
);
}
);
width = 3235;
}
);
},
{
glyphname = c_h_uacute_space_yacute;
layers = (
{
guideLines = (
{
angle = 90;
position = "{1068, 0}";
},
{
angle = 90;
position = "{844, 0}";
},
{
angle = 90;
position = "{1023, 0}";
},
{
angle = 90;
position = "{889, 0}";
},
{
angle = 90;
position = "{1116, 0}";
},
{
angle = 90;
position = "{796, 0}";
}
);
layerId = "D0000B7D-4744-4B9D-A6B4-49F65DE5F164";
paths = (
{
nodes = (
"120 517 LINE",
"120 97 LINE",
"352 97 LINE",
"400 164 LINE",
"400 211 LINE",
"312 211 LINE",
"297 190 LINE",
"213 190 LINE",
"213 424 LINE",
"297 424 LINE",
"312 403 LINE",
"400 403 LINE",
"400 450 LINE",
"352 517 LINE"
);
},
{
nodes = (
"448 97 LINE",
"541 97 LINE",
"541 247 LINE",
"556 268 LINE",
"640 268 LINE",
"655 247 LINE",
"655 97 LINE",
"748 97 LINE",
"748 517 LINE",
"655 517 LINE",
"655 382 LINE",
"640 361 LINE",
"556 361 LINE",
"541 382 LINE",
"541 517 LINE",
"448 517 LINE"
);
},
{
nodes = (
"796 517 LINE",
"796 164 LINE",
"844 97 LINE",
"1068 97 LINE",
"1116 164 LINE",
"1116 517 LINE",
"1023 517 LINE",
"1023 211 LINE",
"1008 190 LINE",
"904 190 LINE",
"889 211 LINE",
"889 517 LINE"
);
},
{
nodes = (
"852 579 LINE",
"852 540 LINE",
"888 540 LINE",
"1068 576 LINE",
"1068 603 LINE",
"888 590 LINE"
);
},
{
nodes = (
"1317 579 LINE",
"1317 540 LINE",
"1353 540 LINE",
"1532 576 LINE",
"1532 603 LINE",
"1353 590 LINE"
);
},
{
nodes = (
"1287 470 LINE",
"1379 263 LINE",
"1379 97 LINE",
"1472 97 LINE",
"1472 263 LINE",
"1564 470 LINE",
"1564 517 LINE",
"1480 517 LINE",
"1426 359 LINE",
"1371 517 LINE",
"1287 517 LINE"
);
},
{
nodes = (
"40 700 LINE",
"1644 700 LINE",
"1644 0 LINE",
"40 0 LINE"
);
}
);
width = 1684;
}
);
},
{
glyphname = c_o_i_space_c_h_uni1EEB_n_g;
layers = (
{
guideLines = (
{
angle = 90;
position = "{626, 0}";
},
{
angle = 90;
position = "{2012, 0}";
},
{
angle = 90;
position = "{2777, 0}";
}
);
layerId = "D0000B7D-4744-4B9D-A6B4-49F65DE5F164";
paths = (
{
nodes = (
"120 517 LINE",
"120 97 LINE",
"352 97 LINE",
"400 164 LINE",
"400 211 LINE",
"312 211 LINE",
"297 190 LINE",
"213 190 LINE",
"213 424 LINE",
"297 424 LINE",
"312 403 LINE",
"400 403 LINE",
"400 450 LINE",
"352 517 LINE"
);
},
{
nodes = (
"448 450 LINE",
"448 164 LINE",
"496 97 LINE",
"724 97 LINE",
"772 164 LINE",
"772 450 LINE",
"724 517 LINE",
"496 517 LINE"
);
},
{
nodes = (
"541 403 LINE",
"556 424 LINE",
"664 424 LINE",
"679 403 LINE",
"679 211 LINE",
"664 190 LINE",
"556 190 LINE",
"541 211 LINE"
);
},
{
nodes = (
"820 517 LINE",
"820 97 LINE",
"913 97 LINE",
"913 517 LINE"
);
},
{
nodes = (
"1105 517 LINE",
"1105 97 LINE",
"1337 97 LINE",
"1385 164 LINE",
"1385 211 LINE",
"1297 211 LINE",
"1282 190 LINE",
"1198 190 LINE",
"1198 424 LINE",
"1282 424 LINE",
"1297 403 LINE",
"1385 403 LINE",
"1385 450 LINE",
"1337 517 LINE"
);
},
{
nodes = (
"1433 97 LINE",
"1526 97 LINE",
"1526 247 LINE",
"1541 268 LINE",
"1625 268 LINE",
"1640 247 LINE",
"1640 97 LINE",
"1733 97 LINE",
"1733 517 LINE",
"1640 517 LINE",
"1640 382 LINE",
"1625 361 LINE",
"1541 361 LINE",
"1526 382 LINE",
"1526 517 LINE",
"1433 517 LINE"
);
},
{
nodes = (
"1781 517 LINE",
"1781 164 LINE",
"1829 97 LINE",
"2053 97 LINE",
"2101 164 LINE",
"2101 450 LINE",
"2053 517 LINE",
"2008 517 LINE",
"2008 211 LINE",
"1993 190 LINE",
"1889 190 LINE",
"1874 211 LINE",
"1874 517 LINE"
);
},
{
nodes = (
"2053 517 LINE",
"2086 471 LINE",
"2127 504 LINE",
"2127 536 LINE",
"2112 557 LINE",
"2074 557 LINE",
"2074 527 LINE"
);
},
{
nodes = (
"1824 564 LINE",
"1860 553 LINE",
"2040 540 LINE",
"2040 567 LINE",
"1860 603 LINE",
"1824 603 LINE"
);
},
{
nodes = (
"2351 517 LINE",
"2351 307 LINE",
"2336 307 LINE",
"2242 517 LINE",
"2197 517 LINE",
"2149 450 LINE",
"2149 97 LINE",
"2242 97 LINE",
"2242 307 LINE",
"2257 307 LINE",
"2351 97 LINE",
"2396 97 LINE",
"2444 164 LINE",
"2444 517 LINE"
);
},
{
nodes = (
"2492 97 LINE",
"2701 97 LINE",
"2716 118 LINE",
"2731 97 LINE",
"2777 97 LINE",
"2777 337 LINE",
"2631 337 LINE",
"2631 244 LINE",
"2684 244 LINE",
"2684 190 LINE",
"2585 190 LINE",
"2585 424 LINE",
"2684 424 LINE",
"2699 403 LINE",
"2777 403 LINE",
"2777 450 LINE",
"2729 517 LINE",
"2492 517 LINE"
);
},
{
nodes = (
"40 700 LINE",
"2854 700 LINE",
"2854 0 LINE",
"40 0 LINE"
);
}
);
width = 2894;
}
);
},
{
glyphname = c_uni1EA3_n_h_space_b_aacute_o;
layers = (
{
guideLines = (
{
angle = 90;
position = "{2512, 0}";
}
);
layerId = "D0000B7D-4744-4B9D-A6B4-49F65DE5F164";
paths = (
{
nodes = (
"120 500 LINE",
"120 80 LINE",
"352 80 LINE",
"400 147 LINE",
"400 194 LINE",
"312 194 LINE",
"297 173 LINE",
"213 173 LINE",
"213 407 LINE",
"297 407 LINE",
"312 386 LINE",
"400 386 LINE",
"400 433 LINE",
"352 500 LINE"
);
},
{
nodes = (
"544 570 LINE",
"577 570 LINE",
"586 584 LINE",
"611 584 LINE",
"613 580 LINE",
"590 555 LINE",
"590 523 LINE",
"626 523 LINE",
"626 544 LINE",
"662 593 LINE",
"641 620 LINE",
"562 620 LINE",
"544 593 LINE"
);
},
{
nodes = (
"430 80 LINE",
"523 80 LINE",
"541 186 LINE",
"556 165 LINE",
"644 165 LINE",
"659 186 LINE",
"677 80 LINE",
"770 80 LINE",
"690 479 LINE",
"675 500 LINE",
"525 500 LINE",
"510 479 LINE"
);
},
{
nodes = (
"550 252 LINE",
"574 407 LINE",
"626 407 LINE",
"650 252 LINE",
"635 231 LINE",
"565 231 LINE"
);
},
{
nodes = (
"1002 500 LINE",
"1002 290 LINE",
"987 290 LINE",
"893 500 LINE",
"848 500 LINE",
"800 433 LINE",
"800 80 LINE",
"893 80 LINE",
"893 290 LINE",
"908 290 LINE",
"1002 80 LINE",
"1047 80 LINE",
"1095 147 LINE",
"1095 500 LINE"
);
},
{
nodes = (
"1143 80 LINE",
"1236 80 LINE",
"1236 230 LINE",
"1251 251 LINE",
"1335 251 LINE",
"1350 230 LINE",
"1350 80 LINE",
"1443 80 LINE",
"1443 500 LINE",
"1350 500 LINE",
"1350 365 LINE",
"1335 344 LINE",
"1251 344 LINE",
"1236 365 LINE",
"1236 500 LINE",
"1143 500 LINE"
);
},
{
nodes = (
"1635 80 LINE",
"1887 80 LINE",
"1935 147 LINE",
"1935 267 LINE",
"1901 295 LINE",
"1935 323 LINE",
"1935 433 LINE",
"1887 500 LINE",
"1635 500 LINE"
);
},
{
nodes = (
"1728 419 LINE",
"1827 419 LINE",
"1842 398 LINE",
"1842 351 LINE",
"1827 330 LINE",
"1811 330 OFFCURVE",
"1754 330 OFFCURVE",
"1728 330 CURVE"
);
},
{
nodes = (
"1728 250 LINE",
"1827 250 LINE",
"1842 229 LINE",
"1842 182 LINE",
"1827 161 LINE",
"1811 161 OFFCURVE",
"1754 161 OFFCURVE",
"1728 161 CURVE"
);
},
{
nodes = (
"2024 562 LINE",
"2024 523 LINE",
"2060 523 LINE",
"2239 559 LINE",
"2239 586 LINE",
"2060 573 LINE"
);
},
{
nodes = (
"1965 80 LINE",
"2058 80 LINE",
"2076 186 LINE",
"2091 165 LINE",
"2179 165 LINE",
"2194 186 LINE",
"2212 80 LINE",
"2305 80 LINE",
"2225 479 LINE",
"2210 500 LINE",
"2060 500 LINE",
"2045 479 LINE"
);
},
{
nodes = (
"2084 252 LINE",
"2108 407 LINE",
"2161 407 LINE",
"2185 252 LINE",
"2170 231 LINE",
"2099 231 LINE"
);
},
{
nodes = (
"2335 433 LINE",
"2335 147 LINE",
"2383 80 LINE",
"2611 80 LINE",
"2659 147 LINE",
"2659 433 LINE",
"2611 500 LINE",
"2383 500 LINE"
);
},
{
nodes = (
"2428 386 LINE",
"2443 407 LINE",
"2551 407 LINE",
"2566 386 LINE",
"2566 194 LINE",
"2551 173 LINE",
"2443 173 LINE",
"2428 194 LINE"
);
},
{
nodes = (
"40 700 LINE",
"2739 700 LINE",
"2739 0 LINE",
"40 0 LINE"
);
}
);
width = 2779;
}
);
},
{
glyphname = dcroat_uni1ED3_n_g.ss02;
layers = (
{
guideLines = (
{
angle = 90;
position = "{1468, 0}";
}
);
layerId = "D0000B7D-4744-4B9D-A6B4-49F65DE5F164";
paths = (
{
nodes = (
"120 468 LINE",
"372 468 LINE",
"420 401 LINE",
"420 115 LINE",
"372 48 LINE",
"120 48 LINE",
"120 225 LINE",
"84 225 LINE",
"84 286 LINE",
"120 286 LINE"
);
},
{
nodes = (
"213 375 LINE",
"213 286 LINE",
"264 286 LINE",
"264 225 LINE",
"213 225 LINE",
"213 141 LINE",
"312 141 LINE",
"327 162 LINE",
"327 354 LINE",
"312 375 LINE"
);
},
{
nodes = (
"468 401 LINE",
"516 468 LINE",
"744 468 LINE",
"792 401 LINE",
"792 115 LINE",
"744 48 LINE",
"516 48 LINE",
"468 115 LINE"
);
},
{
nodes = (
"561 354 LINE",
"561 162 LINE",
"576 141 LINE",
"684 141 LINE",
"699 162 LINE",
"699 354 LINE",
"684 375 LINE",
"576 375 LINE"
);
},
{
nodes = (
"529 613 LINE",
"529 652 LINE",
"565 652 LINE",
"744 615 LINE",
"744 588 LINE",
"565 601 LINE"
);
},
{
nodes = (
"508 491 LINE",
"508 521 LINE",
"555 565 LINE",
"706 565 LINE",
"753 521 LINE",
"753 491 LINE",
"709 491 LINE",
"676 519 LINE",
"584 519 LINE",
"551 491 LINE"
);
},
{
nodes = (
"1042 468 LINE",
"1135 468 LINE",
"1135 115 LINE",
"1087 48 LINE",
"1042 48 LINE",
"948 258 LINE",
"933 258 LINE",
"933 48 LINE",
"840 48 LINE",
"840 401 LINE",
"888 468 LINE",
"933 468 LINE",
"1027 258 LINE",
"1042 258 LINE"
);
},
{
nodes = (
"1183 48 LINE",
"1183 468 LINE",
"1420 468 LINE",
"1468 401 LINE",
"1468 354 LINE",
"1390 354 LINE",
"1375 375 LINE",
"1276 375 LINE",
"1276 141 LINE",
"1375 141 LINE",
"1375 195 LINE",
"1322 195 LINE",
"1322 288 LINE",
"1468 288 LINE",
"1468 48 LINE",
"1422 48 LINE",
"1407 69 LINE",
"1392 48 LINE"
);
},
{
nodes = (
"40 0 LINE",
"1545 0 LINE",
"1545 700 LINE",
"40 700 LINE"
);
}
);
width = 1585;
}
);
},
{
glyphname = n_g_agrave_n.ss02;
layers = (
{
layerId = "D0000B7D-4744-4B9D-A6B4-49F65DE5F164";
paths = (
{
nodes = (
"322 517 LINE",
"415 517 LINE",
"415 164 LINE",
"367 97 LINE",
"322 97 LINE",
"228 307 LINE",
"213 307 LINE",
"213 97 LINE",
"120 97 LINE",
"120 450 LINE",
"168 517 LINE",
"213 517 LINE",
"307 307 LINE",
"322 307 LINE"
);
},
{
nodes = (
"463 97 LINE",
"463 517 LINE",
"700 517 LINE",
"748 450 LINE",
"748 403 LINE",
"670 403 LINE",
"655 424 LINE",
"556 424 LINE",
"556 190 LINE",
"652 190 LINE",
"652 244 LINE",
"599 244 LINE",
"599 337 LINE",
"745 337 LINE",
"745 97 LINE",
"699 97 LINE",
"684 118 LINE",
"669 97 LINE"
);
},
{
nodes = (
"837 564 LINE",
"837 603 LINE",
"873 603 LINE",
"1052 567 LINE",
"1052 540 LINE",
"873 553 LINE"
);
},
{
nodes = (
"778 97 LINE",
"858 496 LINE",
"873 517 LINE",
"1023 517 LINE",
"1038 496 LINE",
"1118 97 LINE",
"1025 97 LINE",
"1007 203 LINE",
"992 182 LINE",
"904 182 LINE",
"889 203 LINE",
"871 97 LINE"
);
},
{
nodes = (
"897 269 LINE",
"912 248 LINE",
"983 248 LINE",
"998 269 LINE",
"974 424 LINE",
"921 424 LINE"
);
},
{
nodes = (
"1350 517 LINE",
"1443 517 LINE",
"1443 164 LINE",
"1395 97 LINE",
"1350 97 LINE",
"1256 307 LINE",
"1241 307 LINE",
"1241 97 LINE",
"1148 97 LINE",
"1148 450 LINE",
"1196 517 LINE",
"1241 517 LINE",
"1335 307 LINE",
"1350 307 LINE"
);
},
{
nodes = (
"40 0 LINE",
"1523 0 LINE",
"1523 700 LINE",
"40 700 LINE"
);
}
);
width = 1563;
}
);
},
{
glyphname = c_h_u_y_ecircumflex_n.ss02;
layers = (
{
guideLines = (
{
angle = 90;
position = "{1447, 0}";
}
);
layerId = "D0000B7D-4744-4B9D-A6B4-49F65DE5F164";
paths = (
{
nodes = (
"120 512 LINE",
"120 92 LINE",
"352 92 LINE",
"400 159 LINE",
"400 206 LINE",
"312 206 LINE",
"297 185 LINE",
"213 185 LINE",
"213 419 LINE",
"297 419 LINE",
"312 398 LINE",
"400 398 LINE",
"400 445 LINE",
"352 512 LINE"
);
},
{
nodes = (
"448 92 LINE",
"541 92 LINE",
"541 242 LINE",
"556 263 LINE",
"640 263 LINE",
"655 242 LINE",
"655 92 LINE",
"748 92 LINE",
"748 512 LINE",
"655 512 LINE",
"655 377 LINE",
"640 356 LINE",
"556 356 LINE",
"541 377 LINE",
"541 512 LINE",
"448 512 LINE"
);
},
{
nodes = (
"796 512 LINE",
"796 159 LINE",
"844 92 LINE",
"1068 92 LINE",
"1116 159 LINE",
"1116 512 LINE",
"1023 512 LINE",
"1023 206 LINE",
"1008 185 LINE",
"904 185 LINE",
"889 206 LINE",
"889 512 LINE"
);
},
{
nodes = (
"1143 465 LINE",
"1235 258 LINE",
"1235 92 LINE",
"1328 92 LINE",
"1328 258 LINE",
"1420 465 LINE",
"1420 512 LINE",
"1336 512 LINE",
"1282 354 LINE",
"1227 512 LINE",
"1143 512 LINE"
);
},
{
nodes = (
"1447 535 LINE",
"1491 535 LINE",
"1524 563 LINE",
"1616 563 LINE",
"1649 535 LINE",
"1692 535 LINE",
"1692 565 LINE",
"1645 609 LINE",
"1494 609 LINE",
"1447 565 LINE"
);
},
{
nodes = (
"1447 92 LINE",
"1677 92 LINE",
"1725 159 LINE",
"1725 206 LINE",
"1653 206 LINE",
"1638 185 LINE",
"1540 185 LINE",
"1540 266 LINE",
"1653 266 LINE",
"1653 338 LINE",
"1540 338 LINE",
"1540 419 LINE",
"1638 419 LINE",
"1653 398 LINE",
"1725 398 LINE",
"1725 445 LINE",
"1677 512 LINE",
"1447 512 LINE"
);
},
{
nodes = (
"1975 512 LINE",
"1975 302 LINE",
"1960 302 LINE",
"1866 512 LINE",
"1821 512 LINE",
"1773 445 LINE",
"1773 92 LINE",
"1866 92 LINE",
"1866 302 LINE",
"1881 302 LINE",
"1975 92 LINE",
"2020 92 LINE",
"2068 159 LINE",
"2068 512 LINE"
);
},
{
nodes = (
"40 700 LINE",
"2148 700 LINE",
"2148 0 LINE",
"40 0 LINE"
);
}
);
width = 2188;
}
);
},
{
glyphname = c_uni1EED_a_space_h_agrave_n_g.ss02;
layers = (
{
guideLines = (
{
angle = 90;
position = "{2687, 0}";
}
);
layerId = "D0000B7D-4744-4B9D-A6B4-49F65DE5F164";
paths = (
{
nodes = (
"120 500 LINE",
"120 80 LINE",
"352 80 LINE",
"400 147 LINE",
"400 194 LINE",
"312 194 LINE",
"297 173 LINE",
"213 173 LINE",
"213 407 LINE",
"297 407 LINE",
"312 386 LINE",
"400 386 LINE",
"400 433 LINE",
"352 500 LINE"
);
},
{
nodes = (
"448 500 LINE",
"448 147 LINE",
"496 80 LINE",
"720 80 LINE",
"768 147 LINE",
"768 433 LINE",
"720 500 LINE",
"675 500 LINE",
"675 194 LINE",
"660 173 LINE",
"556 173 LINE",
"541 194 LINE",
"541 500 LINE"
);
},
{
nodes = (
"720 500 LINE",
"753 454 LINE",
"794 487 LINE",
"794 519 LINE",
"779 540 LINE",
"741 540 LINE",
"741 510 LINE"
);
},
{
nodes = (
"553 570 LINE",
"586 570 LINE",
"594 584 LINE",
"620 584 LINE",
"622 580 LINE",
"599 555 LINE",
"599 523 LINE",
"635 523 LINE",
"635 544 LINE",
"671 593 LINE",
"650 620 LINE",
"571 620 LINE",
"553 593 LINE"
);
},
{
nodes = (
"798 80 LINE",
"891 80 LINE",
"909 186 LINE",
"924 165 LINE",
"1012 165 LINE",
"1027 186 LINE",
"1045 80 LINE",
"1138 80 LINE",
"1058 479 LINE",
"1043 500 LINE",
"893 500 LINE",
"878 479 LINE"
);
},
{
nodes = (
"917 252 LINE",
"941 407 LINE",
"994 407 LINE",
"1018 252 LINE",
"1003 231 LINE",
"932 231 LINE"
);
},
{
nodes = (
"1312 80 LINE",
"1405 80 LINE",
"1405 230 LINE",
"1420 251 LINE",
"1504 251 LINE",
"1519 230 LINE",
"1519 80 LINE",
"1612 80 LINE",
"1612 500 LINE",
"1519 500 LINE",
"1519 365 LINE",
"1504 344 LINE",
"1420 344 LINE",
"1405 365 LINE",
"1405 500 LINE",
"1312 500 LINE"
);
},
{
nodes = (
"1701 547 LINE",
"1737 536 LINE",
"1916 523 LINE",
"1916 550 LINE",
"1737 586 LINE",
"1701 586 LINE"
);
},
{
nodes = (
"1642 80 LINE",
"1735 80 LINE",
"1753 186 LINE",
"1768 165 LINE",
"1856 165 LINE",
"1871 186 LINE",
"1889 80 LINE",
"1982 80 LINE",
"1902 479 LINE",
"1887 500 LINE",
"1737 500 LINE",
"1722 479 LINE"
);
},
{
nodes = (
"1761 252 LINE",
"1785 407 LINE",
"1838 407 LINE",
"1862 252 LINE",
"1847 231 LINE",
"1776 231 LINE"
);
},
{
nodes = (
"2213 500 LINE",
"2213 290 LINE",
"2198 290 LINE",
"2104 500 LINE",
"2059 500 LINE",
"2011 433 LINE",
"2011 80 LINE",
"2104 80 LINE",
"2104 290 LINE",
"2119 290 LINE",
"2213 80 LINE",
"2258 80 LINE",
"2306 147 LINE",
"2306 500 LINE"
);
},
{
nodes = (
"2354 80 LINE",
"2563 80 LINE",
"2578 101 LINE",
"2593 80 LINE",
"2639 80 LINE",
"2639 320 LINE",
"2493 320 LINE",
"2493 227 LINE",
"2546 227 LINE",
"2546 173 LINE",
"2447 173 LINE",
"2447 407 LINE",
"2546 407 LINE",
"2561 386 LINE",
"2639 386 LINE",
"2639 433 LINE",
"2591 500 LINE",
"2354 500 LINE"
);
},
{
nodes = (
"40 700 LINE",
"2719 700 LINE",
"2719 0 LINE",
"40 0 LINE"
);
}
);
width = 2759;
}
);
},
{
glyphname = uni1EDF_space_dcroat_acircumflex_y_space_c_oacute.ss02;
layers = (
{
guideLines = (
{
angle = 90;
position = "{342, 0}";
}
);
layerId = "D0000B7D-4744-4B9D-A6B4-49F65DE5F164";
paths = (
{
nodes = (
"230 570 LINE",
"263 570 LINE",
"271 584 LINE",
"296 584 LINE",
"299 580 LINE",
"276 555 LINE",
"276 523 LINE",
"312 523 LINE",
"312 544 LINE",
"347 593 LINE",
"326 620 LINE",
"248 620 LINE",
"230 593 LINE"
);
},
{
nodes = (
"120 433 LINE",
"120 147 LINE",
"168 80 LINE",
"396 80 LINE",
"444 147 LINE",
"444 433 LINE",
"397 500 LINE",
"168 500 LINE"
);
},
{
nodes = (
"213 386 LINE",
"228 407 LINE",
"336 407 LINE",
"351 386 LINE",
"351 194 LINE",
"336 173 LINE",
"228 173 LINE",
"213 194 LINE"
);
},
{
nodes = (
"396 500 LINE",
"429 454 LINE",
"470 487 LINE",
"470 519 LINE",
"455 540 LINE",
"418 540 LINE",
"418 510 LINE"
);
},
{
nodes = (
"636 500 LINE",
"636 318 LINE",
"600 318 LINE",
"600 257 LINE",
"636 257 LINE",
"636 80 LINE",
"888 80 LINE",
"936 147 LINE",
"936 433 LINE",
"888 500 LINE"
);
},
{
nodes = (
"729 407 LINE",
"828 407 LINE",
"843 386 LINE",
"843 194 LINE",
"828 173 LINE",
"729 173 LINE",
"729 257 LINE",
"780 257 LINE",
"780 318 LINE",
"729 318 LINE"
);
},
{
nodes = (
"1010 523 LINE",
"1054 523 LINE",
"1087 551 LINE",
"1178 551 LINE",
"1211 523 LINE",
"1255 523 LINE",
"1255 553 LINE",
"1208 597 LINE",
"1057 597 LINE",
"1010 553 LINE"
);
},
{
nodes = (
"966 80 LINE",
"1059 80 LINE",
"1077 186 LINE",
"1092 165 LINE",
"1180 165 LINE",
"1195 186 LINE",
"1213 80 LINE",
"1306 80 LINE",
"1226 479 LINE",
"1211 500 LINE",
"1061 500 LINE",
"1046 479 LINE"
);
},
{
nodes = (
"1085 252 LINE",
"1109 407 LINE",
"1162 407 LINE",
"1186 252 LINE",
"1171 231 LINE",
"1100 231 LINE"
);
},
{
nodes = (
"1315 453 LINE",
"1407 246 LINE",
"1407 80 LINE",
"1500 80 LINE",
"1500 246 LINE",
"1592 453 LINE",
"1592 500 LINE",
"1508 500 LINE",
"1454 342 LINE",
"1399 500 LINE",
"1315 500 LINE"
);
},
{
nodes = (
"1762 500 LINE",
"1762 80 LINE",
"1994 80 LINE",
"2042 147 LINE",
"2042 194 LINE",
"1954 194 LINE",
"1939 173 LINE",
"1855 173 LINE",
"1855 407 LINE",
"1939 407 LINE",
"1954 386 LINE",
"2042 386 LINE",
"2042 433 LINE",
"1994 500 LINE"
);
},
{
nodes = (
"2090 433 LINE",
"2090 147 LINE",
"2138 80 LINE",
"2366 80 LINE",
"2414 147 LINE",
"2414 433 LINE",
"2366 500 LINE",
"2138 500 LINE"
);
},
{
nodes = (
"2183 386 LINE",
"2198 407 LINE",
"2306 407 LINE",
"2321 386 LINE",
"2321 194 LINE",
"2306 173 LINE",
"2198 173 LINE",
"2183 194 LINE"
);
},
{
nodes = (
"2139 562 LINE",
"2139 523 LINE",
"2175 523 LINE",
"2354 559 LINE",
"2354 586 LINE",
"2175 573 LINE"
);
},
{
nodes = (
"40 700 LINE",
"2494 700 LINE",
"2494 0 LINE",
"40 0 LINE"
);
}
);
width = 2534;
}
);
},
{
glyphname = ampersand;
layers = (
{
guideLines = (
{
position = "{0, 468}";
},
{
position = "{0, 635}";
},
{
angle = 90;
position = "{234, 0}";
},
{
angle = 90;
position = "{339, 0}";
},
{
position = "{0, 345}";
},
{
position = "{0, 378}";
},
{
position = "{0, 445}";
},
{
position = "{0, 198}";
}
);
layerId = "D0000B7D-4744-4B9D-A6B4-49F65DE5F164";
paths = (
{
nodes = (
"544 0 LINE",
"662 0 LINE",
"687 35 LINE",
"595 166 LINE",
"687 232 LINE",
"687 286 LINE",
"621 368 LINE",
"512 285 LINE",
"482 332 LINE",
"482 390 LINE",
"534 445 LINE",
"534 588 LINE",
"454 700 LINE",
"175 700 LINE",
"95 588 LINE",
"95 445 LINE",
"40 390 LINE",
"40 112 LINE",
"120 0 LINE",
"389 0 LINE",
"490 79 LINE"
);
},
{
nodes = (
"180 310 LINE",
"215 345 LINE",
"339 345 LINE",
"339 313 LINE",
"403 211 LINE",
"320 155 LINE",
"210 155 LINE",
"180 195 LINE"
);
},
{
nodes = (
"235 445 LINE",
"235 510 LINE",
"260 545 LINE",
"394 545 LINE",
"394 500 LINE",
"339 445 LINE"
);
}
);
width = 697;
}
);
unicode = 0026;
},
{
glyphname = parenleft;
layers = (
{
guideLines = (
{
angle = 90;
position = "{165, 0}";
},
{
position = "{0, 218}";
},
{
position = "{0, 393}";
},
{
position = "{0, -38}";
}
);
layerId = "D0000B7D-4744-4B9D-A6B4-49F65DE5F164";
paths = (
{
nodes = (
"215 706 LINE",
"215 738 LINE",
"130 738 LINE",
"25 553 LINE",
"25 135 LINE",
"130 -38 LINE",
"215 -38 LINE",
"215 -3 LINE",
"125 157 LINE",
"125 546 LINE"
);
}
);
width = 220;
}
);
unicode = 0028;
},
{
glyphname = parenright;
layers = (
{
layerId = "D0000B7D-4744-4B9D-A6B4-49F65DE5F164";
paths = (
{
nodes = (
"5 706 LINE",
"95 546 LINE",
"95 157 LINE",
"5 -3 LINE",
"5 -38 LINE",
"90 -38 LINE",
"195 135 LINE",
"195 553 LINE",
"90 738 LINE",
"5 738 LINE"
);
}
);
width = 220;
}
);
unicode = 0029;
},
{
glyphname = notequal;
layers = (
{
guideLines = (
{
position = "{0, 546}";
},
{
position = "{0, 129}";
}
);
layerId = "D0000B7D-4744-4B9D-A6B4-49F65DE5F164";
paths = (
{
nodes = (
"20 365 LINE",
"410 365 LINE",
"410 465 LINE",
"20 465 LINE"
);
},
{
nodes = (
"20 210 LINE",
"410 210 LINE",
"410 310 LINE",
"20 310 LINE"
);
},
{
nodes = (
"320 536 LINE",
"320 546 LINE",
"221 546 LINE",
"110 139 LINE",
"110 129 LINE",
"213 129 LINE"
);
}
);
width = 430;
}
);
unicode = 2260;
},
{
glyphname = braceleft;
layers = (
{
guideLines = (
{
angle = 90;
position = "{270, 0}";
}
);
layerId = "D0000B7D-4744-4B9D-A6B4-49F65DE5F164";
paths = (
{
nodes = (
"245 638 LINE",
"185 638 LINE",
"185 409 LINE",
"120 359 LINE",
"120 330 LINE",
"185 280 LINE",
"185 50 LINE",
"245 50 LINE",
"270 15 LINE",
"270 -50 LINE",
"85 -50 LINE",
"85 260 LINE",
"20 310 LINE",
"20 381 LINE",
"85 431 LINE",
"85 738 LINE",
"270 738 LINE",
"270 673 LINE"
);
}
);
width = 290;
}
);
unicode = 007B;
},
{
glyphname = bar;
layers = (
{
layerId = "D0000B7D-4744-4B9D-A6B4-49F65DE5F164";
paths = (
{
nodes = (
"20 -50 LINE",
"120 -50 LINE",
"120 738 LINE",
"20 738 LINE"
);
}
);
width = 140;
}
);
unicode = 007C;
},
{
glyphname = braceright;
layers = (
{
guideLines = (
{
angle = 90;
position = "{81, 0}";
},
{
position = "{0, 788}";
},
{
position = "{0, -90}";
}
);
layerId = "D0000B7D-4744-4B9D-A6B4-49F65DE5F164";
paths = (
{
nodes = (
"45 638 LINE",
"20 673 LINE",
"20 738 LINE",
"205 738 LINE",
"205 431 LINE",
"270 381 LINE",
"270 310 LINE",
"205 260 LINE",
"205 -50 LINE",
"20 -50 LINE",
"20 15 LINE",
"45 50 LINE",
"105 50 LINE",
"105 280 LINE",
"170 330 LINE",
"170 359 LINE",
"105 409 LINE",
"105 638 LINE"
);
}
);
width = 290;
}
);
unicode = 007D;
},
{
glyphname = bracketleft;
layers = (
{
guideLines = (
{
position = "{0, 568}";
},
{
angle = 90;
position = "{20, 0}";
},
{
position = "{0, 788}";
},
{
position = "{0, -90}";
},
{
angle = 90;
position = "{120, 0}";
}
);
layerId = "D0000B7D-4744-4B9D-A6B4-49F65DE5F164";
paths = (
{
nodes = (
"20 -50 LINE",
"226 -50 LINE",
"226 15 LINE",
"201 50 LINE",
"120 50 LINE",
"120 638 LINE",
"201 638 LINE",
"226 673 LINE",
"226 738 LINE",
"20 738 LINE",
"20 688 LINE"
);
}
);
width = 246;
}
);
unicode = 005B;
},
{
glyphname = bracketright;
layers = (
{
layerId = "D0000B7D-4744-4B9D-A6B4-49F65DE5F164";
paths = (
{
nodes = (
"226 -50 LINE",
"226 688 LINE",
"226 738 LINE",
"20 738 LINE",
"20 673 LINE",
"45 638 LINE",
"126 638 LINE",
"126 50 LINE",
"45 50 LINE",
"20 15 LINE",
"20 -50 LINE"
);
}
);
width = 246;
}
);
unicode = 005D;
},
{
glyphname = quoteleft;
layers = (
{
layerId = "D0000B7D-4744-4B9D-A6B4-49F65DE5F164";
paths = (
{
nodes = (
"125 464 LINE",
"45 464 LINE",
"20 499 LINE",
"20 585 LINE",
"96 700 LINE",
"195 700 LINE",
"195 684 LINE",
"125 585 LINE"
);
}
);
width = 215;
}
);
unicode = 2018;
},
{
glyphname = uni2197;
layers = (
{
guideLines = (
{
position = "{0, 120}";
}
);
layerId = "D0000B7D-4744-4B9D-A6B4-49F65DE5F164";
paths = (
{
nodes = (
"20 196 LINE",
"226 369 LINE",
"136 371 LINE",
"101 413 LINE",
"153 456 LINE",
"304 449 LINE",
"383 355 LINE",
"364 205 LINE",
"312 161 LINE",
"276 204 LINE",
"291 292 LINE",
"85 120 LINE"
);
}
);
width = 403;
}
);
unicode = 2197;
},
{
glyphname = arrowup;
layers = (
{
guideLines = (
{
position = "{0, 364}";
},
{
position = "{0, 389}";
},
{
angle = 90;
position = "{134, 0}";
},
{
angle = 90;
position = "{184, 0}";
},
{
position = "{0, 120}";
}
);
layerId = "D0000B7D-4744-4B9D-A6B4-49F65DE5F164";
paths = (
{
nodes = (
"134 120 LINE",
"134 389 LINE",
"75 321 LINE",
"20 321 LINE",
"20 389 LINE",
"123 500 LINE",
"245 500 LINE",
"348 389 LINE",
"348 321 LINE",
"293 321 LINE",
"234 389 LINE",
"234 120 LINE"
);
}
);
width = 368;
}
);
unicode = 2191;
},
{
glyphname = uni2196;
layers = (
{
guideLines = (
{
position = "{0, 120}";
}
);
layerId = "D0000B7D-4744-4B9D-A6B4-49F65DE5F164";
paths = (
{
nodes = (
"383 196 LINE",
"318 120 LINE",
"112 292 LINE",
"127 204 LINE",
"91 161 LINE",
"39 205 LINE",
"20 355 LINE",
"99 449 LINE",
"250 456 LINE",
"302 413 LINE",
"267 371 LINE",
"177 369 LINE"
);
}
);
width = 403;
}
);
unicode = 2196;
},
{
glyphname = arrowright;
layers = (
{
guideLines = (
{
position = "{0, 120}";
}
);
layerId = "D0000B7D-4744-4B9D-A6B4-49F65DE5F164";
paths = (
{
nodes = (
"20 234 LINE",
"20 334 LINE",
"289 334 LINE",
"221 393 LINE",
"221 448 LINE",
"289 448 LINE",
"400 345 LINE",
"400 223 LINE",
"289 120 LINE",
"221 120 LINE",
"221 175 LINE",
"289 234 LINE"
);
}
);
width = 420;
}
);
unicode = 2192;
},
{
glyphname = uni2198;
layers = (
{
guideLines = (
{
position = "{0, 120}";
}
);
layerId = "D0000B7D-4744-4B9D-A6B4-49F65DE5F164";
paths = (
{
nodes = (
"20 380 LINE",
"85 456 LINE",
"291 284 LINE",
"276 372 LINE",
"312 415 LINE",
"364 371 LINE",
"383 221 LINE",
"304 127 LINE",
"153 120 LINE",
"101 163 LINE",
"136 205 LINE",
"226 207 LINE"
);
}
);
width = 403;
}
);
unicode = 2198;
},
{
glyphname = arrowdown;
layers = (
{
guideLines = (
{
position = "{0, 120}";
}
);
layerId = "D0000B7D-4744-4B9D-A6B4-49F65DE5F164";
paths = (
{
nodes = (
"134 500 LINE",
"234 500 LINE",
"234 231 LINE",
"293 299 LINE",
"348 299 LINE",
"348 231 LINE",
"245 120 LINE",
"123 120 LINE",
"20 231 LINE",
"20 299 LINE",
"75 299 LINE",
"134 231 LINE"
);
}
);
width = 368;
}
);
unicode = 2193;
},
{
glyphname = uni2199;
layers = (
{
guideLines = (
{
position = "{0, 120}";
}
);
layerId = "D0000B7D-4744-4B9D-A6B4-49F65DE5F164";
paths = (
{
nodes = (
"383 380 LINE",
"177 207 LINE",
"267 205 LINE",
"302 163 LINE",
"250 120 LINE",
"99 127 LINE",
"20 221 LINE",
"39 371 LINE",
"91 415 LINE",
"127 372 LINE",
"112 284 LINE",
"318 456 LINE"
);
}
);
width = 403;
}
);
unicode = 2199;
},
{
glyphname = arrowleft;
layers = (
{
layerId = "D0000B7D-4744-4B9D-A6B4-49F65DE5F164";
paths = (
{
nodes = (
"400 234 LINE",
"131 234 LINE",
"199 175 LINE",
"199 120 LINE",
"131 120 LINE",
"20 223 LINE",
"20 345 LINE",
"131 448 LINE",
"199 448 LINE",
"199 393 LINE",
"131 334 LINE",
"400 334 LINE"
);
}
);
width = 420;
}
);
unicode = 2190;
},
{
glyphname = arrowboth;
layers = (
{
guideLines = (
{
position = "{0, 120}";
}
);
layerId = "D0000B7D-4744-4B9D-A6B4-49F65DE5F164";
paths = (
{
nodes = (
"400 234 LINE",
"131 234 LINE",
"199 175 LINE",
"199 120 LINE",
"131 120 LINE",
"20 223 LINE",
"20 345 LINE",
"131 448 LINE",
"199 448 LINE",
"199 393 LINE",
"131 334 LINE",
"400 334 LINE"
);
},
{
nodes = (
"128 234 LINE",
"128 334 LINE",
"397 334 LINE",
"329 393 LINE",
"329 448 LINE",
"397 448 LINE",
"508 345 LINE",
"508 223 LINE",
"397 120 LINE",
"329 120 LINE",
"329 175 LINE",
"397 234 LINE"
);
}
);
width = 528;
}
);
unicode = 2194;
},
{
glyphname = arrowupdn;
layers = (
{
guideLines = (
{
position = "{0, 120}";
}
);
layerId = "D0000B7D-4744-4B9D-A6B4-49F65DE5F164";
paths = (
{
nodes = (
"134 228 LINE",
"134 497 LINE",
"75 429 LINE",
"20 429 LINE",
"20 497 LINE",
"123 608 LINE",
"245 608 LINE",
"348 497 LINE",
"348 429 LINE",
"293 429 LINE",
"234 497 LINE",
"234 228 LINE"
);
},
{
nodes = (
"134 500 LINE",
"234 500 LINE",
"234 231 LINE",
"293 299 LINE",
"348 299 LINE",
"348 231 LINE",
"245 120 LINE",
"123 120 LINE",
"20 231 LINE",
"20 299 LINE",
"75 299 LINE",
"134 231 LINE"
);
}
);
width = 368;
}
);
unicode = 2195;
},
{
glyphname = quoteright;
layers = (
{
layerId = "D0000B7D-4744-4B9D-A6B4-49F65DE5F164";
paths = (
{
nodes = (
"90 700 LINE",
"170 700 LINE",
"195 665 LINE",
"195 579 LINE",
"119 464 LINE",
"20 464 LINE",
"20 480 LINE",
"90 579 LINE"
);
}
);
width = 215;
}
);
unicode = 2019;
},
{
glyphname = quotedblleft;
layers = (
{
layerId = "D0000B7D-4744-4B9D-A6B4-49F65DE5F164";
paths = (
{
nodes = (
"125 464 LINE",
"45 464 LINE",
"20 499 LINE",
"20 585 LINE",
"96 700 LINE",
"195 700 LINE",
"195 684 LINE",
"125 585 LINE"
);
},
{
nodes = (
"284 464 LINE",
"204 464 LINE",
"179 499 LINE",
"179 585 LINE",
"255 700 LINE",
"354 700 LINE",
"354 684 LINE",
"284 585 LINE"
);
}
);
width = 374;
}
);
unicode = 201C;
},
{
glyphname = quotedblright;
layers = (
{
layerId = "D0000B7D-4744-4B9D-A6B4-49F65DE5F164";
paths = (
{
nodes = (
"249 700 LINE",
"329 700 LINE",
"354 665 LINE",
"354 579 LINE",
"278 464 LINE",
"179 464 LINE",
"179 480 LINE",
"249 579 LINE"
);
},
{
nodes = (
"90 700 LINE",
"170 700 LINE",
"195 665 LINE",
"195 579 LINE",
"119 464 LINE",
"20 464 LINE",
"20 480 LINE",
"90 579 LINE"
);
}
);
width = 374;
}
);
unicode = 201D;
},
{
glyphname = quotedblbase;
layers = (
{
guideLines = (
{
position = "{0, -96}";
}
);
layerId = "D0000B7D-4744-4B9D-A6B4-49F65DE5F164";
paths = (
{
nodes = (
"90 140 LINE",
"170 140 LINE",
"195 105 LINE",
"195 19 LINE",
"119 -96 LINE",
"20 -96 LINE",
"20 -80 LINE",
"90 19 LINE"
);
},
{
nodes = (
"249 140 LINE",
"329 140 LINE",
"354 105 LINE",
"354 19 LINE",
"278 -96 LINE",
"179 -96 LINE",
"179 -80 LINE",
"249 19 LINE"
);
}
);
width = 374;
}
);
unicode = 201E;
},
{
glyphname = quotesinglbase;
layers = (
{
guideLines = (
{
position = "{0, -96}";
}
);
layerId = "D0000B7D-4744-4B9D-A6B4-49F65DE5F164";
paths = (
{
nodes = (
"40 140 LINE",
"120 140 LINE",
"145 105 LINE",
"145 19 LINE",
"69 -96 LINE",
"-30 -96 LINE",
"-30 -80 LINE",
"40 19 LINE"
);
}
);
width = 165;
}
);
unicode = 201A;
},
{
glyphname = periodcentered;
layers = (
{
guideLines = (
{
position = "{0, 450}";
}
);
layerId = "D0000B7D-4744-4B9D-A6B4-49F65DE5F164";
paths = (
{
nodes = (
"156 314 LINE",
"156 450 LINE",
"20 450 LINE",
"20 314 LINE"
);
}
);
width = 176;
}
);
unicode = 00B7;
},
{
glyphname = bullet;
layers = (
{
guideLines = (
{
position = "{0, 479}";
}
);
layerId = "D0000B7D-4744-4B9D-A6B4-49F65DE5F164";
paths = (
{
nodes = (
"215 284 LINE",
"215 479 LINE",
"20 479 LINE",
"20 284 LINE"
);
}
);
width = 235;
}
);
unicode = 2022;
},
{
glyphname = endash;
layers = (
{
layerId = "D0000B7D-4744-4B9D-A6B4-49F65DE5F164";
paths = (
{
nodes = (
"20 287 LINE",
"480 287 LINE",
"480 387 LINE",
"20 387 LINE"
);
}
);
width = 500;
}
);
unicode = 2013;
},
{
glyphname = emdash;
layers = (
{
layerId = "D0000B7D-4744-4B9D-A6B4-49F65DE5F164";
paths = (
{
nodes = (
"20 287 LINE",
"980 287 LINE",
"980 387 LINE",
"20 387 LINE"
);
}
);
width = 1000;
}
);
unicode = 2014;
},
{
glyphname = macron;
layers = (
{
layerId = "D0000B7D-4744-4B9D-A6B4-49F65DE5F164";
paths = (
{
nodes = (
"20 738 LINE",
"410 738 LINE",
"410 838 LINE",
"20 838 LINE"
);
}
);
width = 430;
}
);
unicode = 00AF;
},
{
glyphname = logicalnot;
layers = (
{
layerId = "D0000B7D-4744-4B9D-A6B4-49F65DE5F164";
paths = (
{
nodes = (
"20 287 LINE",
"442 287 LINE",
"442 127 LINE",
"542 127 LINE",
"542 387 LINE",
"20 387 LINE"
);
}
);
width = 562;
}
);
unicode = 00AC;
},
{
glyphname = product;
layers = (
{
layerId = "D0000B7D-4744-4B9D-A6B4-49F65DE5F164";
paths = (
{
nodes = (
"20 700 LINE",
"20 600 LINE",
"110 600 LINE",
"110 0 LINE",
"210 0 LINE",
"210 600 LINE",
"289 600 LINE",
"289 0 LINE",
"389 0 LINE",
"389 600 LINE",
"479 600 LINE",
"479 700 LINE"
);
}
);
width = 499;
}
);
unicode = 220F;
},
{
glyphname = trademark;
layers = (
{
guideLines = (
{
angle = 90;
position = "{102, 0}";
},
{
position = "{0, 673}";
},
{
angle = 90;
position = "{516, 0}";
},
{
angle = 90;
position = "{455, 0}";
},
{
position = "{0, 350}";
}
);
layerId = "D0000B7D-4744-4B9D-A6B4-49F65DE5F164";
paths = (
{
nodes = (
"0 600 LINE",
"0 644 LINE",
"40 700 LINE",
"226 700 LINE",
"266 644 LINE",
"266 600 LINE",
"222 600 LINE",
"172 638 LINE",
"172 350 LINE",
"94 350 LINE",
"94 638 LINE",
"44 600 LINE"
);
},
{
nodes = (
"286 644 LINE",
"326 700 LINE",
"410 700 LINE",
"439 510 LINE",
"441 510 LINE",
"470 700 LINE",
"554 700 LINE",
"594 644 LINE",
"594 350 LINE",
"516 350 LINE",
"516 588 LINE",
"504 588 LINE",
"483 450 LINE",
"470 432 LINE",
"410 432 LINE",
"397 450 LINE",
"376 588 LINE",
"364 588 LINE",
"364 350 LINE",
"286 350 LINE"
);
}
);
width = 614;
}
);
unicode = 2122;
},
{
glyphname = colon_m_o_c_colon.liga;
layers = (
{
guideLines = (
{
angle = 90;
position = "{434, 0}";
},
{
angle = 90;
position = "{757, 0}";
},
{
angle = 90;
position = "{190, 0}";
},
{
angle = 90;
position = "{682, 0}";
},
{
angle = 90;
position = "{689, 0}";
}
);
layerId = "D0000B7D-4744-4B9D-A6B4-49F65DE5F164";
paths = (
{
nodes = (
"40 380 LINE",
"207 380 LINE",
"207 540 LINE",
"740 540 LINE",
"740 700 LINE",
"40 700 LINE",
"40 518 LINE",
"40 518 LINE"
);
},
{
nodes = (
"740 320 LINE",
"573 320 LINE",
"573 160 LINE",
"40 160 LINE",
"40 0 LINE",
"740 0 LINE",
"740 182 LINE",
"740 182 LINE"
);
},
{
nodes = (
"325 467 OFFCURVE",
"273 415 OFFCURVE",
"273 350 CURVE SMOOTH",
"273 285 OFFCURVE",
"325 233 OFFCURVE",
"390 233 CURVE SMOOTH",
"455 233 OFFCURVE",
"507 285 OFFCURVE",
"507 350 CURVE SMOOTH",
"507 415 OFFCURVE",
"455 467 OFFCURVE",
"390 467 CURVE SMOOTH"
);
},
{
nodes = (
"368 310 OFFCURVE",
"350 328 OFFCURVE",
"350 350 CURVE SMOOTH",
"350 372 OFFCURVE",
"368 390 OFFCURVE",
"390 390 CURVE SMOOTH",
"412 390 OFFCURVE",
"430 372 OFFCURVE",
"430 350 CURVE SMOOTH",
"430 328 OFFCURVE",
"412 310 OFFCURVE",
"390 310 CURVE SMOOTH"
);
}
);
width = 780;
}
);
},
{
glyphname = registered;
layers = (
{
guideLines = (
{
position = "{0, 350}";
},
{
position = "{0, 400}";
},
{
position = "{0, 610}";
},
{
angle = 90;
position = "{116, 0}";
},
{
angle = 90;
position = "{270, 0}";
}
);
layerId = "D0000B7D-4744-4B9D-A6B4-49F65DE5F164";
paths = (
{
nodes = (
"125 400 LINE",
"125 610 LINE",
"239 610 LINE",
"263 576 LINE",
"263 525 LINE",
"239 492 LINE",
"269 423 LINE",
"269 400 LINE",
"223 400 LINE",
"195 479 LINE",
"172 479 LINE",
"172 400 LINE"
);
},
{
nodes = (
"172 564 LINE",
"172 526 LINE",
"209 526 LINE",
"217 536 LINE",
"217 553 LINE",
"209 564 LINE"
);
},
{
nodes = (
"20 328 LINE",
"20 682 LINE",
"38 700 LINE",
"348 700 LINE",
"366 682 LINE",
"366 328 LINE",
"348 310 LINE",
"38 310 LINE"
);
},
{
nodes = (
"316 360 LINE",
"316 650 LINE",
"70 650 LINE",
"70 360 LINE"
);
}
);
width = 386;
}
);
unicode = 00AE;
},
{
glyphname = copyright;
layers = (
{
guideLines = (
{
position = "{0, 560}";
},
{
position = "{0, 140}";
},
{
angle = 90;
position = "{226, 0}";
},
{
angle = 90;
position = "{506, 0}";
}
);
layerId = "D0000B7D-4744-4B9D-A6B4-49F65DE5F164";
paths = (
{
nodes = (
"226 560 LINE",
"226 140 LINE",
"458 140 LINE",
"506 207 LINE",
"506 254 LINE",
"418 254 LINE",
"403 233 LINE",
"319 233 LINE",
"319 467 LINE",
"403 467 LINE",
"418 446 LINE",
"506 446 LINE",
"506 493 LINE",
"458 560 LINE"
);
},
{
nodes = (
"56 -40 LINE",
"676 -40 LINE",
"712 -4 LINE",
"712 704 LINE",
"676 740 LINE",
"56 740 LINE",
"20 704 LINE",
"20 -4 LINE"
);
},
{
nodes = (
"120 60 LINE",
"120 640 LINE",
"612 640 LINE",
"612 60 LINE"
);
}
);
width = 732;
}
);
unicode = 00A9;
},
{
glyphname = currency;
layers = (
{
layerId = "D0000B7D-4744-4B9D-A6B4-49F65DE5F164";
paths = (
{
nodes = (
"59 431 LINE",
"59 286 LINE",
"94 251 LINE",
"239 251 LINE",
"274 286 LINE",
"274 431 LINE",
"239 466 LINE",
"94 466 LINE"
);
},
{
nodes = (
"129 396 LINE",
"204 396 LINE",
"204 321 LINE",
"129 321 LINE"
);
},
{
nodes = (
"239 466 LINE",
"274 431 LINE",
"308 465 LINE",
"308 475 LINE",
"283 500 LINE",
"273 500 LINE"
);
},
{
closed = 0;
nodes = (
"94 466 LINE",
"59 431 LINE"
);
},
{
nodes = (
"94 466 LINE",
"60 500 LINE",
"50 500 LINE",
"25 475 LINE",
"25 465 LINE",
"59 431 LINE"
);
},
{
closed = 0;
nodes = (
"59 286 LINE",
"94 251 LINE"
);
},
{
closed = 0;
nodes = (
"59 286 LINE",
"94 251 LINE"
);
},
{
nodes = (
"94 251 LINE",
"59 286 LINE",
"25 252 LINE",
"25 242 LINE",
"50 217 LINE",
"60 217 LINE"
);
},
{
closed = 0;
nodes = (
"239 251 LINE",
"274 286 LINE"
);
},
{
nodes = (
"239 251 LINE",
"273 217 LINE",
"283 217 LINE",
"308 242 LINE",
"308 252 LINE",
"274 286 LINE"
);
}
);
width = 333;
}
);
unicode = 00A4;
},
{
glyphname = zero.dnom;
layers = (
{
layerId = "D0000B7D-4744-4B9D-A6B4-49F65DE5F164";
paths = (
{
nodes = (
"20 353 LINE",
"68 420 LINE",
"272 420 LINE",
"320 353 LINE",
"320 67 LINE",
"272 0 LINE",
"68 0 LINE",
"20 67 LINE"
);
},
{
nodes = (
"113 306 LINE",
"113 114 LINE",
"128 93 LINE",
"212 93 LINE",
"227 114 LINE",
"227 306 LINE",
"212 327 LINE",
"128 327 LINE"
);
}
);
width = 340;
}
);
},
{
glyphname = one.dnom;
layers = (
{
layerId = "D0000B7D-4744-4B9D-A6B4-49F65DE5F164";
paths = (
{
nodes = (
"58 245 LINE",
"20 245 LINE",
"20 338 LINE",
"121 420 LINE",
"199 420 LINE",
"214 399 LINE",
"214 0 LINE",
"121 0 LINE",
"121 296 LINE"
);
}
);
width = 234;
}
);
},
{
glyphname = two.dnom;
layers = (
{
layerId = "D0000B7D-4744-4B9D-A6B4-49F65DE5F164";
paths = (
{
nodes = (
"113 293 LINE",
"20 293 LINE",
"20 353 LINE",
"68 420 LINE",
"286 420 LINE",
"301 399 LINE",
"301 256 LINE",
"148 93 LINE",
"286 93 LINE",
"301 72 LINE",
"301 0 LINE",
"20 0 LINE",
"20 93 LINE",
"208 293 LINE",
"208 327 LINE",
"134 327 LINE"
);
}
);
width = 321;
}
);
},
{
glyphname = three.dnom;
layers = (
{
layerId = "D0000B7D-4744-4B9D-A6B4-49F65DE5F164";
paths = (
{
nodes = (
"20 394 LINE",
"20 420 LINE",
"272 420 LINE",
"287 399 LINE",
"287 21 LINE",
"272 0 LINE",
"24 0 LINE",
"24 26 LINE",
"72 93 LINE",
"194 93 LINE",
"194 164 LINE",
"73 164 LINE",
"73 257 LINE",
"192 257 LINE",
"192 327 LINE",
"68 327 LINE"
);
}
);
width = 307;
}
);
},
{
glyphname = four.dnom;
layers = (
{
layerId = "D0000B7D-4744-4B9D-A6B4-49F65DE5F164";
paths = (
{
nodes = (
"151 420 LINE",
"258 420 LINE",
"273 399 LINE",
"273 172 LINE",
"303 172 LINE",
"318 151 LINE",
"318 79 LINE",
"273 79 LINE",
"273 0 LINE",
"180 0 LINE",
"180 79 LINE",
"35 79 LINE",
"20 100 LINE",
"20 202 LINE"
);
},
{
nodes = (
"180 289 LINE",
"119 188 LINE",
"119 173 LINE",
"180 173 LINE"
);
}
);
width = 338;
}
);
},
{
glyphname = five.dnom;
layers = (
{
layerId = "D0000B7D-4744-4B9D-A6B4-49F65DE5F164";
paths = (
{
nodes = (
"283 394 LINE",
"283 420 LINE",
"35 420 LINE",
"20 399 LINE",
"20 189 LINE",
"35 168 LINE",
"190 168 LINE",
"190 93 LINE",
"68 93 LINE",
"20 26 LINE",
"20 0 LINE",
"268 0 LINE",
"283 21 LINE",
"283 240 LINE",
"268 261 LINE",
"113 261 LINE",
"113 327 LINE",
"235 327 LINE"
);
}
);
width = 303;
}
);
},
{
glyphname = six.dnom;
layers = (
{
layerId = "D0000B7D-4744-4B9D-A6B4-49F65DE5F164";
paths = (
{
nodes = (
"298 353 LINE",
"250 420 LINE",
"35 420 LINE",
"20 399 LINE",
"20 21 LINE",
"35 0 LINE",
"283 0 LINE",
"298 21 LINE",
"298 213 LINE",
"283 234 LINE",
"113 234 LINE",
"113 327 LINE",
"199 327 LINE",
"226 291 LINE",
"298 291 LINE"
);
},
{
nodes = (
"128 153 LINE",
"190 153 LINE",
"205 132 LINE",
"205 114 LINE",
"190 93 LINE",
"128 93 LINE",
"113 114 LINE",
"113 132 LINE"
);
}
);
width = 318;
}
);
},
{
glyphname = seven.dnom;
layers = (
{
layerId = "D0000B7D-4744-4B9D-A6B4-49F65DE5F164";
paths = (
{
nodes = (
"20 394 LINE",
"20 420 LINE",
"260 420 LINE",
"275 399 LINE",
"275 325 LINE",
"172 0 LINE",
"79 0 LINE",
"79 47 LINE",
"168 327 LINE",
"68 327 LINE"
);
}
);
width = 295;
}
);
},
{
glyphname = eight.dnom;
layers = (
{
guideLines = (
{
angle = 90;
position = "{12, 0}";
},
{
angle = 90;
position = "{161, 0}";
}
);
layerId = "D0000B7D-4744-4B9D-A6B4-49F65DE5F164";
paths = (
{
nodes = (
"20 353 LINE",
"68 420 LINE",
"274 420 LINE",
"322 353 LINE",
"322 237 LINE",
"289 210 LINE",
"322 183 LINE",
"322 67 LINE",
"274 0 LINE",
"68 0 LINE",
"20 67 LINE",
"20 183 LINE",
"53 210 LINE",
"20 237 LINE"
);
},
{
nodes = (
"113 300 LINE",
"113 261 LINE",
"140 234 LINE",
"202 234 LINE",
"229 261 LINE",
"229 300 LINE",
"202 327 LINE",
"140 327 LINE"
);
},
{
nodes = (
"113 159 LINE",
"113 120 LINE",
"140 93 LINE",
"202 93 LINE",
"229 120 LINE",
"229 159 LINE",
"202 186 LINE",
"140 186 LINE"
);
}
);
width = 342;
}
);
},
{
glyphname = nine.dnom;
layers = (
{
layerId = "D0000B7D-4744-4B9D-A6B4-49F65DE5F164";
paths = (
{
nodes = (
"20 67 LINE",
"68 0 LINE",
"283 0 LINE",
"298 21 LINE",
"298 399 LINE",
"283 420 LINE",
"35 420 LINE",
"20 399 LINE",
"20 207 LINE",
"35 186 LINE",
"205 186 LINE",
"205 93 LINE",
"119 93 LINE",
"92 129 LINE",
"20 129 LINE"
);
},
{
nodes = (
"190 267 LINE",
"128 267 LINE",
"113 288 LINE",
"113 306 LINE",
"128 327 LINE",
"190 327 LINE",
"205 306 LINE",
"205 288 LINE"
);
}
);
width = 318;
}
);
},
{
glyphname = zero.numr;
layers = (
{
guideLines = (
{
position = "{0, 280}";
}
);
layerId = "D0000B7D-4744-4B9D-A6B4-49F65DE5F164";
paths = (
{
nodes = (
"20 633 LINE",
"68 700 LINE",
"272 700 LINE",
"320 633 LINE",
"320 347 LINE",
"272 280 LINE",
"68 280 LINE",
"20 347 LINE"
);
},
{
nodes = (
"113 586 LINE",
"113 394 LINE",
"128 373 LINE",
"212 373 LINE",
"227 394 LINE",
"227 586 LINE",
"212 607 LINE",
"128 607 LINE"
);
}
);
width = 340;
}
);
},
{
glyphname = one.numr;
layers = (
{
layerId = "D0000B7D-4744-4B9D-A6B4-49F65DE5F164";
paths = (
{
nodes = (
"58 525 LINE",
"20 525 LINE",
"20 618 LINE",
"121 700 LINE",
"199 700 LINE",
"214 679 LINE",
"214 280 LINE",
"121 280 LINE",
"121 576 LINE"
);
}
);
width = 234;
}
);
},
{
glyphname = two.numr;
layers = (
{
layerId = "D0000B7D-4744-4B9D-A6B4-49F65DE5F164";
paths = (
{
nodes = (
"113 573 LINE",
"20 573 LINE",
"20 633 LINE",
"68 700 LINE",
"286 700 LINE",
"301 679 LINE",
"301 536 LINE",
"148 373 LINE",
"286 373 LINE",
"301 352 LINE",
"301 280 LINE",
"20 280 LINE",
"20 373 LINE",
"208 573 LINE",
"208 607 LINE",
"134 607 LINE"
);
}
);
width = 321;
}
);
},
{
glyphname = three.numr;
layers = (
{
layerId = "D0000B7D-4744-4B9D-A6B4-49F65DE5F164";
paths = (
{
nodes = (
"20 674 LINE",
"20 700 LINE",
"272 700 LINE",
"287 679 LINE",
"287 301 LINE",
"272 280 LINE",
"24 280 LINE",
"24 306 LINE",
"72 373 LINE",
"194 373 LINE",
"194 444 LINE",
"73 444 LINE",
"73 537 LINE",
"192 537 LINE",
"192 607 LINE",
"68 607 LINE"
);
}
);
width = 307;
}
);
},
{
glyphname = four.numr;
layers = (
{
layerId = "D0000B7D-4744-4B9D-A6B4-49F65DE5F164";
paths = (
{
nodes = (
"151 700 LINE",
"258 700 LINE",
"273 679 LINE",
"273 452 LINE",
"303 452 LINE",
"318 431 LINE",
"318 359 LINE",
"273 359 LINE",
"273 280 LINE",
"180 280 LINE",
"180 359 LINE",
"35 359 LINE",
"20 380 LINE",
"20 482 LINE"
);
},
{
nodes = (
"180 569 LINE",
"119 468 LINE",
"119 453 LINE",
"180 453 LINE"
);
}
);
width = 338;
}
);
},
{
glyphname = five.numr;
layers = (
{
layerId = "D0000B7D-4744-4B9D-A6B4-49F65DE5F164";
paths = (
{
nodes = (
"283 674 LINE",
"283 700 LINE",
"35 700 LINE",
"20 679 LINE",
"20 469 LINE",
"35 448 LINE",
"190 448 LINE",
"190 373 LINE",
"68 373 LINE",
"20 306 LINE",
"20 280 LINE",
"268 280 LINE",
"283 301 LINE",
"283 520 LINE",
"268 541 LINE",
"113 541 LINE",
"113 607 LINE",
"235 607 LINE"
);
}
);
width = 303;
}
);
},
{
glyphname = six.numr;
layers = (
{
layerId = "D0000B7D-4744-4B9D-A6B4-49F65DE5F164";
paths = (
{
nodes = (
"298 633 LINE",
"250 700 LINE",
"35 700 LINE",
"20 679 LINE",
"20 301 LINE",
"35 280 LINE",
"283 280 LINE",
"298 301 LINE",
"298 493 LINE",
"283 514 LINE",
"113 514 LINE",
"113 607 LINE",
"199 607 LINE",
"226 571 LINE",
"298 571 LINE"
);
},
{
nodes = (
"128 433 LINE",
"190 433 LINE",
"205 412 LINE",
"205 394 LINE",
"190 373 LINE",
"128 373 LINE",
"113 394 LINE",
"113 412 LINE"
);
}
);
width = 318;
}
);
},
{
glyphname = seven.numr;
layers = (
{
layerId = "D0000B7D-4744-4B9D-A6B4-49F65DE5F164";
paths = (
{
nodes = (
"20 674 LINE",
"20 700 LINE",
"260 700 LINE",
"275 679 LINE",
"275 605 LINE",
"172 280 LINE",
"79 280 LINE",
"79 327 LINE",
"168 607 LINE",
"68 607 LINE"
);
}
);
width = 295;
}
);
},
{
glyphname = eight.numr;
layers = (
{
guideLines = (
{
angle = 90;
position = "{12, 0}";
},
{
angle = 90;
position = "{161, 0}";
}
);
layerId = "D0000B7D-4744-4B9D-A6B4-49F65DE5F164";
paths = (
{
nodes = (
"20 633 LINE",
"68 700 LINE",
"274 700 LINE",
"322 633 LINE",
"322 517 LINE",
"289 490 LINE",
"322 463 LINE",
"322 347 LINE",
"274 280 LINE",
"68 280 LINE",
"20 347 LINE",
"20 463 LINE",
"53 490 LINE",
"20 517 LINE"
);
},
{
nodes = (
"113 580 LINE",
"113 541 LINE",
"140 514 LINE",
"202 514 LINE",
"229 541 LINE",
"229 580 LINE",
"202 607 LINE",
"140 607 LINE"
);
},
{
nodes = (
"113 439 LINE",
"113 400 LINE",
"140 373 LINE",
"202 373 LINE",
"229 400 LINE",
"229 439 LINE",
"202 466 LINE",
"140 466 LINE"
);
}
);
width = 342;
}
);
},
{
glyphname = nine.numr;
layers = (
{
layerId = "D0000B7D-4744-4B9D-A6B4-49F65DE5F164";
paths = (
{
nodes = (
"20 347 LINE",
"68 280 LINE",
"283 280 LINE",
"298 301 LINE",
"298 679 LINE",
"283 700 LINE",
"35 700 LINE",
"20 679 LINE",
"20 487 LINE",
"35 466 LINE",
"205 466 LINE",
"205 373 LINE",
"119 373 LINE",
"92 409 LINE",
"20 409 LINE"
);
},
{
nodes = (
"190 547 LINE",
"128 547 LINE",
"113 568 LINE",
"113 586 LINE",
"128 607 LINE",
"190 607 LINE",
"205 586 LINE",
"205 568 LINE"
);
}
);
width = 318;
}
);
},
{
glyphname = sterling;
layers = (
{
guideLines = (
{
position = "{0, 119}";
},
{
angle = 90;
position = "{462, 0}";
},
{
angle = 90;
position = "{107, 0}";
},
{
position = "{0, 296}";
},
{
angle = 90;
position = "{40, 0}";
},
{
position = "{0, 545}";
}
);
layerId = "D0000B7D-4744-4B9D-A6B4-49F65DE5F164";
paths = (
{
nodes = (
"337 500 LINE",
"462 500 LINE",
"462 665 LINE",
"437 700 LINE",
"65 700 LINE",
"40 665 LINE",
"40 545 LINE",
"123 296 LINE",
"123 251 LINE",
"40 155 LINE",
"40 0 LINE",
"462 0 LINE",
"462 120 LINE",
"437 155 LINE",
"206 155 LINE",
"278 251 LINE",
"278 296 LINE",
"205 485 LINE",
"205 545 LINE",
"292 545 LINE"
);
},
{
nodes = (
"40 325 LINE",
"462 325 LINE",
"462 425 LINE",
"40 425 LINE"
);
}
);
width = 502;
}
);
unicode = 00A3;
},
{
glyphname = yen;
layers = (
{
layerId = "D0000B7D-4744-4B9D-A6B4-49F65DE5F164";
paths = (
{
nodes = (
"5 622 LINE",
"5 700 LINE",
"145 700 LINE",
"236 437 LINE",
"326 700 LINE",
"466 700 LINE",
"466 622 LINE",
"314 276 LINE",
"314 0 LINE",
"159 0 LINE",
"159 276 LINE"
);
},
{
nodes = (
"53 211 LINE",
"420 211 LINE",
"420 111 LINE",
"53 111 LINE"
);
},
{
nodes = (
"53 346 LINE",
"420 346 LINE",
"420 246 LINE",
"53 246 LINE"
);
}
);
width = 471;
}
);
unicode = 00A5;
},
{
glyphname = plus;
layers = (
{
layerId = "D0000B7D-4744-4B9D-A6B4-49F65DE5F164";
paths = (
{
nodes = (
"20 300 LINE",
"410 300 LINE",
"410 400 LINE",
"20 400 LINE"
);
},
{
nodes = (
"167 155 LINE",
"267 155 LINE",
"267 545 LINE",
"167 545 LINE"
);
}
);
width = 430;
}
);
unicode = 002B;
},
{
glyphname = minus;
layers = (
{
layerId = "D0000B7D-4744-4B9D-A6B4-49F65DE5F164";
paths = (
{
nodes = (
"20 300 LINE",
"410 300 LINE",
"410 400 LINE",
"20 400 LINE"
);
}
);
width = 430;
}
);
unicode = 2212;
},
{
glyphname = multiply;
layers = (
{
guideLines = (
{
position = "{0, 193}";
},
{
position = "{0, 468}";
},
{
position = "{0, 227}";
}
);
layerId = "D0000B7D-4744-4B9D-A6B4-49F65DE5F164";
paths = (
{
nodes = (
"326 170 LINE",
"390 247 LINE",
"88 500 LINE",
"24 423 LINE"
);
},
{
nodes = (
"84 170 LINE",
"386 423 LINE",
"322 500 LINE",
"20 247 LINE"
);
}
);
width = 410;
}
);
unicode = 00D7;
},
{
glyphname = divide;
layers = (
{
guideLines = (
{
angle = 90;
position = "{265, 0}";
}
);
layerId = "D0000B7D-4744-4B9D-A6B4-49F65DE5F164";
paths = (
{
nodes = (
"20 307 LINE",
"410 307 LINE",
"410 407 LINE",
"20 407 LINE"
);
},
{
nodes = (
"165 442 LINE",
"265 442 LINE",
"265 542 LINE",
"165 542 LINE"
);
},
{
nodes = (
"165 172 LINE",
"265 172 LINE",
"265 272 LINE",
"165 272 LINE"
);
}
);
width = 430;
}
);
unicode = 00F7;
},
{
glyphname = plusminus;
layers = (
{
layerId = "D0000B7D-4744-4B9D-A6B4-49F65DE5F164";
paths = (
{
nodes = (
"20 19 LINE",
"410 19 LINE",
"410 119 LINE",
"20 119 LINE"
);
},
{
nodes = (
"20 300 LINE",
"410 300 LINE",
"410 400 LINE",
"20 400 LINE"
);
},
{
nodes = (
"167 155 LINE",
"267 155 LINE",
"267 545 LINE",
"167 545 LINE"
);
}
);
width = 430;
}
);
unicode = 00B1;
},
{
glyphname = radical;
layers = (
{
layerId = "D0000B7D-4744-4B9D-A6B4-49F65DE5F164";
paths = (
{
nodes = (
"194 389 LINE",
"45 389 LINE",
"20 354 LINE",
"20 289 LINE",
"120 289 LINE",
"216 0 LINE",
"403 0 LINE",
"514 800 LINE",
"794 800 LINE",
"794 865 LINE",
"769 900 LINE",
"426 900 LINE",
"316 100 LINE",
"286 100 LINE"
);
}
);
width = 534;
}
);
unicode = 221A;
},
{
glyphname = summation;
layers = (
{
guideLines = (
{
angle = 90;
position = "{443, 0}";
},
{
position = "{0, 512}";
},
{
position = "{0, 600}";
},
{
position = "{0, 100}";
},
{
angle = 90;
position = "{20, 0}";
}
);
layerId = "D0000B7D-4744-4B9D-A6B4-49F65DE5F164";
paths = (
{
nodes = (
"365 600 LINE",
"390 635 LINE",
"390 700 LINE",
"20 700 LINE",
"20 600 LINE",
"151 345 LINE",
"20 100 LINE",
"20 0 LINE",
"390 0 LINE",
"390 65 LINE",
"365 100 LINE",
"134 100 LINE",
"264 345 LINE",
"133 600 LINE"
);
}
);
width = 410;
}
);
unicode = 2211;
},
{
glyphname = brokenbar;
layers = (
{
guideLines = (
{
angle = 90;
position = "{71, 0}";
},
{
position = "{0, 314}";
}
);
layerId = "D0000B7D-4744-4B9D-A6B4-49F65DE5F164";
paths = (
{
nodes = (
"20 388 LINE",
"120 388 LINE",
"120 738 LINE",
"20 738 LINE"
);
},
{
nodes = (
"20 -36 LINE",
"120 -36 LINE",
"120 314 LINE",
"20 314 LINE"
);
}
);
width = 140;
}
);
unicode = 00A6;
},
{
glyphname = ellipsis;
layers = (
{
layerId = "D0000B7D-4744-4B9D-A6B4-49F65DE5F164";
paths = (
{
nodes = (
"25 0 LINE",
"145 0 LINE",
"145 120 LINE",
"25 120 LINE"
);
},
{
nodes = (
"195 0 LINE",
"315 0 LINE",
"315 120 LINE",
"195 120 LINE"
);
},
{
nodes = (
"365 0 LINE",
"485 0 LINE",
"485 120 LINE",
"365 120 LINE"
);
}
);
width = 510;
}
);
unicode = 2026;
},
{
glyphname = degree;
layers = (
{
layerId = "D0000B7D-4744-4B9D-A6B4-49F65DE5F164";
paths = (
{
nodes = (
"50 500 LINE",
"200 500 LINE",
"225 525 LINE",
"225 675 LINE",
"200 700 LINE",
"50 700 LINE",
"25 675 LINE",
"25 525 LINE"
);
},
{
nodes = (
"105 565 LINE",
"90 580 LINE",
"90 620 LINE",
"105 635 LINE",
"145 635 LINE",
"160 620 LINE",
"160 580 LINE",
"145 565 LINE"
);
}
);
width = 250;
}
);
unicode = 00B0;
},
{
glyphname = fraction;
layers = (
{
layerId = "D0000B7D-4744-4B9D-A6B4-49F65DE5F164";
paths = (
{
nodes = (
"383 690 LINE",
"383 700 LINE",
"301 700 LINE",
"-25 10 LINE",
"-25 0 LINE",
"61 0 LINE"
);
}
);
width = 358;
}
);
unicode = 2044;
},
{
glyphname = onequarter;
layers = (
{
guideLines = (
{
position = "{0, 350}";
},
{
angle = 90;
position = "{202, 0}";
},
{
angle = 90;
position = "{301, 0}";
}
);
layerId = "D0000B7D-4744-4B9D-A6B4-49F65DE5F164";
paths = (
{
nodes = (
"495 690 LINE",
"495 700 LINE",
"413 700 LINE",
"87 10 LINE",
"87 0 LINE",
"173 0 LINE"
);
},
{
nodes = (
"124 597 LINE",
"124 350 LINE",
"202 350 LINE",
"202 683 LINE",
"189 700 LINE",
"124 700 LINE",
"40 632 LINE",
"40 555 LINE",
"72 555 LINE"
);
},
{
nodes = (
"301 169 LINE",
"301 84 LINE",
"314 66 LINE",
"435 66 LINE",
"435 0 LINE",
"512 0 LINE",
"512 66 LINE",
"550 66 LINE",
"550 126 LINE",
"537 144 LINE",
"512 144 LINE",
"512 333 LINE",
"500 350 LINE",
"411 350 LINE"
);
},
{
nodes = (
"435 144 LINE",
"384 144 LINE",
"384 157 LINE",
"435 241 LINE"
);
}
);
width = 590;
}
);
unicode = 00BC;
},
{
glyphname = onehalf;
layers = (
{
guideLines = (
{
position = "{0, 350}";
},
{
angle = 90;
position = "{362, 0}";
},
{
angle = 90;
position = "{202, 0}";
}
);
layerId = "D0000B7D-4744-4B9D-A6B4-49F65DE5F164";
paths = (
{
nodes = (
"495 690 LINE",
"495 700 LINE",
"413 700 LINE",
"87 10 LINE",
"87 0 LINE",
"173 0 LINE"
);
},
{
nodes = (
"457 273 LINE",
"519 273 LINE",
"519 245 LINE",
"362 78 LINE",
"362 0 LINE",
"597 0 LINE",
"597 60 LINE",
"584 78 LINE",
"469 78 LINE",
"597 214 LINE",
"597 333 LINE",
"584 350 LINE",
"402 350 LINE",
"362 294 LINE",
"362 245 LINE",
"440 245 LINE"
);
},
{
nodes = (
"124 597 LINE",
"124 350 LINE",
"202 350 LINE",
"202 683 LINE",
"189 700 LINE",
"124 700 LINE",
"40 632 LINE",
"40 555 LINE",
"72 555 LINE"
);
}
);
width = 637;
}
);
unicode = 00BD;
},
{
glyphname = threequarters;
layers = (
{
guideLines = (
{
position = "{0, 350}";
},
{
angle = 90;
position = "{263, 0}";
},
{
angle = 90;
position = "{350, 0}";
}
);
layerId = "D0000B7D-4744-4B9D-A6B4-49F65DE5F164";
paths = (
{
nodes = (
"545 690 LINE",
"545 700 LINE",
"463 700 LINE",
"137 10 LINE",
"137 0 LINE",
"223 0 LINE"
);
},
{
nodes = (
"40 679 LINE",
"40 700 LINE",
"250 700 LINE",
"263 683 LINE",
"263 368 LINE",
"250 350 LINE",
"43 350 LINE",
"43 372 LINE",
"83 428 LINE",
"185 428 LINE",
"185 487 LINE",
"84 487 LINE",
"84 564 LINE",
"184 564 LINE",
"184 623 LINE",
"80 623 LINE"
);
},
{
nodes = (
"350 169 LINE",
"350 84 LINE",
"363 66 LINE",
"484 66 LINE",
"484 0 LINE",
"561 0 LINE",
"561 66 LINE",
"599 66 LINE",
"599 126 LINE",
"586 144 LINE",
"561 144 LINE",
"561 333 LINE",
"549 350 LINE",
"460 350 LINE"
);
},
{
nodes = (
"484 144 LINE",
"433 144 LINE",
"433 157 LINE",
"484 241 LINE"
);
}
);
width = 639;
}
);
unicode = 00BE;
},
{
glyphname = oneeighth;
layers = (
{
guideLines = (
{
position = "{0, 350}";
},
{
angle = 90;
position = "{365, 0}";
},
{
angle = 90;
position = "{202, 0}";
}
);
layerId = "D0000B7D-4744-4B9D-A6B4-49F65DE5F164";
paths = (
{
nodes = (
"493 690 LINE",
"493 700 LINE",
"411 700 LINE",
"85 10 LINE",
"85 0 LINE",
"171 0 LINE"
);
},
{
nodes = (
"365 198 LINE",
"393 175 LINE",
"365 153 LINE",
"365 56 LINE",
"405 0 LINE",
"577 0 LINE",
"617 56 LINE",
"617 153 LINE",
"589 175 LINE",
"617 198 LINE",
"617 294 LINE",
"577 350 LINE",
"405 350 LINE",
"365 294 LINE"
);
},
{
nodes = (
"465 273 LINE",
"517 273 LINE",
"539 250 LINE",
"539 218 LINE",
"517 195 LINE",
"465 195 LINE",
"443 218 LINE",
"443 250 LINE"
);
},
{
nodes = (
"465 155 LINE",
"517 155 LINE",
"539 133 LINE",
"539 100 LINE",
"517 78 LINE",
"465 78 LINE",
"443 100 LINE",
"443 133 LINE"
);
},
{
nodes = (
"124 597 LINE",
"124 350 LINE",
"202 350 LINE",
"202 683 LINE",
"189 700 LINE",
"124 700 LINE",
"40 632 LINE",
"40 555 LINE",
"72 555 LINE"
);
}
);
width = 657;
}
);
unicode = 215B;
},
{
glyphname = threeeighths;
layers = (
{
guideLines = (
{
angle = 90;
position = "{692, 0}";
},
{
angle = 90;
position = "{841, 0}";
},
{
position = "{0, 350}";
},
{
angle = 90;
position = "{263, 0}";
},
{
angle = 90;
position = "{414, 0}";
}
);
layerId = "D0000B7D-4744-4B9D-A6B4-49F65DE5F164";
paths = (
{
nodes = (
"543 690 LINE",
"543 700 LINE",
"461 700 LINE",
"135 10 LINE",
"135 0 LINE",
"221 0 LINE"
);
},
{
nodes = (
"80 623 LINE",
"184 623 LINE",
"184 564 LINE",
"84 564 LINE",
"84 487 LINE",
"185 487 LINE",
"185 428 LINE",
"83 428 LINE",
"43 372 LINE",
"43 350 LINE",
"250 350 LINE",
"263 368 LINE",
"263 683 LINE",
"250 700 LINE",
"40 700 LINE",
"40 679 LINE"
);
},
{
nodes = (
"414 198 LINE",
"442 175 LINE",
"414 153 LINE",
"414 56 LINE",
"454 0 LINE",
"626 0 LINE",
"666 56 LINE",
"666 153 LINE",
"638 175 LINE",
"666 198 LINE",
"666 294 LINE",
"626 350 LINE",
"454 350 LINE",
"414 294 LINE"
);
},
{
nodes = (
"514 273 LINE",
"566 273 LINE",
"588 250 LINE",
"588 218 LINE",
"566 195 LINE",
"514 195 LINE",
"492 218 LINE",
"492 250 LINE"
);
},
{
nodes = (
"514 155 LINE",
"566 155 LINE",
"588 133 LINE",
"588 100 LINE",
"566 78 LINE",
"514 78 LINE",
"492 100 LINE",
"492 133 LINE"
);
}
);
width = 706;
}
);
unicode = 215C;
},
{
glyphname = fiveeighths;
layers = (
{
guideLines = (
{
angle = 90;
position = "{707, 0}";
showMeasurement = 1;
},
{
angle = 90;
position = "{856, 0}";
},
{
angle = 90;
position = "{260, 0}";
},
{
angle = 90;
position = "{414, 0}";
},
{
position = "{0, 350}";
}
);
layerId = "D0000B7D-4744-4B9D-A6B4-49F65DE5F164";
paths = (
{
nodes = (
"544 690 LINE",
"544 700 LINE",
"462 700 LINE",
"136 10 LINE",
"136 0 LINE",
"222 0 LINE"
);
},
{
nodes = (
"260 679 LINE",
"260 700 LINE",
"53 700 LINE",
"40 683 LINE",
"40 508 LINE",
"53 490 LINE",
"182 490 LINE",
"182 428 LINE",
"80 428 LINE",
"40 372 LINE",
"40 350 LINE",
"247 350 LINE",
"260 368 LINE",
"260 550 LINE",
"247 568 LINE",
"118 568 LINE",
"118 623 LINE",
"220 623 LINE"
);
},
{
nodes = (
"414 198 LINE",
"442 175 LINE",
"414 153 LINE",
"414 56 LINE",
"454 0 LINE",
"626 0 LINE",
"666 56 LINE",
"666 153 LINE",
"638 175 LINE",
"666 198 LINE",
"666 294 LINE",
"626 350 LINE",
"454 350 LINE",
"414 294 LINE"
);
},
{
nodes = (
"514 273 LINE",
"566 273 LINE",
"588 250 LINE",
"588 218 LINE",
"566 195 LINE",
"514 195 LINE",
"492 218 LINE",
"492 250 LINE"
);
},
{
nodes = (
"514 155 LINE",
"566 155 LINE",
"588 133 LINE",
"588 100 LINE",
"566 78 LINE",
"514 78 LINE",
"492 100 LINE",
"492 133 LINE"
);
}
);
width = 706;
}
);
unicode = 215D;
},
{
glyphname = seveneighths;
layers = (
{
guideLines = (
{
angle = 90;
position = "{359, 0}";
},
{
position = "{0, 350}";
},
{
angle = 90;
position = "{252, 0}";
}
);
layerId = "D0000B7D-4744-4B9D-A6B4-49F65DE5F164";
paths = (
{
nodes = (
"479 690 LINE",
"479 700 LINE",
"397 700 LINE",
"71 10 LINE",
"71 0 LINE",
"157 0 LINE"
);
},
{
nodes = (
"359 198 LINE",
"387 175 LINE",
"359 153 LINE",
"359 56 LINE",
"399 0 LINE",
"571 0 LINE",
"611 56 LINE",
"611 153 LINE",
"583 175 LINE",
"611 198 LINE",
"611 294 LINE",
"571 350 LINE",
"399 350 LINE",
"359 294 LINE"
);
},
{
nodes = (
"459 273 LINE",
"511 273 LINE",
"533 250 LINE",
"533 218 LINE",
"511 195 LINE",
"459 195 LINE",
"437 218 LINE",
"437 250 LINE"
);
},
{
nodes = (
"459 155 LINE",
"511 155 LINE",
"533 133 LINE",
"533 100 LINE",
"511 78 LINE",
"459 78 LINE",
"437 100 LINE",
"437 133 LINE"
);
},
{
nodes = (
"80 623 LINE",
"163 623 LINE",
"89 389 LINE",
"89 350 LINE",
"167 350 LINE",
"252 621 LINE",
"252 683 LINE",
"240 700 LINE",
"40 700 LINE",
"40 679 LINE"
);
}
);
width = 651;
}
);
unicode = 215E;
},
{
glyphname = percent;
layers = (
{
layerId = "D0000B7D-4744-4B9D-A6B4-49F65DE5F164";
paths = (
{
nodes = (
"522 690 LINE",
"522 700 LINE",
"419 700 LINE",
"93 10 LINE",
"93 0 LINE",
"200 0 LINE"
);
},
{
nodes = (
"65 463 LINE",
"252 463 LINE",
"277 498 LINE",
"277 665 LINE",
"252 700 LINE",
"65 700 LINE",
"40 665 LINE",
"40 498 LINE"
);
},
{
nodes = (
"125 548 LINE",
"125 615 LINE",
"192 615 LINE",
"192 548 LINE"
);
},
{
nodes = (
"362 0 LINE",
"549 0 LINE",
"574 35 LINE",
"574 202 LINE",
"549 237 LINE",
"362 237 LINE",
"337 202 LINE",
"337 35 LINE"
);
},
{
nodes = (
"422 85 LINE",
"422 152 LINE",
"489 152 LINE",
"489 85 LINE"
);
}
);
width = 614;
}
);
unicode = 0025;
},
{
glyphname = perthousand;
layers = (
{
guideLines = (
{
position = "{0, 35}";
}
);
layerId = "D0000B7D-4744-4B9D-A6B4-49F65DE5F164";
paths = (
{
nodes = (
"522 690 LINE",
"522 700 LINE",
"419 700 LINE",
"93 10 LINE",
"93 0 LINE",
"200 0 LINE"
);
},
{
nodes = (
"65 463 LINE",
"252 463 LINE",
"277 498 LINE",
"277 665 LINE",
"252 700 LINE",
"65 700 LINE",
"40 665 LINE",
"40 498 LINE"
);
},
{
nodes = (
"125 548 LINE",
"125 615 LINE",
"192 615 LINE",
"192 548 LINE"
);
},
{
nodes = (
"362 0 LINE",
"549 0 LINE",
"574 35 LINE",
"574 202 LINE",
"549 237 LINE",
"362 237 LINE",
"337 202 LINE",
"337 35 LINE"
);
},
{
nodes = (
"422 85 LINE",
"422 152 LINE",
"489 152 LINE",
"489 85 LINE"
);
},
{
nodes = (
"634 0 LINE",
"821 0 LINE",
"846 35 LINE",
"846 202 LINE",
"821 237 LINE",
"634 237 LINE",
"609 202 LINE",
"609 35 LINE"
);
},
{
nodes = (
"694 85 LINE",
"694 152 LINE",
"761 152 LINE",
"761 85 LINE"
);
}
);
width = 886;
}
);
unicode = 2030;
},
{
glyphname = paragraph;
layers = (
{
layerId = "D0000B7D-4744-4B9D-A6B4-49F65DE5F164";
paths = (
{
nodes = (
"331 0 LINE",
"381 0 LINE",
"381 700 LINE",
"331 700 LINE"
);
},
{
nodes = (
"236 0 LINE",
"286 0 LINE",
"286 700 LINE",
"65 700 LINE",
"40 665 LINE",
"40 414 LINE",
"65 379 LINE",
"236 379 LINE"
);
}
);
width = 421;
}
);
unicode = 00B6;
},
{
glyphname = section;
layers = (
{
guideLines = (
{
angle = 90;
position = "{65, 0}";
},
{
position = "{0, 203}";
},
{
angle = 90;
position = "{393, 0}";
},
{
angle = 90;
position = "{40, 0}";
},
{
angle = 90;
position = "{368, 0}";
}
);
layerId = "D0000B7D-4744-4B9D-A6B4-49F65DE5F164";
paths = (
{
nodes = (
"393 620 LINE",
"337 700 LINE",
"83 700 LINE",
"65 675 LINE",
"65 544 LINE",
"291 313 LINE",
"200 313 LINE",
"200 203 LINE",
"376 203 LINE",
"393 228 LINE",
"393 359 LINE",
"170 590 LINE",
"287 590 LINE",
"305 565 LINE",
"393 565 LINE"
);
},
{
nodes = (
"259 497 LINE",
"58 497 LINE",
"40 472 LINE",
"40 341 LINE",
"266 110 LINE",
"149 110 LINE",
"131 135 LINE",
"40 135 LINE",
"40 80 LINE",
"97 0 LINE",
"351 0 LINE",
"368 25 LINE",
"368 156 LINE",
"145 387 LINE",
"259 387 LINE"
);
}
);
width = 433;
}
);
unicode = 00A7;
},
{
glyphname = dagger;
layers = (
{
guideLines = (
{
position = "{0, 555}";
},
{
position = "{0, 505}";
},
{
angle = 90;
position = "{20, 0}";
}
);
layerId = "D0000B7D-4744-4B9D-A6B4-49F65DE5F164";
paths = (
{
nodes = (
"213 0 LINE",
"313 0 LINE",
"313 400 LINE",
"506 400 LINE",
"506 500 LINE",
"313 500 LINE",
"313 700 LINE",
"213 700 LINE",
"213 500 LINE",
"20 500 LINE",
"20 400 LINE",
"213 400 LINE"
);
}
);
width = 526;
}
);
unicode = 2020;
},
{
glyphname = daggerdbl;
layers = (
{
guideLines = (
{
angle = 90;
position = "{20, 0}";
},
{
angle = 90;
position = "{500, 0}";
},
{
position = "{0, 177}";
},
{
position = "{0, 127}";
}
);
layerId = "D0000B7D-4744-4B9D-A6B4-49F65DE5F164";
paths = (
{
nodes = (
"213 0 LINE",
"313 0 LINE",
"313 400 LINE",
"506 400 LINE",
"506 500 LINE",
"313 500 LINE",
"313 700 LINE",
"213 700 LINE",
"213 500 LINE",
"20 500 LINE",
"20 400 LINE",
"213 400 LINE"
);
},
{
nodes = (
"20 200 LINE",
"500 200 LINE",
"500 300 LINE",
"20 300 LINE"
);
}
);
width = 526;
}
);
unicode = 2021;
},
{
glyphname = asciitilde;
layers = (
{
layerId = "D0000B7D-4744-4B9D-A6B4-49F65DE5F164";
paths = (
{
nodes = (
"63 277 LINE",
"25 277 LINE",
"25 347 LINE",
"160 416 LINE",
"341 353 LINE",
"409 387 LINE",
"434 387 LINE",
"434 317 LINE",
"341 277 LINE",
"160 340 LINE"
);
}
);
width = 459;
}
);
unicode = 007E;
},
{
glyphname = guilsinglleft;
layers = (
{
layerId = "D0000B7D-4744-4B9D-A6B4-49F65DE5F164";
paths = (
{
nodes = (
"240 118 LINE",
"25 288 LINE",
"25 365 LINE",
"240 535 LINE",
"240 437 LINE",
"125 350 LINE",
"125 303 LINE",
"240 216 LINE"
);
}
);
width = 265;
}
);
unicode = 2039;
},
{
glyphname = guilsinglright;
layers = (
{
layerId = "D0000B7D-4744-4B9D-A6B4-49F65DE5F164";
paths = (
{
nodes = (
"25 118 LINE",
"25 216 LINE",
"140 303 LINE",
"140 350 LINE",
"25 437 LINE",
"25 535 LINE",
"240 365 LINE",
"240 288 LINE"
);
}
);
width = 265;
}
);
unicode = 203A;
},
{
glyphname = guillemotleft;
layers = (
{
layerId = "D0000B7D-4744-4B9D-A6B4-49F65DE5F164";
paths = (
{
nodes = (
"240 118 LINE",
"25 288 LINE",
"25 365 LINE",
"240 535 LINE",
"240 437 LINE",
"125 350 LINE",
"125 303 LINE",
"240 216 LINE"
);
},
{
nodes = (
"445 118 LINE",
"230 288 LINE",
"230 365 LINE",
"445 535 LINE",
"445 437 LINE",
"330 350 LINE",
"330 303 LINE",
"445 216 LINE"
);
}
);
width = 470;
}
);
unicode = 00AB;
},
{
glyphname = guillemotright;
layers = (
{
layerId = "D0000B7D-4744-4B9D-A6B4-49F65DE5F164";
paths = (
{
nodes = (
"230 118 LINE",
"230 216 LINE",
"345 303 LINE",
"345 350 LINE",
"230 437 LINE",
"230 535 LINE",
"445 365 LINE",
"445 288 LINE"
);
},
{
nodes = (
"25 118 LINE",
"25 216 LINE",
"140 303 LINE",
"140 350 LINE",
"25 437 LINE",
"25 535 LINE",
"240 365 LINE",
"240 288 LINE"
);
}
);
width = 470;
}
);
unicode = 00BB;
},
{
glyphname = dotaccent;
layers = (
{
layerId = "D0000B7D-4744-4B9D-A6B4-49F65DE5F164";
paths = (
{
nodes = (
"50 780 LINE",
"120 780 LINE",
"145 805 LINE",
"145 875 LINE",
"120 900 LINE",
"50 900 LINE",
"25 875 LINE",
"25 805 LINE"
);
}
);
width = 170;
}
);
unicode = 02D9;
},
{
glyphname = ring;
layers = (
{
layerId = "D0000B7D-4744-4B9D-A6B4-49F65DE5F164";
paths = (
{
nodes = (
"20 850 LINE",
"43 883 LINE",
"142 883 LINE",
"165 850 LINE",
"165 771 LINE",
"142 738 LINE",
"43 738 LINE",
"20 771 LINE"
);
},
{
nodes = (
"65 827 LINE",
"65 793 LINE",
"72 783 LINE",
"113 783 LINE",
"120 793 LINE",
"120 827 LINE",
"113 838 LINE",
"72 838 LINE"
);
}
);
width = 185;
}
);
unicode = 02DA;
},
{
glyphname = hungarumlaut;
layers = (
{
layerId = "D0000B7D-4744-4B9D-A6B4-49F65DE5F164";
paths = (
{
nodes = (
"69 903 LINE",
"134 903 LINE",
"134 846 LINE",
"81 738 LINE",
"20 738 LINE",
"20 757 LINE",
"69 848 LINE"
);
},
{
nodes = (
"171 903 LINE",
"236 903 LINE",
"236 846 LINE",
"183 738 LINE",
"122 738 LINE",
"122 757 LINE",
"171 848 LINE"
);
}
);
width = 256;
}
);
unicode = 02DD;
},
{
glyphname = ogonek;
layers = (
{
layerId = "D0000B7D-4744-4B9D-A6B4-49F65DE5F164";
paths = (
{
nodes = (
"142 -73 LINE",
"133 -95 LINE",
"93 -95 LINE",
"93 -73 LINE",
"139 0 LINE",
"70 0 LINE",
"25 -77 LINE",
"25 -141 LINE",
"35 -155 LINE",
"171 -155 LINE",
"195 -110 LINE",
"195 -73 LINE"
);
}
);
width = 220;
}
);
unicode = 02DB;
},
{
glyphname = caron;
layers = (
{
layerId = "D0000B7D-4744-4B9D-A6B4-49F65DE5F164";
paths = (
{
nodes = (
"20 868 LINE",
"20 807 LINE",
"95 737 LINE",
"211 737 LINE",
"286 807 LINE",
"286 868 LINE",
"251 868 LINE",
"180 800 LINE",
"123 800 LINE",
"55 868 LINE"
);
}
);
width = 306;
}
);
unicode = 02C7;
},
{
glyphname = uni03060301;
layers = (
{
guideLines = (
{
angle = 90;
position = "{99, 0}";
}
);
layerId = "D0000B7D-4744-4B9D-A6B4-49F65DE5F164";
paths = (
{
nodes = (
"45 965 LINE",
"45 900 LINE",
"105 900 LINE",
"404 961 LINE",
"404 1006 LINE",
"105 984 LINE"
);
},
{
nodes = (
"20 812 LINE",
"99 738 LINE",
"350 738 LINE",
"429 812 LINE",
"429 862 LINE",
"356 862 LINE",
"301 815 LINE",
"148 815 LINE",
"93 862 LINE",
"20 862 LINE"
);
}
);
width = 449;
}
);
},
{
glyphname = uni03060300;
layers = (
{
layerId = "D0000B7D-4744-4B9D-A6B4-49F65DE5F164";
paths = (
{
nodes = (
"45 941 LINE",
"105 922 LINE",
"404 900 LINE",
"404 945 LINE",
"105 1006 LINE",
"45 1006 LINE"
);
},
{
nodes = (
"20 812 LINE",
"99 738 LINE",
"350 738 LINE",
"429 812 LINE",
"429 862 LINE",
"356 862 LINE",
"301 815 LINE",
"148 815 LINE",
"93 862 LINE",
"20 862 LINE"
);
}
);
width = 449;
}
);
},
{
glyphname = uni03060309;
layers = (
{
layerId = "D0000B7D-4744-4B9D-A6B4-49F65DE5F164";
paths = (
{
nodes = (
"20 862 LINE",
"93 862 LINE",
"148 815 LINE",
"301 815 LINE",
"356 862 LINE",
"429 862 LINE",
"429 812 LINE",
"350 738 LINE",
"99 738 LINE",
"20 812 LINE"
);
},
{
nodes = (
"137 941 LINE",
"137 979 LINE",
"167 1024 LINE",
"298 1024 LINE",
"333 979 LINE",
"274 898 LINE",
"274 862 LINE",
"214 862 LINE",
"214 916 LINE",
"252 957 LINE",
"248 964 LINE",
"206 964 LINE",
"192 941 LINE"
);
}
);
width = 449;
}
);
},
{
glyphname = uni03060303;
layers = (
{
layerId = "D0000B7D-4744-4B9D-A6B4-49F65DE5F164";
paths = (
{
nodes = (
"20 862 LINE",
"93 862 LINE",
"148 815 LINE",
"301 815 LINE",
"356 862 LINE",
"429 862 LINE",
"429 812 LINE",
"350 738 LINE",
"99 738 LINE",
"20 812 LINE"
);
},
{
nodes = (
"58 900 LINE",
"23 900 LINE",
"23 970 LINE",
"158 1039 LINE",
"339 976 LINE",
"407 1010 LINE",
"432 1010 LINE",
"432 940 LINE",
"339 900 LINE",
"158 963 LINE"
);
}
);
width = 452;
}
);
},
{
glyphname = uni03020301;
layers = (
{
layerId = "D0000B7D-4744-4B9D-A6B4-49F65DE5F164";
paths = (
{
nodes = (
"45 965 LINE",
"45 900 LINE",
"105 900 LINE",
"404 961 LINE",
"404 1006 LINE",
"105 984 LINE"
);
},
{
nodes = (
"20 738 LINE",
"93 738 LINE",
"148 785 LINE",
"301 785 LINE",
"356 738 LINE",
"429 738 LINE",
"429 788 LINE",
"350 862 LINE",
"99 862 LINE",
"20 788 LINE"
);
}
);
width = 449;
}
);
},
{
glyphname = uni03020300;
layers = (
{
layerId = "D0000B7D-4744-4B9D-A6B4-49F65DE5F164";
paths = (
{
nodes = (
"45 941 LINE",
"105 922 LINE",
"404 900 LINE",
"404 945 LINE",
"105 1006 LINE",
"45 1006 LINE"
);
},
{
nodes = (
"20 738 LINE",
"93 738 LINE",
"148 785 LINE",
"301 785 LINE",
"356 738 LINE",
"429 738 LINE",
"429 788 LINE",
"350 862 LINE",
"99 862 LINE",
"20 788 LINE"
);
}
);
width = 449;
}
);
},
{
glyphname = uni03020309;
layers = (
{
layerId = "D0000B7D-4744-4B9D-A6B4-49F65DE5F164";
paths = (
{
nodes = (
"20 738 LINE",
"93 738 LINE",
"148 785 LINE",
"301 785 LINE",
"356 738 LINE",
"429 738 LINE",
"429 788 LINE",
"350 862 LINE",
"99 862 LINE",
"20 788 LINE"
);
},
{
nodes = (
"192 979 LINE",
"206 1002 LINE",
"248 1002 LINE",
"252 995 LINE",
"214 954 LINE",
"214 900 LINE",
"274 900 LINE",
"274 936 LINE",
"333 1017 LINE",
"298 1062 LINE",
"167 1062 LINE",
"137 1017 LINE",
"137 979 LINE"
);
}
);
width = 449;
}
);
},
{
glyphname = uni03020303;
layers = (
{
layerId = "D0000B7D-4744-4B9D-A6B4-49F65DE5F164";
paths = (
{
nodes = (
"20 738 LINE",
"93 738 LINE",
"148 785 LINE",
"301 785 LINE",
"356 738 LINE",
"429 738 LINE",
"429 788 LINE",
"350 862 LINE",
"99 862 LINE",
"20 788 LINE"
);
},
{
nodes = (
"158 963 LINE",
"339 900 LINE",
"432 940 LINE",
"432 1010 LINE",
"407 1010 LINE",
"339 976 LINE",
"158 1039 LINE",
"23 970 LINE",
"23 900 LINE",
"58 900 LINE"
);
}
);
width = 452;
}
);
},
{
glyphname = tilde;
layers = (
{
layerId = "D0000B7D-4744-4B9D-A6B4-49F65DE5F164";
paths = (
{
nodes = (
"55 738 LINE",
"20 738 LINE",
"20 808 LINE",
"155 877 LINE",
"336 814 LINE",
"404 848 LINE",
"429 848 LINE",
"429 778 LINE",
"336 738 LINE",
"155 801 LINE"
);
}
);
width = 449;
}
);
unicode = 02DC;
},
{
glyphname = grave;
layers = (
{
layerId = "D0000B7D-4744-4B9D-A6B4-49F65DE5F164";
paths = (
{
nodes = (
"20 779 LINE",
"80 760 LINE",
"379 738 LINE",
"379 783 LINE",
"80 844 LINE",
"20 844 LINE"
);
}
);
width = 399;
}
);
unicode = 0060;
},
{
glyphname = acute;
layers = (
{
layerId = "D0000B7D-4744-4B9D-A6B4-49F65DE5F164";
paths = (
{
nodes = (
"20 803 LINE",
"20 738 LINE",
"80 738 LINE",
"379 799 LINE",
"379 844 LINE",
"80 822 LINE"
);
}
);
width = 399;
}
);
unicode = 00B4;
},
{
glyphname = breve;
layers = (
{
layerId = "D0000B7D-4744-4B9D-A6B4-49F65DE5F164";
paths = (
{
nodes = (
"20 862 LINE",
"93 862 LINE",
"148 815 LINE",
"301 815 LINE",
"356 862 LINE",
"429 862 LINE",
"429 812 LINE",
"350 738 LINE",
"99 738 LINE",
"20 812 LINE"
);
}
);
width = 449;
}
);
unicode = 02D8;
},
{
glyphname = circumflex;
layers = (
{
layerId = "D0000B7D-4744-4B9D-A6B4-49F65DE5F164";
paths = (
{
nodes = (
"20 738 LINE",
"20 788 LINE",
"99 862 LINE",
"350 862 LINE",
"429 788 LINE",
"429 738 LINE",
"356 738 LINE",
"301 785 LINE",
"148 785 LINE",
"93 738 LINE"
);
}
);
width = 449;
}
);
unicode = 02C6;
},
{
glyphname = dieresis;
layers = (
{
guideLines = (
{
position = "{0, 830}";
}
);
layerId = "D0000B7D-4744-4B9D-A6B4-49F65DE5F164";
paths = (
{
nodes = (
"20 738 LINE",
"113 738 LINE",
"113 830 LINE",
"20 830 LINE"
);
},
{
nodes = (
"185 738 LINE",
"278 738 LINE",
"278 830 LINE",
"185 830 LINE"
);
}
);
width = 298;
}
);
unicode = 00A8;
},
{
glyphname = cedilla;
layers = (
{
guideLines = (
{
position = "{0, 150}";
},
{
position = "{0, -39}";
}
);
layerId = "D0000B7D-4744-4B9D-A6B4-49F65DE5F164";
paths = (
{
nodes = (
"183 1 LINE",
"183 -6 LINE",
"158 -41 LINE",
"158 -109 LINE",
"133 -144 LINE",
"20 -144 LINE",
"20 -134 LINE",
"45 -99 LINE",
"105 -99 LINE",
"105 -79 LINE",
"68 -79 LINE",
"68 -34 LINE",
"105 -34 LINE",
"130 1 LINE"
);
}
);
width = 203;
}
);
unicode = 00B8;
},
{
glyphname = Jcircumflex;
layers = (
{
guideLines = (
{
position = "{0, 190}";
},
{
angle = 90;
position = "{118, 0}";
}
);
layerId = "D0000B7D-4744-4B9D-A6B4-49F65DE5F164";
paths = (
{
nodes = (
"470 0 LINE",
"470 700 LINE",
"315 700 LINE",
"315 155 LINE",
"220 155 LINE",
"195 190 LINE",
"40 190 LINE",
"40 112 LINE",
"120 0 LINE"
);
},
{
nodes = (
"118 545 LINE",
"315 545 LINE",
"315 700 LINE",
"118 700 LINE"
);
},
{
nodes = (
"191 738 LINE",
"246 785 LINE",
"342 785 LINE",
"397 738 LINE",
"470 738 LINE",
"470 788 LINE",
"391 862 LINE",
"197 862 LINE",
"118 788 LINE",
"118 738 LINE"
);
}
);
width = 510;
}
);
unicode = 0134;
},
{
glyphname = jcircumflex;
layers = (
{
layerId = "D0000B7D-4744-4B9D-A6B4-49F65DE5F164";
paths = (
{
nodes = (
"470 0 LINE",
"470 700 LINE",
"315 700 LINE",
"315 155 LINE",
"220 155 LINE",
"195 190 LINE",
"40 190 LINE",
"40 112 LINE",
"120 0 LINE"
);
},
{
nodes = (
"118 545 LINE",
"315 545 LINE",
"315 700 LINE",
"118 700 LINE"
);
},
{
nodes = (
"191 738 LINE",
"246 785 LINE",
"342 785 LINE",
"397 738 LINE",
"470 738 LINE",
"470 788 LINE",
"391 862 LINE",
"197 862 LINE",
"118 788 LINE",
"118 738 LINE"
);
}
);
width = 510;
}
);
unicode = 0135;
},
{
glyphname = uni0136;
layers = (
{
guideLines = (
{
angle = 90;
position = "{535, 0}";
showMeasurement = 1;
},
{
position = "{0, 347}";
}
);
layerId = "D0000B7D-4744-4B9D-A6B4-49F65DE5F164";
paths = (
{
nodes = (
"40 0 LINE",
"40 700 LINE",
"195 700 LINE",
"195 425 LINE",
"380 700 LINE",
"535 700 LINE",
"535 622 LINE",
"335 347 LINE",
"535 78 LINE",
"535 0 LINE",
"387 0 LINE",
"195 275 LINE",
"195 0 LINE"
);
},
{
nodes = (
"261 -22 LINE",
"309 -22 LINE",
"324 -43 LINE",
"324 -95 LINE",
"278 -164 LINE",
"219 -164 LINE",
"219 -154 LINE",
"261 -95 LINE"
);
}
);
width = 575;
}
);
unicode = 0136;
},
{
glyphname = uni0137;
layers = (
{
layerId = "D0000B7D-4744-4B9D-A6B4-49F65DE5F164";
paths = (
{
nodes = (
"40 0 LINE",
"40 700 LINE",
"195 700 LINE",
"195 425 LINE",
"380 700 LINE",
"535 700 LINE",
"535 622 LINE",
"335 347 LINE",
"535 78 LINE",
"535 0 LINE",
"387 0 LINE",
"195 275 LINE",
"195 0 LINE"
);
},
{
nodes = (
"261 -22 LINE",
"309 -22 LINE",
"324 -43 LINE",
"324 -95 LINE",
"278 -164 LINE",
"219 -164 LINE",
"219 -154 LINE",
"261 -95 LINE"
);
}
);
width = 575;
}
);
unicode = 0137;
},
{
glyphname = A_V;
layers = (
{
guideLines = (
{
angle = 90;
position = "{-76, 0}";
},
{
angle = 90;
position = "{36, 0}";
},
{
position = "{0, 177}";
}
);
layerId = "D0000B7D-4744-4B9D-A6B4-49F65DE5F164";
paths = (
{
nodes = (
"5 0 LINE",
"138 665 LINE",
"163 700 LINE",
"358 700 LINE",
"511 0 LINE",
"447 0 LINE",
"386 177 LINE",
"361 142 LINE",
"215 142 LINE",
"190 177 LINE",
"160 0 LINE"
);
},
{
nodes = (
"204 286 LINE",
"229 251 LINE",
"339 251 LINE",
"364 286 LINE",
"312 545 LINE",
"244 545 LINE"
);
},
{
nodes = (
"281 700 LINE",
"436 700 LINE",
"520 154 LINE",
"607 154 LINE",
"692 700 LINE",
"847 700 LINE",
"714 35 LINE",
"689 0 LINE",
"439 0 LINE",
"414 35 LINE"
);
},
{
nodes = (
"520 154 LINE",
"607 154 LINE"
);
}
);
width = 852;
}
);
},
{
glyphname = a_v;
layers = (
{
layerId = "D0000B7D-4744-4B9D-A6B4-49F65DE5F164";
paths = (
{
nodes = (
"5 0 LINE",
"138 665 LINE",
"163 700 LINE",
"358 700 LINE",
"511 0 LINE",
"447 0 LINE",
"386 177 LINE",
"361 142 LINE",
"215 142 LINE",
"190 177 LINE",
"160 0 LINE"
);
},
{
nodes = (
"204 286 LINE",
"229 251 LINE",
"339 251 LINE",
"364 286 LINE",
"312 545 LINE",
"244 545 LINE"
);
},
{
nodes = (
"281 700 LINE",
"436 700 LINE",
"520 154 LINE",
"607 154 LINE",
"692 700 LINE",
"847 700 LINE",
"714 35 LINE",
"689 0 LINE",
"439 0 LINE",
"414 35 LINE"
);
},
{
nodes = (
"520 154 LINE",
"607 154 LINE"
);
}
);
width = 852;
}
);
},
{
glyphname = V_A;
layers = (
{
guideLines = (
{
angle = 90;
position = "{810, 0}";
},
{
angle = 90;
position = "{922, 0}";
},
{
position = "{0, 177}";
}
);
layerId = "D0000B7D-4744-4B9D-A6B4-49F65DE5F164";
paths = (
{
nodes = (
"5 700 LINE",
"160 700 LINE",
"244 154 LINE",
"331 154 LINE",
"416 700 LINE",
"571 700 LINE",
"438 35 LINE",
"413 0 LINE",
"163 0 LINE",
"138 35 LINE"
);
},
{
nodes = (
"244 154 LINE",
"331 154 LINE"
);
},
{
nodes = (
"338 0 LINE",
"470 700 LINE",
"689 700 LINE",
"714 665 LINE",
"847 0 LINE",
"692 0 LINE",
"662 177 LINE",
"637 142 LINE",
"491 142 LINE",
"466 177 LINE",
"413 0 LINE"
);
},
{
nodes = (
"488 286 LINE",
"513 251 LINE",
"622 251 LINE",
"647 286 LINE",
"607 545 LINE",
"537 545 LINE"
);
}
);
width = 852;
}
);
},
{
glyphname = v_a;
layers = (
{
layerId = "D0000B7D-4744-4B9D-A6B4-49F65DE5F164";
paths = (
{
nodes = (
"5 700 LINE",
"160 700 LINE",
"244 154 LINE",
"331 154 LINE",
"416 700 LINE",
"571 700 LINE",
"438 35 LINE",
"413 0 LINE",
"163 0 LINE",
"138 35 LINE"
);
},
{
nodes = (
"244 154 LINE",
"331 154 LINE"
);
},
{
nodes = (
"338 0 LINE",
"470 700 LINE",
"689 700 LINE",
"714 665 LINE",
"847 0 LINE",
"692 0 LINE",
"662 177 LINE",
"637 142 LINE",
"491 142 LINE",
"466 177 LINE",
"413 0 LINE"
);
},
{
nodes = (
"488 286 LINE",
"513 251 LINE",
"622 251 LINE",
"647 286 LINE",
"607 545 LINE",
"537 545 LINE"
);
}
);
width = 852;
}
);
},
{
glyphname = AE;
layers = (
{
guideLines = (
{
angle = 90;
position = "{-56, 0}";
},
{
angle = 90;
position = "{56, 0}";
},
{
position = "{0, 177}";
},
{
angle = 90;
position = "{800, 0}";
},
{
angle = 90;
position = "{702, 0}";
}
);
layerId = "D0000B7D-4744-4B9D-A6B4-49F65DE5F164";
paths = (
{
nodes = (
"10 0 LINE",
"143 665 LINE",
"168 700 LINE",
"372 700 LINE",
"372 0 LINE",
"336 0 LINE",
"336 142 LINE",
"220 142 LINE",
"195 177 LINE",
"165 0 LINE"
);
},
{
nodes = (
"209 286 LINE",
"234 251 LINE",
"336 251 LINE",
"336 545 LINE",
"249 545 LINE"
);
},
{
nodes = (
"336 0 LINE",
"336 700 LINE",
"720 700 LINE",
"800 588 LINE",
"800 510 LINE",
"679 510 LINE",
"654 545 LINE",
"491 545 LINE",
"491 410 LINE",
"679 410 LINE",
"679 290 LINE",
"491 290 LINE",
"491 155 LINE",
"654 155 LINE",
"679 190 LINE",
"800 190 LINE",
"800 112 LINE",
"720 0 LINE"
);
}
);
width = 840;
}
);
unicode = 00C6;
},
{
glyphname = ae;
layers = (
{
guideLines = (
{
angle = 90;
position = "{491, 0}";
}
);
layerId = "D0000B7D-4744-4B9D-A6B4-49F65DE5F164";
paths = (
{
nodes = (
"10 0 LINE",
"143 665 LINE",
"168 700 LINE",
"372 700 LINE",
"372 0 LINE",
"336 0 LINE",
"336 142 LINE",
"220 142 LINE",
"195 177 LINE",
"165 0 LINE"
);
},
{
nodes = (
"209 286 LINE",
"234 251 LINE",
"336 251 LINE",
"336 545 LINE",
"249 545 LINE"
);
},
{
nodes = (
"336 0 LINE",
"336 700 LINE",
"720 700 LINE",
"800 588 LINE",
"800 510 LINE",
"679 510 LINE",
"654 545 LINE",
"491 545 LINE",
"491 410 LINE",
"679 410 LINE",
"679 290 LINE",
"491 290 LINE",
"491 155 LINE",
"654 155 LINE",
"679 190 LINE",
"800 190 LINE",
"800 112 LINE",
"720 0 LINE"
);
}
);
width = 840;
}
);
unicode = 00E6;
},
{
glyphname = OE;
layers = (
{
guideLines = (
{
angle = 90;
position = "{926, 0}";
},
{
angle = 90;
position = "{828, 0}";
},
{
angle = 90;
position = "{511, 0}";
}
);
layerId = "D0000B7D-4744-4B9D-A6B4-49F65DE5F164";
paths = (
{
nodes = (
"40 588 LINE",
"120 700 LINE",
"433 700 LINE",
"433 0 LINE",
"120 0 LINE",
"40 112 LINE"
);
},
{
nodes = (
"195 510 LINE",
"195 190 LINE",
"220 155 LINE",
"356 155 LINE",
"356 545 LINE",
"220 545 LINE"
);
},
{
nodes = (
"356 0 LINE",
"356 700 LINE",
"740 700 LINE",
"820 588 LINE",
"820 510 LINE",
"699 510 LINE",
"674 545 LINE",
"511 545 LINE",
"511 410 LINE",
"699 410 LINE",
"699 290 LINE",
"511 290 LINE",
"511 155 LINE",
"674 155 LINE",
"699 190 LINE",
"820 190 LINE",
"820 112 LINE",
"740 0 LINE"
);
}
);
width = 860;
}
);
unicode = 0152;
},
{
glyphname = oe;
layers = (
{
layerId = "D0000B7D-4744-4B9D-A6B4-49F65DE5F164";
paths = (
{
nodes = (
"40 588 LINE",
"120 700 LINE",
"433 700 LINE",
"433 0 LINE",
"120 0 LINE",
"40 112 LINE"
);
},
{
nodes = (
"195 510 LINE",
"195 190 LINE",
"220 155 LINE",
"356 155 LINE",
"356 545 LINE",
"220 545 LINE"
);
},
{
nodes = (
"356 0 LINE",
"356 700 LINE",
"740 700 LINE",
"820 588 LINE",
"820 510 LINE",
"699 510 LINE",
"674 545 LINE",
"511 545 LINE",
"511 410 LINE",
"699 410 LINE",
"699 290 LINE",
"511 290 LINE",
"511 155 LINE",
"674 155 LINE",
"699 190 LINE",
"820 190 LINE",
"820 112 LINE",
"740 0 LINE"
);
}
);
width = 860;
}
);
unicode = 0153;
},
{
glyphname = Thorn;
layers = (
{
guideLines = (
{
angle = 90;
position = "{195, 0}";
}
);
layerId = "D0000B7D-4744-4B9D-A6B4-49F65DE5F164";
paths = (
{
nodes = (
"40 0 LINE",
"40 810 LINE",
"195 810 LINE",
"195 700 LINE",
"422 700 LINE",
"502 588 LINE",
"502 342 LINE",
"422 230 LINE",
"195 230 LINE",
"195 0 LINE"
);
},
{
nodes = (
"195 545 LINE",
"195 385 LINE",
"322 385 LINE",
"347 420 LINE",
"347 510 LINE",
"322 545 LINE"
);
}
);
width = 542;
}
);
unicode = 00DE;
},
{
glyphname = thorn;
layers = (
{
layerId = "D0000B7D-4744-4B9D-A6B4-49F65DE5F164";
paths = (
{
nodes = (
"40 0 LINE",
"40 810 LINE",
"195 810 LINE",
"195 700 LINE",
"422 700 LINE",
"502 588 LINE",
"502 342 LINE",
"422 230 LINE",
"195 230 LINE",
"195 0 LINE"
);
},
{
nodes = (
"195 545 LINE",
"195 385 LINE",
"322 385 LINE",
"347 420 LINE",
"347 510 LINE",
"322 545 LINE"
);
}
);
width = 542;
}
);
unicode = 00FE;
},
{
glyphname = germandbls;
layers = (
{
guideLines = (
{
angle = 90;
position = "{245, 0}";
}
);
layerId = "D0000B7D-4744-4B9D-A6B4-49F65DE5F164";
paths = (
{
nodes = (
"40 0 LINE",
"40 588 LINE",
"120 700 LINE",
"460 700 LINE",
"540 588 LINE",
"540 405 LINE",
"483 358 LINE",
"540 311 LINE",
"540 112 LINE",
"460 0 LINE",
"245 0 LINE"
);
},
{
nodes = (
"195 565 LINE",
"195 358 LINE",
"385 358 LINE",
"385 393 LINE",
"385 530 LINE",
"360 565 LINE"
);
},
{
nodes = (
"195 358 LINE",
"195 0 LINE",
"245 0 LINE",
"245 135 LINE",
"360 135 LINE",
"385 170 LINE",
"385 323 LINE",
"385 358 LINE"
);
},
{
nodes = (
"270 428 LINE",
"385 428 LINE",
"385 273 LINE",
"270 273 LINE",
"245 308 LINE",
"245 393 LINE"
);
}
);
width = 580;
}
);
unicode = 00DF;
},
{
glyphname = Eth;
layers = (
{
layerId = "D0000B7D-4744-4B9D-A6B4-49F65DE5F164";
paths = (
{
nodes = (
"40 700 LINE",
"40 397 LINE",
"-20 397 LINE",
"-20 295 LINE",
"40 295 LINE",
"40 0 LINE",
"460 0 LINE",
"540 112 LINE",
"540 588 LINE",
"460 700 LINE"
);
},
{
nodes = (
"195 545 LINE",
"360 545 LINE",
"385 510 LINE",
"385 190 LINE",
"360 155 LINE",
"195 155 LINE",
"195 295 LINE",
"280 295 LINE",
"280 397 LINE",
"195 397 LINE"
);
}
);
width = 580;
}
);
unicode = 00D0;
},
{
glyphname = Dcroat;
layers = (
{
layerId = "D0000B7D-4744-4B9D-A6B4-49F65DE5F164";
paths = (
{
nodes = (
"40 700 LINE",
"40 397 LINE",
"-20 397 LINE",
"-20 295 LINE",
"40 295 LINE",
"40 0 LINE",
"460 0 LINE",
"540 112 LINE",
"540 588 LINE",
"460 700 LINE"
);
},
{
nodes = (
"195 545 LINE",
"360 545 LINE",
"385 510 LINE",
"385 190 LINE",
"360 155 LINE",
"195 155 LINE",
"195 295 LINE",
"280 295 LINE",
"280 397 LINE",
"195 397 LINE"
);
}
);
width = 580;
}
);
unicode = 0110;
},
{
glyphname = eth;
layers = (
{
layerId = "D0000B7D-4744-4B9D-A6B4-49F65DE5F164";
paths = (
{
nodes = (
"40 700 LINE",
"40 397 LINE",
"-20 397 LINE",
"-20 295 LINE",
"40 295 LINE",
"40 0 LINE",
"460 0 LINE",
"540 112 LINE",
"540 588 LINE",
"460 700 LINE"
);
},
{
nodes = (
"195 545 LINE",
"360 545 LINE",
"385 510 LINE",
"385 190 LINE",
"360 155 LINE",
"195 155 LINE",
"195 295 LINE",
"280 295 LINE",
"280 397 LINE",
"195 397 LINE"
);
}
);
width = 580;
}
);
unicode = 00F0;
},
{
glyphname = dcroat;
layers = (
{
layerId = "D0000B7D-4744-4B9D-A6B4-49F65DE5F164";
paths = (
{
nodes = (
"40 700 LINE",
"40 397 LINE",
"-20 397 LINE",
"-20 295 LINE",
"40 295 LINE",
"40 0 LINE",
"460 0 LINE",
"540 112 LINE",
"540 588 LINE",
"460 700 LINE"
);
},
{
nodes = (
"195 545 LINE",
"360 545 LINE",
"385 510 LINE",
"385 190 LINE",
"360 155 LINE",
"195 155 LINE",
"195 295 LINE",
"280 295 LINE",
"280 397 LINE",
"195 397 LINE"
);
}
);
width = 580;
}
);
unicode = 0111;
},
{
glyphname = Dcaron;
layers = (
{
guideLines = (
{
angle = 90;
position = "{-552, 0}";
}
);
layerId = "D0000B7D-4744-4B9D-A6B4-49F65DE5F164";
paths = (
{
nodes = (
"40 700 LINE",
"40 0 LINE",
"460 0 LINE",
"540 112 LINE",
"540 588 LINE",
"460 700 LINE"
);
},
{
nodes = (
"195 545 LINE",
"360 545 LINE",
"385 510 LINE",
"385 190 LINE",
"360 155 LINE",
"195 155 LINE"
);
},
{
nodes = (
"157 869 LINE",
"157 808 LINE",
"232 738 LINE",
"348 738 LINE",
"423 808 LINE",
"423 869 LINE",
"388 869 LINE",
"317 801 LINE",
"260 801 LINE",
"192 869 LINE"
);
}
);
width = 580;
}
);
unicode = 010E;
},
{
glyphname = dcaron;
layers = (
{
layerId = "D0000B7D-4744-4B9D-A6B4-49F65DE5F164";
paths = (
{
nodes = (
"40 700 LINE",
"40 0 LINE",
"460 0 LINE",
"540 112 LINE",
"540 588 LINE",
"460 700 LINE"
);
},
{
nodes = (
"195 545 LINE",
"360 545 LINE",
"385 510 LINE",
"385 190 LINE",
"360 155 LINE",
"195 155 LINE"
);
},
{
nodes = (
"645 579 LINE",
"575 480 LINE",
"575 464 LINE",
"674 464 LINE",
"750 579 LINE",
"750 665 LINE",
"725 700 LINE",
"645 700 LINE"
);
}
);
width = 760;
}
);
unicode = 010F;
},
{
glyphname = Ccircumflex;
layers = (
{
guideLines = (
{
angle = 90;
position = "{535, 0}";
},
{
angle = 90;
position = "{152, 0}";
},
{
position = "{0, 545}";
},
{
position = "{0, 190}";
},
{
angle = 90;
position = "{335, 0}";
},
{
angle = 90;
position = "{388, 0}";
}
);
layerId = "D0000B7D-4744-4B9D-A6B4-49F65DE5F164";
paths = (
{
nodes = (
"40 700 LINE",
"40 0 LINE",
"427 0 LINE",
"507 112 LINE",
"507 190 LINE",
"360 190 LINE",
"335 155 LINE",
"195 155 LINE",
"195 545 LINE",
"335 545 LINE",
"360 510 LINE",
"507 510 LINE",
"507 588 LINE",
"427 700 LINE"
);
},
{
nodes = (
"113 738 LINE",
"168 785 LINE",
"321 785 LINE",
"376 738 LINE",
"449 738 LINE",
"449 788 LINE",
"370 862 LINE",
"119 862 LINE",
"40 788 LINE",
"40 738 LINE"
);
}
);
width = 547;
}
);
unicode = 0108;
},
{
glyphname = ccircumflex;
layers = (
{
guideLines = (
{
angle = 90;
position = "{40, 0}";
}
);
layerId = "D0000B7D-4744-4B9D-A6B4-49F65DE5F164";
paths = (
{
nodes = (
"40 700 LINE",
"40 0 LINE",
"427 0 LINE",
"507 112 LINE",
"507 190 LINE",
"360 190 LINE",
"335 155 LINE",
"195 155 LINE",
"195 545 LINE",
"335 545 LINE",
"360 510 LINE",
"507 510 LINE",
"507 588 LINE",
"427 700 LINE"
);
},
{
nodes = (
"113 738 LINE",
"168 785 LINE",
"321 785 LINE",
"376 738 LINE",
"449 738 LINE",
"449 788 LINE",
"370 862 LINE",
"119 862 LINE",
"40 788 LINE",
"40 738 LINE"
);
}
);
width = 547;
}
);
unicode = 0109;
},
{
glyphname = Ccedilla;
layers = (
{
guideLines = (
{
angle = 90;
position = "{535, 0}";
},
{
angle = 90;
position = "{152, 0}";
},
{
position = "{0, 545}";
},
{
position = "{0, 190}";
},
{
angle = 90;
position = "{335, 0}";
},
{
angle = 90;
position = "{388, 0}";
}
);
layerId = "D0000B7D-4744-4B9D-A6B4-49F65DE5F164";
paths = (
{
nodes = (
"40 700 LINE",
"40 0 LINE",
"427 0 LINE",
"507 112 LINE",
"507 190 LINE",
"360 190 LINE",
"335 155 LINE",
"195 155 LINE",
"195 545 LINE",
"335 545 LINE",
"360 510 LINE",
"507 510 LINE",
"507 588 LINE",
"427 700 LINE"
);
},
{
nodes = (
"275 1 LINE",
"250 -34 LINE",
"213 -34 LINE",
"213 -79 LINE",
"250 -79 LINE",
"250 -99 LINE",
"190 -99 LINE",
"165 -134 LINE",
"165 -144 LINE",
"278 -144 LINE",
"303 -109 LINE",
"303 -41 LINE",
"328 -6 LINE",
"328 1 LINE"
);
}
);
width = 547;
}
);
unicode = 00C7;
},
{
glyphname = ccedilla;
layers = (
{
guideLines = (
{
angle = 90;
position = "{335, 0}";
}
);
layerId = "D0000B7D-4744-4B9D-A6B4-49F65DE5F164";
paths = (
{
nodes = (
"40 700 LINE",
"40 0 LINE",
"427 0 LINE",
"507 112 LINE",
"507 190 LINE",
"360 190 LINE",
"335 155 LINE",
"195 155 LINE",
"195 545 LINE",
"335 545 LINE",
"360 510 LINE",
"507 510 LINE",
"507 588 LINE",
"427 700 LINE"
);
},
{
nodes = (
"275 1 LINE",
"250 -34 LINE",
"213 -34 LINE",
"213 -79 LINE",
"250 -79 LINE",
"250 -99 LINE",
"190 -99 LINE",
"165 -134 LINE",
"165 -144 LINE",
"278 -144 LINE",
"303 -109 LINE",
"303 -41 LINE",
"328 -6 LINE",
"328 1 LINE"
);
}
);
width = 547;
}
);
unicode = 00E7;
},
{
glyphname = Ccaron;
layers = (
{
guideLines = (
{
angle = 90;
position = "{535, 0}";
},
{
angle = 90;
position = "{152, 0}";
},
{
position = "{0, 545}";
},
{
position = "{0, 190}";
},
{
angle = 90;
position = "{335, 0}";
},
{
angle = 90;
position = "{388, 0}";
}
);
layerId = "D0000B7D-4744-4B9D-A6B4-49F65DE5F164";
paths = (
{
nodes = (
"40 700 LINE",
"40 0 LINE",
"427 0 LINE",
"507 112 LINE",
"507 190 LINE",
"360 190 LINE",
"335 155 LINE",
"195 155 LINE",
"195 545 LINE",
"335 545 LINE",
"360 510 LINE",
"507 510 LINE",
"507 588 LINE",
"427 700 LINE"
);
},
{
nodes = (
"120 869 LINE",
"120 808 LINE",
"195 738 LINE",
"311 738 LINE",
"386 808 LINE",
"386 869 LINE",
"351 869 LINE",
"280 801 LINE",
"223 801 LINE",
"155 869 LINE"
);
}
);
width = 547;
}
);
unicode = 010C;
},
{
glyphname = ccaron;
layers = (
{
guideLines = (
{
angle = 90;
position = "{195, 0}";
}
);
layerId = "D0000B7D-4744-4B9D-A6B4-49F65DE5F164";
paths = (
{
nodes = (
"40 700 LINE",
"40 0 LINE",
"427 0 LINE",
"507 112 LINE",
"507 190 LINE",
"360 190 LINE",
"335 155 LINE",
"195 155 LINE",
"195 545 LINE",
"335 545 LINE",
"360 510 LINE",
"507 510 LINE",
"507 588 LINE",
"427 700 LINE"
);
},
{
nodes = (
"120 869 LINE",
"120 808 LINE",
"195 738 LINE",
"311 738 LINE",
"386 808 LINE",
"386 869 LINE",
"351 869 LINE",
"280 801 LINE",
"223 801 LINE",
"155 869 LINE"
);
}
);
width = 547;
}
);
unicode = 010D;
},
{
glyphname = Cacute;
layers = (
{
guideLines = (
{
angle = 90;
position = "{535, 0}";
},
{
angle = 90;
position = "{152, 0}";
},
{
position = "{0, 545}";
},
{
position = "{0, 190}";
},
{
angle = 90;
position = "{335, 0}";
},
{
angle = 90;
position = "{388, 0}";
}
);
layerId = "D0000B7D-4744-4B9D-A6B4-49F65DE5F164";
paths = (
{
nodes = (
"40 700 LINE",
"40 0 LINE",
"427 0 LINE",
"507 112 LINE",
"507 190 LINE",
"360 190 LINE",
"335 155 LINE",
"195 155 LINE",
"195 545 LINE",
"335 545 LINE",
"360 510 LINE",
"507 510 LINE",
"507 588 LINE",
"427 700 LINE"
);
},
{
nodes = (
"94 803 LINE",
"94 738 LINE",
"154 738 LINE",
"453 799 LINE",
"453 844 LINE",
"154 822 LINE"
);
}
);
width = 547;
}
);
unicode = 0106;
},
{
glyphname = cacute;
layers = (
{
layerId = "D0000B7D-4744-4B9D-A6B4-49F65DE5F164";
paths = (
{
nodes = (
"40 700 LINE",
"40 0 LINE",
"427 0 LINE",
"507 112 LINE",
"507 190 LINE",
"360 190 LINE",
"335 155 LINE",
"195 155 LINE",
"195 545 LINE",
"335 545 LINE",
"360 510 LINE",
"507 510 LINE",
"507 588 LINE",
"427 700 LINE"
);
},
{
nodes = (
"94 803 LINE",
"94 738 LINE",
"154 738 LINE",
"453 799 LINE",
"453 844 LINE",
"154 822 LINE"
);
}
);
width = 547;
}
);
unicode = 0107;
},
{
glyphname = Cdotaccent;
layers = (
{
guideLines = (
{
angle = 90;
position = "{535, 0}";
},
{
angle = 90;
position = "{152, 0}";
},
{
position = "{0, 545}";
},
{
position = "{0, 190}";
},
{
angle = 90;
position = "{335, 0}";
},
{
angle = 90;
position = "{388, 0}";
}
);
layerId = "D0000B7D-4744-4B9D-A6B4-49F65DE5F164";
paths = (
{
nodes = (
"40 700 LINE",
"40 0 LINE",
"427 0 LINE",
"507 112 LINE",
"507 190 LINE",
"360 190 LINE",
"335 155 LINE",
"195 155 LINE",
"195 545 LINE",
"335 545 LINE",
"360 510 LINE",
"507 510 LINE",
"507 588 LINE",
"427 700 LINE"
);
},
{
nodes = (
"239 738 LINE",
"309 738 LINE",
"334 763 LINE",
"334 833 LINE",
"309 858 LINE",
"239 858 LINE",
"214 833 LINE",
"214 763 LINE"
);
}
);
width = 547;
}
);
unicode = 010A;
},
{
glyphname = cdotaccent;
layers = (
{
layerId = "D0000B7D-4744-4B9D-A6B4-49F65DE5F164";
paths = (
{
nodes = (
"40 700 LINE",
"40 0 LINE",
"427 0 LINE",
"507 112 LINE",
"507 190 LINE",
"360 190 LINE",
"335 155 LINE",
"195 155 LINE",
"195 545 LINE",
"335 545 LINE",
"360 510 LINE",
"507 510 LINE",
"507 588 LINE",
"427 700 LINE"
);
},
{
nodes = (
"239 738 LINE",
"309 738 LINE",
"334 763 LINE",
"334 833 LINE",
"309 858 LINE",
"239 858 LINE",
"214 833 LINE",
"214 763 LINE"
);
}
);
width = 547;
}
);
unicode = 010B;
},
{
glyphname = Scedilla;
layers = (
{
guideLines = (
{
angle = 90;
position = "{-822, 0}";
},
{
position = "{0, 700}";
},
{
angle = 90;
position = "{40, 0}";
showMeasurement = 1;
},
{
angle = 90;
position = "{442, 0}";
},
{
position = "{0, 150}";
},
{
position = "{0, -39}";
}
);
layerId = "D0000B7D-4744-4B9D-A6B4-49F65DE5F164";
paths = (
{
nodes = (
"502 588 LINE",
"422 700 LINE",
"65 700 LINE",
"40 665 LINE",
"40 480 LINE",
"358 155 LINE",
"193 155 LINE",
"168 190 LINE",
"40 190 LINE",
"40 112 LINE",
"120 0 LINE",
"477 0 LINE",
"502 35 LINE",
"502 220 LINE",
"187 545 LINE",
"352 545 LINE",
"377 510 LINE",
"502 510 LINE"
);
},
{
nodes = (
"300 1 LINE",
"275 -34 LINE",
"238 -34 LINE",
"238 -79 LINE",
"275 -79 LINE",
"275 -99 LINE",
"215 -99 LINE",
"190 -134 LINE",
"190 -144 LINE",
"303 -144 LINE",
"328 -109 LINE",
"328 -41 LINE",
"353 -6 LINE",
"353 1 LINE"
);
}
);
width = 542;
}
);
unicode = 015E;
},
{
glyphname = scedilla;
layers = (
{
guideLines = (
{
position = "{0, 150}";
},
{
position = "{0, -39}";
}
);
layerId = "D0000B7D-4744-4B9D-A6B4-49F65DE5F164";
paths = (
{
nodes = (
"502 588 LINE",
"422 700 LINE",
"65 700 LINE",
"40 665 LINE",
"40 480 LINE",
"358 155 LINE",
"193 155 LINE",
"168 190 LINE",
"40 190 LINE",
"40 112 LINE",
"120 0 LINE",
"477 0 LINE",
"502 35 LINE",
"502 220 LINE",
"187 545 LINE",
"352 545 LINE",
"377 510 LINE",
"502 510 LINE"
);
},
{
nodes = (
"300 1 LINE",
"275 -34 LINE",
"238 -34 LINE",
"238 -79 LINE",
"275 -79 LINE",
"275 -99 LINE",
"215 -99 LINE",
"190 -134 LINE",
"190 -144 LINE",
"303 -144 LINE",
"328 -109 LINE",
"328 -41 LINE",
"353 -6 LINE",
"353 1 LINE"
);
}
);
width = 542;
}
);
unicode = 015F;
},
{
glyphname = Scaron;
layers = (
{
layerId = "D0000B7D-4744-4B9D-A6B4-49F65DE5F164";
paths = (
{
nodes = (
"129 868 LINE",
"129 807 LINE",
"204 737 LINE",
"320 737 LINE",
"395 807 LINE",
"395 868 LINE",
"360 868 LINE",
"289 800 LINE",
"232 800 LINE",
"164 868 LINE"
);
},
{
nodes = (
"502 588 LINE",
"422 700 LINE",
"65 700 LINE",
"40 665 LINE",
"40 480 LINE",
"358 155 LINE",
"193 155 LINE",
"168 190 LINE",
"40 190 LINE",
"40 112 LINE",
"120 0 LINE",
"477 0 LINE",
"502 35 LINE",
"502 220 LINE",
"187 545 LINE",
"352 545 LINE",
"377 510 LINE",
"502 510 LINE"
);
}
);
width = 542;
}
);
unicode = 0160;
},
{
glyphname = scaron;
layers = (
{
layerId = "D0000B7D-4744-4B9D-A6B4-49F65DE5F164";
paths = (
{
nodes = (
"126 868 LINE",
"126 807 LINE",
"201 737 LINE",
"317 737 LINE",
"392 807 LINE",
"392 868 LINE",
"357 868 LINE",
"286 800 LINE",
"229 800 LINE",
"161 868 LINE"
);
},
{
nodes = (
"502 588 LINE",
"422 700 LINE",
"65 700 LINE",
"40 665 LINE",
"40 480 LINE",
"358 155 LINE",
"193 155 LINE",
"168 190 LINE",
"40 190 LINE",
"40 112 LINE",
"120 0 LINE",
"477 0 LINE",
"502 35 LINE",
"502 220 LINE",
"187 545 LINE",
"352 545 LINE",
"377 510 LINE",
"502 510 LINE"
);
}
);
width = 542;
}
);
unicode = 0161;
},
{
glyphname = Scircumflex;
layers = (
{
guideLines = (
{
angle = 90;
position = "{-1129, 0}";
},
{
position = "{0, 700}";
},
{
angle = 90;
position = "{40, 0}";
showMeasurement = 1;
},
{
angle = 90;
position = "{442, 0}";
}
);
layerId = "D0000B7D-4744-4B9D-A6B4-49F65DE5F164";
paths = (
{
nodes = (
"41 738 LINE",
"41 788 LINE",
"120 862 LINE",
"371 862 LINE",
"450 788 LINE",
"450 738 LINE",
"377 738 LINE",
"322 785 LINE",
"169 785 LINE",
"114 738 LINE"
);
},
{
nodes = (
"502 510 LINE",
"377 510 LINE",
"352 545 LINE",
"187 545 LINE",
"502 220 LINE",
"502 35 LINE",
"477 0 LINE",
"120 0 LINE",
"40 112 LINE",
"40 190 LINE",
"168 190 LINE",
"193 155 LINE",
"358 155 LINE",
"40 480 LINE",
"40 665 LINE",
"65 700 LINE",
"422 700 LINE",
"502 588 LINE"
);
}
);
width = 542;
}
);
unicode = 015C;
},
{
glyphname = scircumflex;
layers = (
{
guideLines = (
{
angle = 90;
position = "{40, 0}";
}
);
layerId = "D0000B7D-4744-4B9D-A6B4-49F65DE5F164";
paths = (
{
nodes = (
"41 738 LINE",
"41 788 LINE",
"120 862 LINE",
"371 862 LINE",
"450 788 LINE",
"450 738 LINE",
"377 738 LINE",
"322 785 LINE",
"169 785 LINE",
"114 738 LINE"
);
},
{
nodes = (
"502 510 LINE",
"377 510 LINE",
"352 545 LINE",
"187 545 LINE",
"502 220 LINE",
"502 35 LINE",
"477 0 LINE",
"120 0 LINE",
"40 112 LINE",
"40 190 LINE",
"168 190 LINE",
"193 155 LINE",
"358 155 LINE",
"40 480 LINE",
"40 665 LINE",
"65 700 LINE",
"422 700 LINE",
"502 588 LINE"
);
}
);
width = 542;
}
);
unicode = 015D;
},
{
glyphname = uni0218;
layers = (
{
guideLines = (
{
angle = 90;
position = "{-822, 0}";
},
{
position = "{0, 700}";
},
{
angle = 90;
position = "{40, 0}";
showMeasurement = 1;
},
{
angle = 90;
position = "{442, 0}";
}
);
layerId = "D0000B7D-4744-4B9D-A6B4-49F65DE5F164";
paths = (
{
nodes = (
"502 588 LINE",
"422 700 LINE",
"65 700 LINE",
"40 665 LINE",
"40 480 LINE",
"358 155 LINE",
"193 155 LINE",
"168 190 LINE",
"40 190 LINE",
"40 112 LINE",
"120 0 LINE",
"477 0 LINE",
"502 35 LINE",
"502 220 LINE",
"187 545 LINE",
"352 545 LINE",
"377 510 LINE",
"502 510 LINE"
);
},
{
nodes = (
"261 -95 LINE",
"219 -154 LINE",
"219 -164 LINE",
"278 -164 LINE",
"324 -95 LINE",
"324 -43 LINE",
"309 -22 LINE",
"261 -22 LINE"
);
}
);
width = 542;
}
);
unicode = 0218;
},
{
glyphname = uni0219;
layers = (
{
layerId = "D0000B7D-4744-4B9D-A6B4-49F65DE5F164";
paths = (
{
nodes = (
"261 -22 LINE",
"309 -22 LINE",
"324 -43 LINE",
"324 -95 LINE",
"278 -164 LINE",
"219 -164 LINE",
"219 -154 LINE",
"261 -95 LINE"
);
},
{
nodes = (
"502 588 LINE",
"422 700 LINE",
"65 700 LINE",
"40 665 LINE",
"40 480 LINE",
"358 155 LINE",
"193 155 LINE",
"168 190 LINE",
"40 190 LINE",
"40 112 LINE",
"120 0 LINE",
"477 0 LINE",
"502 35 LINE",
"502 220 LINE",
"187 545 LINE",
"352 545 LINE",
"377 510 LINE",
"502 510 LINE"
);
}
);
width = 542;
}
);
unicode = 0219;
},
{
glyphname = Zcaron;
layers = (
{
layerId = "D0000B7D-4744-4B9D-A6B4-49F65DE5F164";
paths = (
{
nodes = (
"150 868 LINE",
"150 807 LINE",
"225 737 LINE",
"341 737 LINE",
"416 807 LINE",
"416 868 LINE",
"381 868 LINE",
"310 800 LINE",
"253 800 LINE",
"185 868 LINE"
);
},
{
nodes = (
"65 545 LINE",
"305 545 LINE",
"40 112 LINE",
"120 0 LINE",
"528 0 LINE",
"528 120 LINE",
"503 155 LINE",
"263 155 LINE",
"528 588 LINE",
"448 700 LINE",
"40 700 LINE",
"40 580 LINE"
);
}
);
width = 568;
}
);
unicode = 017D;
},
{
glyphname = zcaron;
layers = (
{
layerId = "D0000B7D-4744-4B9D-A6B4-49F65DE5F164";
paths = (
{
nodes = (
"152 868 LINE",
"152 807 LINE",
"227 737 LINE",
"343 737 LINE",
"418 807 LINE",
"418 868 LINE",
"383 868 LINE",
"312 800 LINE",
"255 800 LINE",
"187 868 LINE"
);
},
{
nodes = (
"65 545 LINE",
"305 545 LINE",
"40 112 LINE",
"120 0 LINE",
"528 0 LINE",
"528 120 LINE",
"503 155 LINE",
"263 155 LINE",
"528 588 LINE",
"448 700 LINE",
"40 700 LINE",
"40 580 LINE"
);
}
);
width = 568;
}
);
unicode = 017E;
},
{
glyphname = Zdotaccent;
layers = (
{
guideLines = (
{
angle = 90;
position = "{40, 0}";
},
{
angle = 90;
position = "{528, 0}";
}
);
layerId = "D0000B7D-4744-4B9D-A6B4-49F65DE5F164";
paths = (
{
nodes = (
"249 738 LINE",
"319 738 LINE",
"344 763 LINE",
"344 833 LINE",
"319 858 LINE",
"249 858 LINE",
"224 833 LINE",
"224 763 LINE"
);
},
{
nodes = (
"65 545 LINE",
"305 545 LINE",
"40 112 LINE",
"120 0 LINE",
"528 0 LINE",
"528 120 LINE",
"503 155 LINE",
"263 155 LINE",
"528 588 LINE",
"448 700 LINE",
"40 700 LINE",
"40 580 LINE"
);
}
);
width = 568;
}
);
unicode = 017B;
},
{
glyphname = zdotaccent;
layers = (
{
layerId = "D0000B7D-4744-4B9D-A6B4-49F65DE5F164";
paths = (
{
nodes = (
"249 780 LINE",
"319 780 LINE",
"344 805 LINE",
"344 875 LINE",
"319 900 LINE",
"249 900 LINE",
"224 875 LINE",
"224 805 LINE"
);
},
{
nodes = (
"65 545 LINE",
"305 545 LINE",
"40 112 LINE",
"120 0 LINE",
"528 0 LINE",
"528 120 LINE",
"503 155 LINE",
"263 155 LINE",
"528 588 LINE",
"448 700 LINE",
"40 700 LINE",
"40 580 LINE"
);
}
);
width = 568;
}
);
unicode = 017C;
},
{
glyphname = uni0156;
layers = (
{
guideLines = (
{
position = "{0, 700}";
},
{
angle = 90;
position = "{40, 0}";
},
{
angle = 90;
position = "{195, 0}";
},
{
angle = 90;
position = "{346, 0}";
},
{
angle = 90;
position = "{521, 0}";
},
{
angle = 90;
position = "{195, 0}";
}
);
layerId = "D0000B7D-4744-4B9D-A6B4-49F65DE5F164";
paths = (
{
nodes = (
"40 0 LINE",
"40 700 LINE",
"421 700 LINE",
"501 588 LINE",
"501 418 LINE",
"421 306 LINE",
"521 78 LINE",
"521 0 LINE",
"366 0 LINE",
"273 264 LINE",
"195 264 LINE",
"195 0 LINE"
);
},
{
nodes = (
"195 545 LINE",
"195 419 LINE",
"321 419 LINE",
"346 454 LINE",
"346 510 LINE",
"321 545 LINE"
);
},
{
nodes = (
"260 -22 LINE",
"308 -22 LINE",
"323 -43 LINE",
"323 -95 LINE",
"277 -164 LINE",
"218 -164 LINE",
"218 -154 LINE",
"260 -95 LINE"
);
}
);
width = 541;
}
);
unicode = 0156;
},
{
glyphname = uni0157;
layers = (
{
layerId = "D0000B7D-4744-4B9D-A6B4-49F65DE5F164";
paths = (
{
nodes = (
"40 0 LINE",
"40 700 LINE",
"421 700 LINE",
"501 588 LINE",
"501 418 LINE",
"421 306 LINE",
"521 78 LINE",
"521 0 LINE",
"366 0 LINE",
"273 264 LINE",
"195 264 LINE",
"195 0 LINE"
);
},
{
nodes = (
"195 545 LINE",
"195 419 LINE",
"321 419 LINE",
"346 454 LINE",
"346 510 LINE",
"321 545 LINE"
);
},
{
nodes = (
"260 -22 LINE",
"308 -22 LINE",
"323 -43 LINE",
"323 -95 LINE",
"277 -164 LINE",
"218 -164 LINE",
"218 -154 LINE",
"260 -95 LINE"
);
}
);
width = 541;
}
);
unicode = 0157;
},
{
glyphname = Racute;
layers = (
{
guideLines = (
{
position = "{0, 700}";
},
{
angle = 90;
position = "{40, 0}";
},
{
angle = 90;
position = "{195, 0}";
},
{
angle = 90;
position = "{346, 0}";
},
{
angle = 90;
position = "{521, 0}";
},
{
angle = 90;
position = "{195, 0}";
}
);
layerId = "D0000B7D-4744-4B9D-A6B4-49F65DE5F164";
paths = (
{
nodes = (
"40 0 LINE",
"40 700 LINE",
"421 700 LINE",
"501 588 LINE",
"501 418 LINE",
"421 306 LINE",
"521 78 LINE",
"521 0 LINE",
"366 0 LINE",
"273 264 LINE",
"195 264 LINE",
"195 0 LINE"
);
},
{
nodes = (
"195 545 LINE",
"195 419 LINE",
"321 419 LINE",
"346 454 LINE",
"346 510 LINE",
"321 545 LINE"
);
},
{
nodes = (
"151 822 LINE",
"450 844 LINE",
"450 799 LINE",
"151 738 LINE",
"91 738 LINE",
"91 803 LINE"
);
}
);
width = 541;
}
);
unicode = 0154;
},
{
glyphname = racute;
layers = (
{
layerId = "D0000B7D-4744-4B9D-A6B4-49F65DE5F164";
paths = (
{
nodes = (
"40 0 LINE",
"40 700 LINE",
"421 700 LINE",
"501 588 LINE",
"501 418 LINE",
"421 306 LINE",
"521 78 LINE",
"521 0 LINE",
"366 0 LINE",
"273 264 LINE",
"195 264 LINE",
"195 0 LINE"
);
},
{
nodes = (
"195 545 LINE",
"195 419 LINE",
"321 419 LINE",
"346 454 LINE",
"346 510 LINE",
"321 545 LINE"
);
},
{
nodes = (
"151 822 LINE",
"450 844 LINE",
"450 799 LINE",
"151 738 LINE",
"91 738 LINE",
"91 803 LINE"
);
}
);
width = 541;
}
);
unicode = 0155;
},
{
glyphname = Rcaron;
layers = (
{
guideLines = (
{
position = "{0, 700}";
},
{
angle = 90;
position = "{40, 0}";
},
{
angle = 90;
position = "{195, 0}";
},
{
angle = 90;
position = "{346, 0}";
},
{
angle = 90;
position = "{521, 0}";
},
{
angle = 90;
position = "{195, 0}";
}
);
layerId = "D0000B7D-4744-4B9D-A6B4-49F65DE5F164";
paths = (
{
nodes = (
"121 869 LINE",
"121 808 LINE",
"196 738 LINE",
"312 738 LINE",
"387 808 LINE",
"387 869 LINE",
"352 869 LINE",
"281 801 LINE",
"224 801 LINE",
"156 869 LINE"
);
},
{
nodes = (
"195 0 LINE",
"195 264 LINE",
"273 264 LINE",
"366 0 LINE",
"521 0 LINE",
"521 78 LINE",
"421 306 LINE",
"501 418 LINE",
"501 588 LINE",
"421 700 LINE",
"40 700 LINE",
"40 0 LINE"
);
},
{
nodes = (
"321 545 LINE",
"346 510 LINE",
"346 454 LINE",
"321 419 LINE",
"195 419 LINE",
"195 545 LINE"
);
}
);
width = 541;
}
);
unicode = 0158;
},
{
glyphname = rcaron;
layers = (
{
guideLines = (
{
angle = 90;
position = "{195, 0}";
}
);
layerId = "D0000B7D-4744-4B9D-A6B4-49F65DE5F164";
paths = (
{
nodes = (
"120 868 LINE",
"120 807 LINE",
"195 737 LINE",
"311 737 LINE",
"386 807 LINE",
"386 868 LINE",
"351 868 LINE",
"280 800 LINE",
"223 800 LINE",
"155 868 LINE"
);
},
{
nodes = (
"195 0 LINE",
"195 264 LINE",
"273 264 LINE",
"366 0 LINE",
"521 0 LINE",
"521 78 LINE",
"421 306 LINE",
"501 418 LINE",
"501 588 LINE",
"421 700 LINE",
"40 700 LINE",
"40 0 LINE"
);
},
{
nodes = (
"321 545 LINE",
"346 510 LINE",
"346 454 LINE",
"321 419 LINE",
"195 419 LINE",
"195 545 LINE"
);
}
);
width = 541;
}
);
unicode = 0159;
},
{
glyphname = Tbar;
layers = (
{
guideLines = (
{
angle = 90;
position = "{165, 0}";
},
{
position = "{0, 645}";
}
);
layerId = "D0000B7D-4744-4B9D-A6B4-49F65DE5F164";
paths = (
{
nodes = (
"0 500 LINE",
"0 588 LINE",
"80 700 LINE",
"451 700 LINE",
"531 588 LINE",
"531 500 LINE",
"443 500 LINE",
"343 575 LINE",
"343 0 LINE",
"188 0 LINE",
"188 575 LINE",
"88 500 LINE"
);
},
{
nodes = (
"71 395 LINE",
"460 395 LINE",
"460 295 LINE",
"71 295 LINE"
);
}
);
width = 531;
}
);
unicode = 0166;
},
{
glyphname = tbar;
layers = (
{
guideLines = (
{
position = "{0, 295}";
}
);
layerId = "D0000B7D-4744-4B9D-A6B4-49F65DE5F164";
paths = (
{
nodes = (
"0 500 LINE",
"0 588 LINE",
"80 700 LINE",
"451 700 LINE",
"531 588 LINE",
"531 500 LINE",
"443 500 LINE",
"343 575 LINE",
"343 0 LINE",
"188 0 LINE",
"188 575 LINE",
"88 500 LINE"
);
},
{
nodes = (
"71 395 LINE",
"460 395 LINE",
"460 295 LINE",
"71 295 LINE"
);
}
);
width = 531;
}
);
unicode = 0167;
},
{
glyphname = Tcaron;
layers = (
{
guideLines = (
{
angle = 90;
position = "{188, 0}";
},
{
position = "{0, 645}";
},
{
angle = 90;
position = "{343, 0}";
}
);
layerId = "D0000B7D-4744-4B9D-A6B4-49F65DE5F164";
paths = (
{
nodes = (
"133 869 LINE",
"133 808 LINE",
"208 738 LINE",
"324 738 LINE",
"399 808 LINE",
"399 869 LINE",
"364 869 LINE",
"293 801 LINE",
"236 801 LINE",
"168 869 LINE"
);
},
{
nodes = (
"88 500 LINE",
"188 575 LINE",
"188 0 LINE",
"343 0 LINE",
"343 575 LINE",
"443 500 LINE",
"531 500 LINE",
"531 588 LINE",
"451 700 LINE",
"80 700 LINE",
"0 588 LINE",
"0 500 LINE"
);
}
);
width = 531;
}
);
unicode = 0164;
},
{
glyphname = tcaron;
layers = (
{
guideLines = (
{
angle = 90;
position = "{190, 0}";
},
{
angle = 90;
position = "{344, 0}";
}
);
layerId = "D0000B7D-4744-4B9D-A6B4-49F65DE5F164";
paths = (
{
nodes = (
"0 500 LINE",
"0 588 LINE",
"80 700 LINE",
"451 700 LINE",
"531 588 LINE",
"531 500 LINE",
"443 500 LINE",
"343 575 LINE",
"343 0 LINE",
"188 0 LINE",
"188 575 LINE",
"88 500 LINE"
);
},
{
nodes = (
"168 869 LINE",
"236 801 LINE",
"293 801 LINE",
"364 869 LINE",
"399 869 LINE",
"399 808 LINE",
"324 738 LINE",
"208 738 LINE",
"133 808 LINE",
"133 869 LINE"
);
}
);
width = 531;
}
);
unicode = 0165;
},
{
glyphname = uni0162;
layers = (
{
guideLines = (
{
angle = 90;
position = "{189, 0}";
},
{
position = "{0, 595}";
}
);
layerId = "D0000B7D-4744-4B9D-A6B4-49F65DE5F164";
paths = (
{
nodes = (
"0 500 LINE",
"0 588 LINE",
"80 700 LINE",
"451 700 LINE",
"531 588 LINE",
"531 500 LINE",
"443 500 LINE",
"343 575 LINE",
"343 0 LINE",
"188 0 LINE",
"188 575 LINE",
"88 500 LINE"
);
},
{
nodes = (
"343 1 LINE",
"343 -6 LINE",
"318 -41 LINE",
"318 -109 LINE",
"293 -144 LINE",
"180 -144 LINE",
"180 -134 LINE",
"205 -99 LINE",
"265 -99 LINE",
"265 -79 LINE",
"228 -79 LINE",
"228 -34 LINE",
"265 -34 LINE",
"290 1 LINE"
);
}
);
width = 531;
}
);
unicode = 0162;
},
